<?xml version="1.0" encoding="utf-8" standalone="no"?>
<!DOCTYPE svg PUBLIC "-//W3C//DTD SVG 1.1//EN"
  "http://www.w3.org/Graphics/SVG/1.1/DTD/svg11.dtd">
<svg height="326.466375pt" version="1.1" viewBox="0 0 470.036875 326.466375" width="470.036875pt" xmlns="http://www.w3.org/2000/svg" xmlns:xlink="http://www.w3.org/1999/xlink">
 <metadata>
  <rdf:RDF xmlns:cc="http://creativecommons.org/ns#" xmlns:dc="http://purl.org/dc/elements/1.1/" xmlns:rdf="http://www.w3.org/1999/02/22-rdf-syntax-ns#">
   <cc:Work>
    <dc:type rdf:resource="http://purl.org/dc/dcmitype/StillImage"/>
    <dc:date>2021-09-12T20:48:00.961389</dc:date>
    <dc:format>image/svg+xml</dc:format>
    <dc:creator>
     <cc:Agent>
      <dc:title>Matplotlib v3.4.3, https://matplotlib.org/</dc:title>
     </cc:Agent>
    </dc:creator>
   </cc:Work>
  </rdf:RDF>
 </metadata>
 <defs>
  <style type="text/css">*{stroke-linecap:butt;stroke-linejoin:round;}</style>
 </defs>
 <g id="figure_1">
  <g id="patch_1">
   <path d="M 0 326.466375 
L 470.036875 326.466375 
L 470.036875 0 
L 0 0 
z
" style="fill:#ffffff;"/>
  </g>
  <g id="axes_1">
   <g id="patch_2">
    <path d="M 63.26875 288.910125 
L 420.38875 288.910125 
L 420.38875 22.798125 
L 63.26875 22.798125 
z
" style="fill:#ffffff;"/>
   </g>
   <g id="PathCollection_1">
    <path clip-path="url(#p8044349f21)" d="M 79.501477 279.814125 
C 80.297087 279.814125 81.060217 279.498026 81.622798 278.935445 
C 82.185378 278.372865 82.501477 277.609734 82.501477 276.814125 
C 82.501477 276.018516 82.185378 275.255385 81.622798 274.692805 
C 81.060217 274.130224 80.297087 273.814125 79.501477 273.814125 
C 78.705868 273.814125 77.942738 274.130224 77.380157 274.692805 
C 76.817576 275.255385 76.501477 276.018516 76.501477 276.814125 
C 76.501477 277.609734 76.817576 278.372865 77.380157 278.935445 
C 77.942738 279.498026 78.705868 279.814125 79.501477 279.814125 
z
" style="fill:#1f77b4;stroke:#ffffff;stroke-width:0.48;"/>
    <path clip-path="url(#p8044349f21)" d="M 93.02875 278.935689 
C 93.824359 278.935689 94.58749 278.61959 95.15007 278.05701 
C 95.712651 277.494429 96.02875 276.731299 96.02875 275.935689 
C 96.02875 275.14008 95.712651 274.37695 95.15007 273.814369 
C 94.58749 273.251788 93.824359 272.935689 93.02875 272.935689 
C 92.233141 272.935689 91.47001 273.251788 90.90743 273.814369 
C 90.344849 274.37695 90.02875 275.14008 90.02875 275.935689 
C 90.02875 276.731299 90.344849 277.494429 90.90743 278.05701 
C 91.47001 278.61959 92.233141 278.935689 93.02875 278.935689 
z
" style="fill:#1f77b4;stroke:#ffffff;stroke-width:0.48;"/>
    <path clip-path="url(#p8044349f21)" d="M 106.556023 278.230762 
C 107.351632 278.230762 108.114762 277.914663 108.677343 277.352082 
C 109.239924 276.789501 109.556023 276.026371 109.556023 275.230762 
C 109.556023 274.435152 109.239924 273.672022 108.677343 273.109441 
C 108.114762 272.546861 107.351632 272.230762 106.556023 272.230762 
C 105.760413 272.230762 104.997283 272.546861 104.434702 273.109441 
C 103.872122 273.672022 103.556023 274.435152 103.556023 275.230762 
C 103.556023 276.026371 103.872122 276.789501 104.434702 277.352082 
C 104.997283 277.914663 105.760413 278.230762 106.556023 278.230762 
z
" style="fill:#1f77b4;stroke:#ffffff;stroke-width:0.48;"/>
    <path clip-path="url(#p8044349f21)" d="M 120.083295 278.023099 
C 120.878905 278.023099 121.642035 277.707 122.204616 277.14442 
C 122.767197 276.581839 123.083295 275.818708 123.083295 275.023099 
C 123.083295 274.22749 122.767197 273.46436 122.204616 272.901779 
C 121.642035 272.339198 120.878905 272.023099 120.083295 272.023099 
C 119.287686 272.023099 118.524556 272.339198 117.961975 272.901779 
C 117.399394 273.46436 117.083295 274.22749 117.083295 275.023099 
C 117.083295 275.818708 117.399394 276.581839 117.961975 277.14442 
C 118.524556 277.707 119.287686 278.023099 120.083295 278.023099 
z
" style="fill:#1f77b4;stroke:#ffffff;stroke-width:0.48;"/>
    <path clip-path="url(#p8044349f21)" d="M 133.610568 277.320906 
C 134.406177 277.320906 135.169308 277.004807 135.731889 276.442226 
C 136.294469 275.879645 136.610568 275.116515 136.610568 274.320906 
C 136.610568 273.525296 136.294469 272.762166 135.731889 272.199585 
C 135.169308 271.637004 134.406177 271.320906 133.610568 271.320906 
C 132.814959 271.320906 132.051829 271.637004 131.489248 272.199585 
C 130.926667 272.762166 130.610568 273.525296 130.610568 274.320906 
C 130.610568 275.116515 130.926667 275.879645 131.489248 276.442226 
C 132.051829 277.004807 132.814959 277.320906 133.610568 277.320906 
z
" style="fill:#1f77b4;stroke:#ffffff;stroke-width:0.48;"/>
    <path clip-path="url(#p8044349f21)" d="M 147.137841 276.5819 
C 147.93345 276.5819 148.696581 276.265801 149.259161 275.70322 
C 149.821742 275.140639 150.137841 274.377509 150.137841 273.5819 
C 150.137841 272.78629 149.821742 272.02316 149.259161 271.460579 
C 148.696581 270.897999 147.93345 270.5819 147.137841 270.5819 
C 146.342232 270.5819 145.579101 270.897999 145.016521 271.460579 
C 144.45394 272.02316 144.137841 272.78629 144.137841 273.5819 
C 144.137841 274.377509 144.45394 275.140639 145.016521 275.70322 
C 145.579101 276.265801 146.342232 276.5819 147.137841 276.5819 
z
" style="fill:#1f77b4;stroke:#ffffff;stroke-width:0.48;"/>
    <path clip-path="url(#p8044349f21)" d="M 160.665114 275.030344 
C 161.460723 275.030344 162.223853 274.714245 162.786434 274.151665 
C 163.349015 273.589084 163.665114 272.825954 163.665114 272.030344 
C 163.665114 271.234735 163.349015 270.471605 162.786434 269.909024 
C 162.223853 269.346443 161.460723 269.030344 160.665114 269.030344 
C 159.869504 269.030344 159.106374 269.346443 158.543793 269.909024 
C 157.981213 270.471605 157.665114 271.234735 157.665114 272.030344 
C 157.665114 272.825954 157.981213 273.589084 158.543793 274.151665 
C 159.106374 274.714245 159.869504 275.030344 160.665114 275.030344 
z
" style="fill:#1f77b4;stroke:#ffffff;stroke-width:0.48;"/>
    <path clip-path="url(#p8044349f21)" d="M 174.192386 274.418171 
C 174.987996 274.418171 175.751126 274.102072 176.313707 273.539491 
C 176.876287 272.976911 177.192386 272.21378 177.192386 271.418171 
C 177.192386 270.622562 176.876287 269.859431 176.313707 269.296851 
C 175.751126 268.73427 174.987996 268.418171 174.192386 268.418171 
C 173.396777 268.418171 172.633647 268.73427 172.071066 269.296851 
C 171.508485 269.859431 171.192386 270.622562 171.192386 271.418171 
C 171.192386 272.21378 171.508485 272.976911 172.071066 273.539491 
C 172.633647 274.102072 173.396777 274.418171 174.192386 274.418171 
z
" style="fill:#1f77b4;stroke:#ffffff;stroke-width:0.48;"/>
    <path clip-path="url(#p8044349f21)" d="M 187.719659 274.818434 
C 188.515268 274.818434 189.278399 274.502335 189.840979 273.939754 
C 190.40356 273.377174 190.719659 272.614043 190.719659 271.818434 
C 190.719659 271.022825 190.40356 270.259695 189.840979 269.697114 
C 189.278399 269.134533 188.515268 268.818434 187.719659 268.818434 
C 186.92405 268.818434 186.160919 269.134533 185.598339 269.697114 
C 185.035758 270.259695 184.719659 271.022825 184.719659 271.818434 
C 184.719659 272.614043 185.035758 273.377174 185.598339 273.939754 
C 186.160919 274.502335 186.92405 274.818434 187.719659 274.818434 
z
" style="fill:#1f77b4;stroke:#ffffff;stroke-width:0.48;"/>
    <path clip-path="url(#p8044349f21)" d="M 201.246932 271.784312 
C 202.042541 271.784312 202.805671 271.468213 203.368252 270.905632 
C 203.930833 270.343051 204.246932 269.579921 204.246932 268.784312 
C 204.246932 267.988702 203.930833 267.225572 203.368252 266.662991 
C 202.805671 266.100411 202.042541 265.784312 201.246932 265.784312 
C 200.451323 265.784312 199.688192 266.100411 199.125611 266.662991 
C 198.563031 267.225572 198.246932 267.988702 198.246932 268.784312 
C 198.246932 269.579921 198.563031 270.343051 199.125611 270.905632 
C 199.688192 271.468213 200.451323 271.784312 201.246932 271.784312 
z
" style="fill:#1f77b4;stroke:#ffffff;stroke-width:0.48;"/>
    <path clip-path="url(#p8044349f21)" d="M 214.774205 271.28637 
C 215.569814 271.28637 216.332944 270.970271 216.895525 270.407691 
C 217.458106 269.84511 217.774205 269.08198 217.774205 268.28637 
C 217.774205 267.490761 217.458106 266.727631 216.895525 266.16505 
C 216.332944 265.602469 215.569814 265.28637 214.774205 265.28637 
C 213.978595 265.28637 213.215465 265.602469 212.652884 266.16505 
C 212.090303 266.727631 211.774205 267.490761 211.774205 268.28637 
C 211.774205 269.08198 212.090303 269.84511 212.652884 270.407691 
C 213.215465 270.970271 213.978595 271.28637 214.774205 271.28637 
z
" style="fill:#1f77b4;stroke:#ffffff;stroke-width:0.48;"/>
    <path clip-path="url(#p8044349f21)" d="M 228.301477 270.241001 
C 229.097087 270.241001 229.860217 269.924903 230.422798 269.362322 
C 230.985378 268.799741 231.301477 268.036611 231.301477 267.241001 
C 231.301477 266.445392 230.985378 265.682262 230.422798 265.119681 
C 229.860217 264.5571 229.097087 264.241001 228.301477 264.241001 
C 227.505868 264.241001 226.742738 264.5571 226.180157 265.119681 
C 225.617576 265.682262 225.301477 266.445392 225.301477 267.241001 
C 225.301477 268.036611 225.617576 268.799741 226.180157 269.362322 
C 226.742738 269.924903 227.505868 270.241001 228.301477 270.241001 
z
" style="fill:#1f77b4;stroke:#ffffff;stroke-width:0.48;"/>
    <path clip-path="url(#p8044349f21)" d="M 241.82875 268.441614 
C 242.624359 268.441614 243.38749 268.125515 243.95007 267.562934 
C 244.512651 267.000354 244.82875 266.237223 244.82875 265.441614 
C 244.82875 264.646005 244.512651 263.882874 243.95007 263.320294 
C 243.38749 262.757713 242.624359 262.441614 241.82875 262.441614 
C 241.033141 262.441614 240.27001 262.757713 239.70743 263.320294 
C 239.144849 263.882874 238.82875 264.646005 238.82875 265.441614 
C 238.82875 266.237223 239.144849 267.000354 239.70743 267.562934 
C 240.27001 268.125515 241.033141 268.441614 241.82875 268.441614 
z
" style="fill:#1f77b4;stroke:#ffffff;stroke-width:0.48;"/>
    <path clip-path="url(#p8044349f21)" d="M 255.356023 264.252572 
C 256.151632 264.252572 256.914762 263.936473 257.477343 263.373892 
C 258.039924 262.811311 258.356023 262.048181 258.356023 261.252572 
C 258.356023 260.456963 258.039924 259.693832 257.477343 259.131252 
C 256.914762 258.568671 256.151632 258.252572 255.356023 258.252572 
C 254.560413 258.252572 253.797283 258.568671 253.234702 259.131252 
C 252.672122 259.693832 252.356023 260.456963 252.356023 261.252572 
C 252.356023 262.048181 252.672122 262.811311 253.234702 263.373892 
C 253.797283 263.936473 254.560413 264.252572 255.356023 264.252572 
z
" style="fill:#1f77b4;stroke:#ffffff;stroke-width:0.48;"/>
    <path clip-path="url(#p8044349f21)" d="M 268.883295 264.724453 
C 269.678905 264.724453 270.442035 264.408354 271.004616 263.845773 
C 271.567197 263.283192 271.883295 262.520062 271.883295 261.724453 
C 271.883295 260.928843 271.567197 260.165713 271.004616 259.603132 
C 270.442035 259.040551 269.678905 258.724453 268.883295 258.724453 
C 268.087686 258.724453 267.324556 259.040551 266.761975 259.603132 
C 266.199394 260.165713 265.883295 260.928843 265.883295 261.724453 
C 265.883295 262.520062 266.199394 263.283192 266.761975 263.845773 
C 267.324556 264.408354 268.087686 264.724453 268.883295 264.724453 
z
" style="fill:#1f77b4;stroke:#ffffff;stroke-width:0.48;"/>
    <path clip-path="url(#p8044349f21)" d="M 282.410568 263.139249 
C 283.206177 263.139249 283.969308 262.82315 284.531889 262.260569 
C 285.094469 261.697988 285.410568 260.934858 285.410568 260.139249 
C 285.410568 259.34364 285.094469 258.580509 284.531889 258.017928 
C 283.969308 257.455348 283.206177 257.139249 282.410568 257.139249 
C 281.614959 257.139249 280.851829 257.455348 280.289248 258.017928 
C 279.726667 258.580509 279.410568 259.34364 279.410568 260.139249 
C 279.410568 260.934858 279.726667 261.697988 280.289248 262.260569 
C 280.851829 262.82315 281.614959 263.139249 282.410568 263.139249 
z
" style="fill:#1f77b4;stroke:#ffffff;stroke-width:0.48;"/>
    <path clip-path="url(#p8044349f21)" d="M 295.937841 262.172717 
C 296.73345 262.172717 297.496581 261.856618 298.059161 261.294037 
C 298.621742 260.731456 298.937841 259.968326 298.937841 259.172717 
C 298.937841 258.377107 298.621742 257.613977 298.059161 257.051396 
C 297.496581 256.488816 296.73345 256.172717 295.937841 256.172717 
C 295.142232 256.172717 294.379101 256.488816 293.816521 257.051396 
C 293.25394 257.613977 292.937841 258.377107 292.937841 259.172717 
C 292.937841 259.968326 293.25394 260.731456 293.816521 261.294037 
C 294.379101 261.856618 295.142232 262.172717 295.937841 262.172717 
z
" style="fill:#1f77b4;stroke:#ffffff;stroke-width:0.48;"/>
    <path clip-path="url(#p8044349f21)" d="M 309.465114 256.021763 
C 310.260723 256.021763 311.023853 255.705664 311.586434 255.143083 
C 312.149015 254.580502 312.465114 253.817372 312.465114 253.021763 
C 312.465114 252.226153 312.149015 251.463023 311.586434 250.900442 
C 311.023853 250.337862 310.260723 250.021763 309.465114 250.021763 
C 308.669504 250.021763 307.906374 250.337862 307.343793 250.900442 
C 306.781213 251.463023 306.465114 252.226153 306.465114 253.021763 
C 306.465114 253.817372 306.781213 254.580502 307.343793 255.143083 
C 307.906374 255.705664 308.669504 256.021763 309.465114 256.021763 
z
" style="fill:#1f77b4;stroke:#ffffff;stroke-width:0.48;"/>
    <path clip-path="url(#p8044349f21)" d="M 322.992386 256.352801 
C 323.787996 256.352801 324.551126 256.036702 325.113707 255.474121 
C 325.676287 254.91154 325.992386 254.14841 325.992386 253.352801 
C 325.992386 252.557192 325.676287 251.794061 325.113707 251.231481 
C 324.551126 250.6689 323.787996 250.352801 322.992386 250.352801 
C 322.196777 250.352801 321.433647 250.6689 320.871066 251.231481 
C 320.308485 251.794061 319.992386 252.557192 319.992386 253.352801 
C 319.992386 254.14841 320.308485 254.91154 320.871066 255.474121 
C 321.433647 256.036702 322.196777 256.352801 322.992386 256.352801 
z
" style="fill:#1f77b4;stroke:#ffffff;stroke-width:0.48;"/>
    <path clip-path="url(#p8044349f21)" d="M 336.519659 249.300788 
C 337.315268 249.300788 338.078399 248.984689 338.640979 248.422108 
C 339.20356 247.859527 339.519659 247.096397 339.519659 246.300788 
C 339.519659 245.505178 339.20356 244.742048 338.640979 244.179467 
C 338.078399 243.616887 337.315268 243.300788 336.519659 243.300788 
C 335.72405 243.300788 334.960919 243.616887 334.398339 244.179467 
C 333.835758 244.742048 333.519659 245.505178 333.519659 246.300788 
C 333.519659 247.096397 333.835758 247.859527 334.398339 248.422108 
C 334.960919 248.984689 335.72405 249.300788 336.519659 249.300788 
z
" style="fill:#1f77b4;stroke:#ffffff;stroke-width:0.48;"/>
    <path clip-path="url(#p8044349f21)" d="M 350.046932 246.400911 
C 350.842541 246.400911 351.605671 246.084812 352.168252 245.522231 
C 352.730833 244.959651 353.046932 244.19652 353.046932 243.400911 
C 353.046932 242.605302 352.730833 241.842171 352.168252 241.279591 
C 351.605671 240.71701 350.842541 240.400911 350.046932 240.400911 
C 349.251323 240.400911 348.488192 240.71701 347.925611 241.279591 
C 347.363031 241.842171 347.046932 242.605302 347.046932 243.400911 
C 347.046932 244.19652 347.363031 244.959651 347.925611 245.522231 
C 348.488192 246.084812 349.251323 246.400911 350.046932 246.400911 
z
" style="fill:#1f77b4;stroke:#ffffff;stroke-width:0.48;"/>
    <path clip-path="url(#p8044349f21)" d="M 363.574205 241.410865 
C 364.369814 241.410865 365.132944 241.094766 365.695525 240.532186 
C 366.258106 239.969605 366.574205 239.206475 366.574205 238.410865 
C 366.574205 237.615256 366.258106 236.852126 365.695525 236.289545 
C 365.132944 235.726964 364.369814 235.410865 363.574205 235.410865 
C 362.778595 235.410865 362.015465 235.726964 361.452884 236.289545 
C 360.890303 236.852126 360.574205 237.615256 360.574205 238.410865 
C 360.574205 239.206475 360.890303 239.969605 361.452884 240.532186 
C 362.015465 241.094766 362.778595 241.410865 363.574205 241.410865 
z
" style="fill:#1f77b4;stroke:#ffffff;stroke-width:0.48;"/>
    <path clip-path="url(#p8044349f21)" d="M 377.101477 238.474678 
C 377.897087 238.474678 378.660217 238.158579 379.222798 237.595998 
C 379.785378 237.033418 380.101477 236.270287 380.101477 235.474678 
C 380.101477 234.679069 379.785378 233.915938 379.222798 233.353358 
C 378.660217 232.790777 377.897087 232.474678 377.101477 232.474678 
C 376.305868 232.474678 375.542738 232.790777 374.980157 233.353358 
C 374.417576 233.915938 374.101477 234.679069 374.101477 235.474678 
C 374.101477 236.270287 374.417576 237.033418 374.980157 237.595998 
C 375.542738 238.158579 376.305868 238.474678 377.101477 238.474678 
z
" style="fill:#1f77b4;stroke:#ffffff;stroke-width:0.48;"/>
    <path clip-path="url(#p8044349f21)" d="M 390.62875 231.311013 
C 391.424359 231.311013 392.18749 230.994915 392.75007 230.432334 
C 393.312651 229.869753 393.62875 229.106623 393.62875 228.311013 
C 393.62875 227.515404 393.312651 226.752274 392.75007 226.189693 
C 392.18749 225.627112 391.424359 225.311013 390.62875 225.311013 
C 389.833141 225.311013 389.07001 225.627112 388.50743 226.189693 
C 387.944849 226.752274 387.62875 227.515404 387.62875 228.311013 
C 387.62875 229.106623 387.944849 229.869753 388.50743 230.432334 
C 389.07001 230.994915 389.833141 231.311013 390.62875 231.311013 
z
" style="fill:#1f77b4;stroke:#ffffff;stroke-width:0.48;"/>
    <path clip-path="url(#p8044349f21)" d="M 404.156023 228.250418 
C 404.951632 228.250418 405.714762 227.934319 406.277343 227.371738 
C 406.839924 226.809158 407.156023 226.046027 407.156023 225.250418 
C 407.156023 224.454809 406.839924 223.691679 406.277343 223.129098 
C 405.714762 222.566517 404.951632 222.250418 404.156023 222.250418 
C 403.360413 222.250418 402.597283 222.566517 402.034702 223.129098 
C 401.472122 223.691679 401.156023 224.454809 401.156023 225.250418 
C 401.156023 226.046027 401.472122 226.809158 402.034702 227.371738 
C 402.597283 227.934319 403.360413 228.250418 404.156023 228.250418 
z
" style="fill:#1f77b4;stroke:#ffffff;stroke-width:0.48;"/>
    <path clip-path="url(#p8044349f21)" d="M 79.501477 279.726596 
C 80.297087 279.726596 81.060217 279.410497 81.622798 278.847916 
C 82.185378 278.285335 82.501477 277.522205 82.501477 276.726596 
C 82.501477 275.930986 82.185378 275.167856 81.622798 274.605275 
C 81.060217 274.042695 80.297087 273.726596 79.501477 273.726596 
C 78.705868 273.726596 77.942738 274.042695 77.380157 274.605275 
C 76.817576 275.167856 76.501477 275.930986 76.501477 276.726596 
C 76.501477 277.522205 76.817576 278.285335 77.380157 278.847916 
C 77.942738 279.410497 78.705868 279.726596 79.501477 279.726596 
z
" style="fill:#ff7f0e;stroke:#ffffff;stroke-width:0.48;"/>
    <path clip-path="url(#p8044349f21)" d="M 93.02875 278.662094 
C 93.824359 278.662094 94.58749 278.345995 95.15007 277.783415 
C 95.712651 277.220834 96.02875 276.457703 96.02875 275.662094 
C 96.02875 274.866485 95.712651 274.103355 95.15007 273.540774 
C 94.58749 272.978193 93.824359 272.662094 93.02875 272.662094 
C 92.233141 272.662094 91.47001 272.978193 90.90743 273.540774 
C 90.344849 274.103355 90.02875 274.866485 90.02875 275.662094 
C 90.02875 276.457703 90.344849 277.220834 90.90743 277.783415 
C 91.47001 278.345995 92.233141 278.662094 93.02875 278.662094 
z
" style="fill:#ff7f0e;stroke:#ffffff;stroke-width:0.48;"/>
    <path clip-path="url(#p8044349f21)" d="M 106.556023 277.337529 
C 107.351632 277.337529 108.114762 277.02143 108.677343 276.458849 
C 109.239924 275.896268 109.556023 275.133138 109.556023 274.337529 
C 109.556023 273.541919 109.239924 272.778789 108.677343 272.216208 
C 108.114762 271.653628 107.351632 271.337529 106.556023 271.337529 
C 105.760413 271.337529 104.997283 271.653628 104.434702 272.216208 
C 103.872122 272.778789 103.556023 273.541919 103.556023 274.337529 
C 103.556023 275.133138 103.872122 275.896268 104.434702 276.458849 
C 104.997283 277.02143 105.760413 277.337529 106.556023 277.337529 
z
" style="fill:#ff7f0e;stroke:#ffffff;stroke-width:0.48;"/>
    <path clip-path="url(#p8044349f21)" d="M 120.083295 276.165237 
C 120.878905 276.165237 121.642035 275.849138 122.204616 275.286557 
C 122.767197 274.723976 123.083295 273.960846 123.083295 273.165237 
C 123.083295 272.369627 122.767197 271.606497 122.204616 271.043916 
C 121.642035 270.481336 120.878905 270.165237 120.083295 270.165237 
C 119.287686 270.165237 118.524556 270.481336 117.961975 271.043916 
C 117.399394 271.606497 117.083295 272.369627 117.083295 273.165237 
C 117.083295 273.960846 117.399394 274.723976 117.961975 275.286557 
C 118.524556 275.849138 119.287686 276.165237 120.083295 276.165237 
z
" style="fill:#ff7f0e;stroke:#ffffff;stroke-width:0.48;"/>
    <path clip-path="url(#p8044349f21)" d="M 133.610568 274.970406 
C 134.406177 274.970406 135.169308 274.654307 135.731889 274.091726 
C 136.294469 273.529145 136.610568 272.766015 136.610568 271.970406 
C 136.610568 271.174796 136.294469 270.411666 135.731889 269.849085 
C 135.169308 269.286505 134.406177 268.970406 133.610568 268.970406 
C 132.814959 268.970406 132.051829 269.286505 131.489248 269.849085 
C 130.926667 270.411666 130.610568 271.174796 130.610568 271.970406 
C 130.610568 272.766015 130.926667 273.529145 131.489248 274.091726 
C 132.051829 274.654307 132.814959 274.970406 133.610568 274.970406 
z
" style="fill:#ff7f0e;stroke:#ffffff;stroke-width:0.48;"/>
    <path clip-path="url(#p8044349f21)" d="M 147.137841 273.216676 
C 147.93345 273.216676 148.696581 272.900577 149.259161 272.337996 
C 149.821742 271.775416 150.137841 271.012285 150.137841 270.216676 
C 150.137841 269.421067 149.821742 268.657936 149.259161 268.095356 
C 148.696581 267.532775 147.93345 267.216676 147.137841 267.216676 
C 146.342232 267.216676 145.579101 267.532775 145.016521 268.095356 
C 144.45394 268.657936 144.137841 269.421067 144.137841 270.216676 
C 144.137841 271.012285 144.45394 271.775416 145.016521 272.337996 
C 145.579101 272.900577 146.342232 273.216676 147.137841 273.216676 
z
" style="fill:#ff7f0e;stroke:#ffffff;stroke-width:0.48;"/>
    <path clip-path="url(#p8044349f21)" d="M 160.665114 271.315954 
C 161.460723 271.315954 162.223853 270.999855 162.786434 270.437274 
C 163.349015 269.874693 163.665114 269.111563 163.665114 268.315954 
C 163.665114 267.520344 163.349015 266.757214 162.786434 266.194633 
C 162.223853 265.632053 161.460723 265.315954 160.665114 265.315954 
C 159.869504 265.315954 159.106374 265.632053 158.543793 266.194633 
C 157.981213 266.757214 157.665114 267.520344 157.665114 268.315954 
C 157.665114 269.111563 157.981213 269.874693 158.543793 270.437274 
C 159.106374 270.999855 159.869504 271.315954 160.665114 271.315954 
z
" style="fill:#ff7f0e;stroke:#ffffff;stroke-width:0.48;"/>
    <path clip-path="url(#p8044349f21)" d="M 174.192386 269.080799 
C 174.987996 269.080799 175.751126 268.7647 176.313707 268.202119 
C 176.876287 267.639539 177.192386 266.876408 177.192386 266.080799 
C 177.192386 265.28519 176.876287 264.522059 176.313707 263.959479 
C 175.751126 263.396898 174.987996 263.080799 174.192386 263.080799 
C 173.396777 263.080799 172.633647 263.396898 172.071066 263.959479 
C 171.508485 264.522059 171.192386 265.28519 171.192386 266.080799 
C 171.192386 266.876408 171.508485 267.639539 172.071066 268.202119 
C 172.633647 268.7647 173.396777 269.080799 174.192386 269.080799 
z
" style="fill:#ff7f0e;stroke:#ffffff;stroke-width:0.48;"/>
    <path clip-path="url(#p8044349f21)" d="M 187.719659 266.978687 
C 188.515268 266.978687 189.278399 266.662588 189.840979 266.100007 
C 190.40356 265.537427 190.719659 264.774296 190.719659 263.978687 
C 190.719659 263.183078 190.40356 262.419948 189.840979 261.857367 
C 189.278399 261.294786 188.515268 260.978687 187.719659 260.978687 
C 186.92405 260.978687 186.160919 261.294786 185.598339 261.857367 
C 185.035758 262.419948 184.719659 263.183078 184.719659 263.978687 
C 184.719659 264.774296 185.035758 265.537427 185.598339 266.100007 
C 186.160919 266.662588 186.92405 266.978687 187.719659 266.978687 
z
" style="fill:#ff7f0e;stroke:#ffffff;stroke-width:0.48;"/>
    <path clip-path="url(#p8044349f21)" d="M 201.246932 263.746642 
C 202.042541 263.746642 202.805671 263.430543 203.368252 262.867963 
C 203.930833 262.305382 204.246932 261.542252 204.246932 260.746642 
C 204.246932 259.951033 203.930833 259.187903 203.368252 258.625322 
C 202.805671 258.062741 202.042541 257.746642 201.246932 257.746642 
C 200.451323 257.746642 199.688192 258.062741 199.125611 258.625322 
C 198.563031 259.187903 198.246932 259.951033 198.246932 260.746642 
C 198.246932 261.542252 198.563031 262.305382 199.125611 262.867963 
C 199.688192 263.430543 200.451323 263.746642 201.246932 263.746642 
z
" style="fill:#ff7f0e;stroke:#ffffff;stroke-width:0.48;"/>
    <path clip-path="url(#p8044349f21)" d="M 214.774205 257.275843 
C 215.569814 257.275843 216.332944 256.959744 216.895525 256.397164 
C 217.458106 255.834583 217.774205 255.071453 217.774205 254.275843 
C 217.774205 253.480234 217.458106 252.717104 216.895525 252.154523 
C 216.332944 251.591942 215.569814 251.275843 214.774205 251.275843 
C 213.978595 251.275843 213.215465 251.591942 212.652884 252.154523 
C 212.090303 252.717104 211.774205 253.480234 211.774205 254.275843 
C 211.774205 255.071453 212.090303 255.834583 212.652884 256.397164 
C 213.215465 256.959744 213.978595 257.275843 214.774205 257.275843 
z
" style="fill:#ff7f0e;stroke:#ffffff;stroke-width:0.48;"/>
    <path clip-path="url(#p8044349f21)" d="M 228.301477 254.266118 
C 229.097087 254.266118 229.860217 253.950019 230.422798 253.387438 
C 230.985378 252.824858 231.301477 252.061727 231.301477 251.266118 
C 231.301477 250.470509 230.985378 249.707378 230.422798 249.144798 
C 229.860217 248.582217 229.097087 248.266118 228.301477 248.266118 
C 227.505868 248.266118 226.742738 248.582217 226.180157 249.144798 
C 225.617576 249.707378 225.301477 250.470509 225.301477 251.266118 
C 225.301477 252.061727 225.617576 252.824858 226.180157 253.387438 
C 226.742738 253.950019 227.505868 254.266118 228.301477 254.266118 
z
" style="fill:#ff7f0e;stroke:#ffffff;stroke-width:0.48;"/>
    <path clip-path="url(#p8044349f21)" d="M 241.82875 249.881056 
C 242.624359 249.881056 243.38749 249.564957 243.95007 249.002376 
C 244.512651 248.439795 244.82875 247.676665 244.82875 246.881056 
C 244.82875 246.085446 244.512651 245.322316 243.95007 244.759735 
C 243.38749 244.197155 242.624359 243.881056 241.82875 243.881056 
C 241.033141 243.881056 240.27001 244.197155 239.70743 244.759735 
C 239.144849 245.322316 238.82875 246.085446 238.82875 246.881056 
C 238.82875 247.676665 239.144849 248.439795 239.70743 249.002376 
C 240.27001 249.564957 241.033141 249.881056 241.82875 249.881056 
z
" style="fill:#ff7f0e;stroke:#ffffff;stroke-width:0.48;"/>
    <path clip-path="url(#p8044349f21)" d="M 255.356023 238.455603 
C 256.151632 238.455603 256.914762 238.139504 257.477343 237.576923 
C 258.039924 237.014343 258.356023 236.251212 258.356023 235.455603 
C 258.356023 234.659994 258.039924 233.896863 257.477343 233.334283 
C 256.914762 232.771702 256.151632 232.455603 255.356023 232.455603 
C 254.560413 232.455603 253.797283 232.771702 253.234702 233.334283 
C 252.672122 233.896863 252.356023 234.659994 252.356023 235.455603 
C 252.356023 236.251212 252.672122 237.014343 253.234702 237.576923 
C 253.797283 238.139504 254.560413 238.455603 255.356023 238.455603 
z
" style="fill:#ff7f0e;stroke:#ffffff;stroke-width:0.48;"/>
    <path clip-path="url(#p8044349f21)" d="M 268.883295 235.04262 
C 269.678905 235.04262 270.442035 234.726521 271.004616 234.16394 
C 271.567197 233.601359 271.883295 232.838229 271.883295 232.04262 
C 271.883295 231.247011 271.567197 230.48388 271.004616 229.9213 
C 270.442035 229.358719 269.678905 229.04262 268.883295 229.04262 
C 268.087686 229.04262 267.324556 229.358719 266.761975 229.9213 
C 266.199394 230.48388 265.883295 231.247011 265.883295 232.04262 
C 265.883295 232.838229 266.199394 233.601359 266.761975 234.16394 
C 267.324556 234.726521 268.087686 235.04262 268.883295 235.04262 
z
" style="fill:#ff7f0e;stroke:#ffffff;stroke-width:0.48;"/>
    <path clip-path="url(#p8044349f21)" d="M 282.410568 214.427315 
C 283.206177 214.427315 283.969308 214.111216 284.531889 213.548635 
C 285.094469 212.986055 285.410568 212.222924 285.410568 211.427315 
C 285.410568 210.631706 285.094469 209.868575 284.531889 209.305995 
C 283.969308 208.743414 283.206177 208.427315 282.410568 208.427315 
C 281.614959 208.427315 280.851829 208.743414 280.289248 209.305995 
C 279.726667 209.868575 279.410568 210.631706 279.410568 211.427315 
C 279.410568 212.222924 279.726667 212.986055 280.289248 213.548635 
C 280.851829 214.111216 281.614959 214.427315 282.410568 214.427315 
z
" style="fill:#ff7f0e;stroke:#ffffff;stroke-width:0.48;"/>
    <path clip-path="url(#p8044349f21)" d="M 295.937841 208.362427 
C 296.73345 208.362427 297.496581 208.046328 298.059161 207.483747 
C 298.621742 206.921167 298.937841 206.158036 298.937841 205.362427 
C 298.937841 204.566818 298.621742 203.803688 298.059161 203.241107 
C 297.496581 202.678526 296.73345 202.362427 295.937841 202.362427 
C 295.142232 202.362427 294.379101 202.678526 293.816521 203.241107 
C 293.25394 203.803688 292.937841 204.566818 292.937841 205.362427 
C 292.937841 206.158036 293.25394 206.921167 293.816521 207.483747 
C 294.379101 208.046328 295.142232 208.362427 295.937841 208.362427 
z
" style="fill:#ff7f0e;stroke:#ffffff;stroke-width:0.48;"/>
    <path clip-path="url(#p8044349f21)" d="M 309.465114 197.778674 
C 310.260723 197.778674 311.023853 197.462575 311.586434 196.899995 
C 312.149015 196.337414 312.465114 195.574284 312.465114 194.778674 
C 312.465114 193.983065 312.149015 193.219935 311.586434 192.657354 
C 311.023853 192.094773 310.260723 191.778674 309.465114 191.778674 
C 308.669504 191.778674 307.906374 192.094773 307.343793 192.657354 
C 306.781213 193.219935 306.465114 193.983065 306.465114 194.778674 
C 306.465114 195.574284 306.781213 196.337414 307.343793 196.899995 
C 307.906374 197.462575 308.669504 197.778674 309.465114 197.778674 
z
" style="fill:#ff7f0e;stroke:#ffffff;stroke-width:0.48;"/>
    <path clip-path="url(#p8044349f21)" d="M 322.992386 198.363925 
C 323.787996 198.363925 324.551126 198.047826 325.113707 197.485245 
C 325.676287 196.922665 325.992386 196.159534 325.992386 195.363925 
C 325.992386 194.568316 325.676287 193.805185 325.113707 193.242605 
C 324.551126 192.680024 323.787996 192.363925 322.992386 192.363925 
C 322.196777 192.363925 321.433647 192.680024 320.871066 193.242605 
C 320.308485 193.805185 319.992386 194.568316 319.992386 195.363925 
C 319.992386 196.159534 320.308485 196.922665 320.871066 197.485245 
C 321.433647 198.047826 322.196777 198.363925 322.992386 198.363925 
z
" style="fill:#ff7f0e;stroke:#ffffff;stroke-width:0.48;"/>
    <path clip-path="url(#p8044349f21)" d="M 336.519659 153.831159 
C 337.315268 153.831159 338.078399 153.515061 338.640979 152.95248 
C 339.20356 152.389899 339.519659 151.626769 339.519659 150.831159 
C 339.519659 150.03555 339.20356 149.27242 338.640979 148.709839 
C 338.078399 148.147258 337.315268 147.831159 336.519659 147.831159 
C 335.72405 147.831159 334.960919 148.147258 334.398339 148.709839 
C 333.835758 149.27242 333.519659 150.03555 333.519659 150.831159 
C 333.519659 151.626769 333.835758 152.389899 334.398339 152.95248 
C 334.960919 153.515061 335.72405 153.831159 336.519659 153.831159 
z
" style="fill:#ff7f0e;stroke:#ffffff;stroke-width:0.48;"/>
    <path clip-path="url(#p8044349f21)" d="M 350.046932 162.100897 
C 350.842541 162.100897 351.605671 161.784798 352.168252 161.222217 
C 352.730833 160.659637 353.046932 159.896506 353.046932 159.100897 
C 353.046932 158.305288 352.730833 157.542158 352.168252 156.979577 
C 351.605671 156.416996 350.842541 156.100897 350.046932 156.100897 
C 349.251323 156.100897 348.488192 156.416996 347.925611 156.979577 
C 347.363031 157.542158 347.046932 158.305288 347.046932 159.100897 
C 347.046932 159.896506 347.363031 160.659637 347.925611 161.222217 
C 348.488192 161.784798 349.251323 162.100897 350.046932 162.100897 
z
" style="fill:#ff7f0e;stroke:#ffffff;stroke-width:0.48;"/>
    <path clip-path="url(#p8044349f21)" d="M 363.574205 126.394499 
C 364.369814 126.394499 365.132944 126.0784 365.695525 125.515819 
C 366.258106 124.953238 366.574205 124.190108 366.574205 123.394499 
C 366.574205 122.598889 366.258106 121.835759 365.695525 121.273178 
C 365.132944 120.710598 364.369814 120.394499 363.574205 120.394499 
C 362.778595 120.394499 362.015465 120.710598 361.452884 121.273178 
C 360.890303 121.835759 360.574205 122.598889 360.574205 123.394499 
C 360.574205 124.190108 360.890303 124.953238 361.452884 125.515819 
C 362.015465 126.0784 362.778595 126.394499 363.574205 126.394499 
z
" style="fill:#ff7f0e;stroke:#ffffff;stroke-width:0.48;"/>
    <path clip-path="url(#p8044349f21)" d="M 377.101477 102.866539 
C 377.897087 102.866539 378.660217 102.55044 379.222798 101.98786 
C 379.785378 101.425279 380.101477 100.662149 380.101477 99.866539 
C 380.101477 99.07093 379.785378 98.3078 379.222798 97.745219 
C 378.660217 97.182638 377.897087 96.866539 377.101477 96.866539 
C 376.305868 96.866539 375.542738 97.182638 374.980157 97.745219 
C 374.417576 98.3078 374.101477 99.07093 374.101477 99.866539 
C 374.101477 100.662149 374.417576 101.425279 374.980157 101.98786 
C 375.542738 102.55044 376.305868 102.866539 377.101477 102.866539 
z
" style="fill:#ff7f0e;stroke:#ffffff;stroke-width:0.48;"/>
    <path clip-path="url(#p8044349f21)" d="M 390.62875 69.049592 
C 391.424359 69.049592 392.18749 68.733493 392.75007 68.170912 
C 393.312651 67.608332 393.62875 66.845201 393.62875 66.049592 
C 393.62875 65.253983 393.312651 64.490852 392.75007 63.928272 
C 392.18749 63.365691 391.424359 63.049592 390.62875 63.049592 
C 389.833141 63.049592 389.07001 63.365691 388.50743 63.928272 
C 387.944849 64.490852 387.62875 65.253983 387.62875 66.049592 
C 387.62875 66.845201 387.944849 67.608332 388.50743 68.170912 
C 389.07001 68.733493 389.833141 69.049592 390.62875 69.049592 
z
" style="fill:#ff7f0e;stroke:#ffffff;stroke-width:0.48;"/>
    <path clip-path="url(#p8044349f21)" d="M 404.156023 37.894125 
C 404.951632 37.894125 405.714762 37.578026 406.277343 37.015445 
C 406.839924 36.452865 407.156023 35.689734 407.156023 34.894125 
C 407.156023 34.098516 406.839924 33.335385 406.277343 32.772805 
C 405.714762 32.210224 404.951632 31.894125 404.156023 31.894125 
C 403.360413 31.894125 402.597283 32.210224 402.034702 32.772805 
C 401.472122 33.335385 401.156023 34.098516 401.156023 34.894125 
C 401.156023 35.689734 401.472122 36.452865 402.034702 37.015445 
C 402.597283 37.578026 403.360413 37.894125 404.156023 37.894125 
z
" style="fill:#ff7f0e;stroke:#ffffff;stroke-width:0.48;"/>
    <path clip-path="url(#p8044349f21)" d="M 79.501477 279.677318 
C 80.297087 279.677318 81.060217 279.361219 81.622798 278.798638 
C 82.185378 278.236057 82.501477 277.472927 82.501477 276.677318 
C 82.501477 275.881708 82.185378 275.118578 81.622798 274.555997 
C 81.060217 273.993417 80.297087 273.677318 79.501477 273.677318 
C 78.705868 273.677318 77.942738 273.993417 77.380157 274.555997 
C 76.817576 275.118578 76.501477 275.881708 76.501477 276.677318 
C 76.501477 277.472927 76.817576 278.236057 77.380157 278.798638 
C 77.942738 279.361219 78.705868 279.677318 79.501477 279.677318 
z
" style="fill:#2ca02c;stroke:#ffffff;stroke-width:0.48;"/>
    <path clip-path="url(#p8044349f21)" d="M 93.02875 278.631108 
C 93.824359 278.631108 94.58749 278.315009 95.15007 277.752428 
C 95.712651 277.189848 96.02875 276.426717 96.02875 275.631108 
C 96.02875 274.835499 95.712651 274.072368 95.15007 273.509788 
C 94.58749 272.947207 93.824359 272.631108 93.02875 272.631108 
C 92.233141 272.631108 91.47001 272.947207 90.90743 273.509788 
C 90.344849 274.072368 90.02875 274.835499 90.02875 275.631108 
C 90.02875 276.426717 90.344849 277.189848 90.90743 277.752428 
C 91.47001 278.315009 92.233141 278.631108 93.02875 278.631108 
z
" style="fill:#2ca02c;stroke:#ffffff;stroke-width:0.48;"/>
    <path clip-path="url(#p8044349f21)" d="M 106.556023 277.674806 
C 107.351632 277.674806 108.114762 277.358707 108.677343 276.796126 
C 109.239924 276.233545 109.556023 275.470415 109.556023 274.674806 
C 109.556023 273.879196 109.239924 273.116066 108.677343 272.553485 
C 108.114762 271.990905 107.351632 271.674806 106.556023 271.674806 
C 105.760413 271.674806 104.997283 271.990905 104.434702 272.553485 
C 103.872122 273.116066 103.556023 273.879196 103.556023 274.674806 
C 103.556023 275.470415 103.872122 276.233545 104.434702 276.796126 
C 104.997283 277.358707 105.760413 277.674806 106.556023 277.674806 
z
" style="fill:#2ca02c;stroke:#ffffff;stroke-width:0.48;"/>
    <path clip-path="url(#p8044349f21)" d="M 120.083295 276.845926 
C 120.878905 276.845926 121.642035 276.529827 122.204616 275.967246 
C 122.767197 275.404665 123.083295 274.641535 123.083295 273.845926 
C 123.083295 273.050317 122.767197 272.287186 122.204616 271.724605 
C 121.642035 271.162025 120.878905 270.845926 120.083295 270.845926 
C 119.287686 270.845926 118.524556 271.162025 117.961975 271.724605 
C 117.399394 272.287186 117.083295 273.050317 117.083295 273.845926 
C 117.083295 274.641535 117.399394 275.404665 117.961975 275.967246 
C 118.524556 276.529827 119.287686 276.845926 120.083295 276.845926 
z
" style="fill:#2ca02c;stroke:#ffffff;stroke-width:0.48;"/>
    <path clip-path="url(#p8044349f21)" d="M 133.610568 275.498019 
C 134.406177 275.498019 135.169308 275.18192 135.731889 274.619339 
C 136.294469 274.056759 136.610568 273.293628 136.610568 272.498019 
C 136.610568 271.70241 136.294469 270.939279 135.731889 270.376699 
C 135.169308 269.814118 134.406177 269.498019 133.610568 269.498019 
C 132.814959 269.498019 132.051829 269.814118 131.489248 270.376699 
C 130.926667 270.939279 130.610568 271.70241 130.610568 272.498019 
C 130.610568 273.293628 130.926667 274.056759 131.489248 274.619339 
C 132.051829 275.18192 132.814959 275.498019 133.610568 275.498019 
z
" style="fill:#2ca02c;stroke:#ffffff;stroke-width:0.48;"/>
    <path clip-path="url(#p8044349f21)" d="M 147.137841 274.258811 
C 147.93345 274.258811 148.696581 273.942712 149.259161 273.380132 
C 149.821742 272.817551 150.137841 272.054421 150.137841 271.258811 
C 150.137841 270.463202 149.821742 269.700072 149.259161 269.137491 
C 148.696581 268.57491 147.93345 268.258811 147.137841 268.258811 
C 146.342232 268.258811 145.579101 268.57491 145.016521 269.137491 
C 144.45394 269.700072 144.137841 270.463202 144.137841 271.258811 
C 144.137841 272.054421 144.45394 272.817551 145.016521 273.380132 
C 145.579101 273.942712 146.342232 274.258811 147.137841 274.258811 
z
" style="fill:#2ca02c;stroke:#ffffff;stroke-width:0.48;"/>
    <path clip-path="url(#p8044349f21)" d="M 160.665114 273.213536 
C 161.460723 273.213536 162.223853 272.897437 162.786434 272.334856 
C 163.349015 271.772275 163.665114 271.009145 163.665114 270.213536 
C 163.665114 269.417926 163.349015 268.654796 162.786434 268.092215 
C 162.223853 267.529634 161.460723 267.213536 160.665114 267.213536 
C 159.869504 267.213536 159.106374 267.529634 158.543793 268.092215 
C 157.981213 268.654796 157.665114 269.417926 157.665114 270.213536 
C 157.665114 271.009145 157.981213 271.772275 158.543793 272.334856 
C 159.106374 272.897437 159.869504 273.213536 160.665114 273.213536 
z
" style="fill:#2ca02c;stroke:#ffffff;stroke-width:0.48;"/>
    <path clip-path="url(#p8044349f21)" d="M 174.192386 270.9235 
C 174.987996 270.9235 175.751126 270.607401 176.313707 270.044821 
C 176.876287 269.48224 177.192386 268.71911 177.192386 267.9235 
C 177.192386 267.127891 176.876287 266.364761 176.313707 265.80218 
C 175.751126 265.239599 174.987996 264.9235 174.192386 264.9235 
C 173.396777 264.9235 172.633647 265.239599 172.071066 265.80218 
C 171.508485 266.364761 171.192386 267.127891 171.192386 267.9235 
C 171.192386 268.71911 171.508485 269.48224 172.071066 270.044821 
C 172.633647 270.607401 173.396777 270.9235 174.192386 270.9235 
z
" style="fill:#2ca02c;stroke:#ffffff;stroke-width:0.48;"/>
    <path clip-path="url(#p8044349f21)" d="M 187.719659 268.892193 
C 188.515268 268.892193 189.278399 268.576094 189.840979 268.013513 
C 190.40356 267.450932 190.719659 266.687802 190.719659 265.892193 
C 190.719659 265.096583 190.40356 264.333453 189.840979 263.770872 
C 189.278399 263.208292 188.515268 262.892193 187.719659 262.892193 
C 186.92405 262.892193 186.160919 263.208292 185.598339 263.770872 
C 185.035758 264.333453 184.719659 265.096583 184.719659 265.892193 
C 184.719659 266.687802 185.035758 267.450932 185.598339 268.013513 
C 186.160919 268.576094 186.92405 268.892193 187.719659 268.892193 
z
" style="fill:#2ca02c;stroke:#ffffff;stroke-width:0.48;"/>
    <path clip-path="url(#p8044349f21)" d="M 201.246932 266.046728 
C 202.042541 266.046728 202.805671 265.730629 203.368252 265.168048 
C 203.930833 264.605468 204.246932 263.842337 204.246932 263.046728 
C 204.246932 262.251119 203.930833 261.487989 203.368252 260.925408 
C 202.805671 260.362827 202.042541 260.046728 201.246932 260.046728 
C 200.451323 260.046728 199.688192 260.362827 199.125611 260.925408 
C 198.563031 261.487989 198.246932 262.251119 198.246932 263.046728 
C 198.246932 263.842337 198.563031 264.605468 199.125611 265.168048 
C 199.688192 265.730629 200.451323 266.046728 201.246932 266.046728 
z
" style="fill:#2ca02c;stroke:#ffffff;stroke-width:0.48;"/>
    <path clip-path="url(#p8044349f21)" d="M 214.774205 261.945835 
C 215.569814 261.945835 216.332944 261.629737 216.895525 261.067156 
C 217.458106 260.504575 217.774205 259.741445 217.774205 258.945835 
C 217.774205 258.150226 217.458106 257.387096 216.895525 256.824515 
C 216.332944 256.261934 215.569814 255.945835 214.774205 255.945835 
C 213.978595 255.945835 213.215465 256.261934 212.652884 256.824515 
C 212.090303 257.387096 211.774205 258.150226 211.774205 258.945835 
C 211.774205 259.741445 212.090303 260.504575 212.652884 261.067156 
C 213.215465 261.629737 213.978595 261.945835 214.774205 261.945835 
z
" style="fill:#2ca02c;stroke:#ffffff;stroke-width:0.48;"/>
    <path clip-path="url(#p8044349f21)" d="M 228.301477 260.505986 
C 229.097087 260.505986 229.860217 260.189887 230.422798 259.627306 
C 230.985378 259.064726 231.301477 258.301595 231.301477 257.505986 
C 231.301477 256.710377 230.985378 255.947246 230.422798 255.384666 
C 229.860217 254.822085 229.097087 254.505986 228.301477 254.505986 
C 227.505868 254.505986 226.742738 254.822085 226.180157 255.384666 
C 225.617576 255.947246 225.301477 256.710377 225.301477 257.505986 
C 225.301477 258.301595 225.617576 259.064726 226.180157 259.627306 
C 226.742738 260.189887 227.505868 260.505986 228.301477 260.505986 
z
" style="fill:#2ca02c;stroke:#ffffff;stroke-width:0.48;"/>
    <path clip-path="url(#p8044349f21)" d="M 241.82875 256.898183 
C 242.624359 256.898183 243.38749 256.582084 243.95007 256.019504 
C 244.512651 255.456923 244.82875 254.693793 244.82875 253.898183 
C 244.82875 253.102574 244.512651 252.339444 243.95007 251.776863 
C 243.38749 251.214282 242.624359 250.898183 241.82875 250.898183 
C 241.033141 250.898183 240.27001 251.214282 239.70743 251.776863 
C 239.144849 252.339444 238.82875 253.102574 238.82875 253.898183 
C 238.82875 254.693793 239.144849 255.456923 239.70743 256.019504 
C 240.27001 256.582084 241.033141 256.898183 241.82875 256.898183 
z
" style="fill:#2ca02c;stroke:#ffffff;stroke-width:0.48;"/>
    <path clip-path="url(#p8044349f21)" d="M 255.356023 250.524086 
C 256.151632 250.524086 256.914762 250.207987 257.477343 249.645406 
C 258.039924 249.082826 258.356023 248.319695 258.356023 247.524086 
C 258.356023 246.728477 258.039924 245.965346 257.477343 245.402766 
C 256.914762 244.840185 256.151632 244.524086 255.356023 244.524086 
C 254.560413 244.524086 253.797283 244.840185 253.234702 245.402766 
C 252.672122 245.965346 252.356023 246.728477 252.356023 247.524086 
C 252.356023 248.319695 252.672122 249.082826 253.234702 249.645406 
C 253.797283 250.207987 254.560413 250.524086 255.356023 250.524086 
z
" style="fill:#2ca02c;stroke:#ffffff;stroke-width:0.48;"/>
    <path clip-path="url(#p8044349f21)" d="M 268.883295 243.819816 
C 269.678905 243.819816 270.442035 243.503718 271.004616 242.941137 
C 271.567197 242.378556 271.883295 241.615426 271.883295 240.819816 
C 271.883295 240.024207 271.567197 239.261077 271.004616 238.698496 
C 270.442035 238.135915 269.678905 237.819816 268.883295 237.819816 
C 268.087686 237.819816 267.324556 238.135915 266.761975 238.698496 
C 266.199394 239.261077 265.883295 240.024207 265.883295 240.819816 
C 265.883295 241.615426 266.199394 242.378556 266.761975 242.941137 
C 267.324556 243.503718 268.087686 243.819816 268.883295 243.819816 
z
" style="fill:#2ca02c;stroke:#ffffff;stroke-width:0.48;"/>
    <path clip-path="url(#p8044349f21)" d="M 282.410568 239.771775 
C 283.206177 239.771775 283.969308 239.455676 284.531889 238.893095 
C 285.094469 238.330514 285.410568 237.567384 285.410568 236.771775 
C 285.410568 235.976166 285.094469 235.213035 284.531889 234.650455 
C 283.969308 234.087874 283.206177 233.771775 282.410568 233.771775 
C 281.614959 233.771775 280.851829 234.087874 280.289248 234.650455 
C 279.726667 235.213035 279.410568 235.976166 279.410568 236.771775 
C 279.410568 237.567384 279.726667 238.330514 280.289248 238.893095 
C 280.851829 239.455676 281.614959 239.771775 282.410568 239.771775 
z
" style="fill:#2ca02c;stroke:#ffffff;stroke-width:0.48;"/>
    <path clip-path="url(#p8044349f21)" d="M 295.937841 232.899421 
C 296.73345 232.899421 297.496581 232.583323 298.059161 232.020742 
C 298.621742 231.458161 298.937841 230.695031 298.937841 229.899421 
C 298.937841 229.103812 298.621742 228.340682 298.059161 227.778101 
C 297.496581 227.21552 296.73345 226.899421 295.937841 226.899421 
C 295.142232 226.899421 294.379101 227.21552 293.816521 227.778101 
C 293.25394 228.340682 292.937841 229.103812 292.937841 229.899421 
C 292.937841 230.695031 293.25394 231.458161 293.816521 232.020742 
C 294.379101 232.583323 295.142232 232.899421 295.937841 232.899421 
z
" style="fill:#2ca02c;stroke:#ffffff;stroke-width:0.48;"/>
    <path clip-path="url(#p8044349f21)" d="M 309.465114 231.434437 
C 310.260723 231.434437 311.023853 231.118338 311.586434 230.555757 
C 312.149015 229.993176 312.465114 229.230046 312.465114 228.434437 
C 312.465114 227.638827 312.149015 226.875697 311.586434 226.313116 
C 311.023853 225.750536 310.260723 225.434437 309.465114 225.434437 
C 308.669504 225.434437 307.906374 225.750536 307.343793 226.313116 
C 306.781213 226.875697 306.465114 227.638827 306.465114 228.434437 
C 306.465114 229.230046 306.781213 229.993176 307.343793 230.555757 
C 307.906374 231.118338 308.669504 231.434437 309.465114 231.434437 
z
" style="fill:#2ca02c;stroke:#ffffff;stroke-width:0.48;"/>
    <path clip-path="url(#p8044349f21)" d="M 322.992386 184.444651 
C 323.787996 184.444651 324.551126 184.128552 325.113707 183.565971 
C 325.676287 183.00339 325.992386 182.24026 325.992386 181.444651 
C 325.992386 180.649041 325.676287 179.885911 325.113707 179.32333 
C 324.551126 178.760749 323.787996 178.444651 322.992386 178.444651 
C 322.196777 178.444651 321.433647 178.760749 320.871066 179.32333 
C 320.308485 179.885911 319.992386 180.649041 319.992386 181.444651 
C 319.992386 182.24026 320.308485 183.00339 320.871066 183.565971 
C 321.433647 184.128552 322.196777 184.444651 322.992386 184.444651 
z
" style="fill:#2ca02c;stroke:#ffffff;stroke-width:0.48;"/>
    <path clip-path="url(#p8044349f21)" d="M 336.519659 197.626194 
C 337.315268 197.626194 338.078399 197.310095 338.640979 196.747514 
C 339.20356 196.184934 339.519659 195.421803 339.519659 194.626194 
C 339.519659 193.830585 339.20356 193.067454 338.640979 192.504874 
C 338.078399 191.942293 337.315268 191.626194 336.519659 191.626194 
C 335.72405 191.626194 334.960919 191.942293 334.398339 192.504874 
C 333.835758 193.067454 333.519659 193.830585 333.519659 194.626194 
C 333.519659 195.421803 333.835758 196.184934 334.398339 196.747514 
C 334.960919 197.310095 335.72405 197.626194 336.519659 197.626194 
z
" style="fill:#2ca02c;stroke:#ffffff;stroke-width:0.48;"/>
    <path clip-path="url(#p8044349f21)" d="M 350.046932 196.953188 
C 350.842541 196.953188 351.605671 196.637089 352.168252 196.074508 
C 352.730833 195.511927 353.046932 194.748797 353.046932 193.953188 
C 353.046932 193.157578 352.730833 192.394448 352.168252 191.831867 
C 351.605671 191.269287 350.842541 190.953188 350.046932 190.953188 
C 349.251323 190.953188 348.488192 191.269287 347.925611 191.831867 
C 347.363031 192.394448 347.046932 193.157578 347.046932 193.953188 
C 347.046932 194.748797 347.363031 195.511927 347.925611 196.074508 
C 348.488192 196.637089 349.251323 196.953188 350.046932 196.953188 
z
" style="fill:#2ca02c;stroke:#ffffff;stroke-width:0.48;"/>
    <path clip-path="url(#p8044349f21)" d="M 363.574205 163.449461 
C 364.369814 163.449461 365.132944 163.133363 365.695525 162.570782 
C 366.258106 162.008201 366.574205 161.245071 366.574205 160.449461 
C 366.574205 159.653852 366.258106 158.890722 365.695525 158.328141 
C 365.132944 157.76556 364.369814 157.449461 363.574205 157.449461 
C 362.778595 157.449461 362.015465 157.76556 361.452884 158.328141 
C 360.890303 158.890722 360.574205 159.653852 360.574205 160.449461 
C 360.574205 161.245071 360.890303 162.008201 361.452884 162.570782 
C 362.015465 163.133363 362.778595 163.449461 363.574205 163.449461 
z
" style="fill:#2ca02c;stroke:#ffffff;stroke-width:0.48;"/>
    <path clip-path="url(#p8044349f21)" d="M 377.101477 155.283804 
C 377.897087 155.283804 378.660217 154.967705 379.222798 154.405124 
C 379.785378 153.842544 380.101477 153.079413 380.101477 152.283804 
C 380.101477 151.488195 379.785378 150.725064 379.222798 150.162484 
C 378.660217 149.599903 377.897087 149.283804 377.101477 149.283804 
C 376.305868 149.283804 375.542738 149.599903 374.980157 150.162484 
C 374.417576 150.725064 374.101477 151.488195 374.101477 152.283804 
C 374.101477 153.079413 374.417576 153.842544 374.980157 154.405124 
C 375.542738 154.967705 376.305868 155.283804 377.101477 155.283804 
z
" style="fill:#2ca02c;stroke:#ffffff;stroke-width:0.48;"/>
    <path clip-path="url(#p8044349f21)" d="M 390.62875 118.208271 
C 391.424359 118.208271 392.18749 117.892172 392.75007 117.329591 
C 393.312651 116.767011 393.62875 116.00388 393.62875 115.208271 
C 393.62875 114.412662 393.312651 113.649531 392.75007 113.086951 
C 392.18749 112.52437 391.424359 112.208271 390.62875 112.208271 
C 389.833141 112.208271 389.07001 112.52437 388.50743 113.086951 
C 387.944849 113.649531 387.62875 114.412662 387.62875 115.208271 
C 387.62875 116.00388 387.944849 116.767011 388.50743 117.329591 
C 389.07001 117.892172 389.833141 118.208271 390.62875 118.208271 
z
" style="fill:#2ca02c;stroke:#ffffff;stroke-width:0.48;"/>
    <path clip-path="url(#p8044349f21)" d="M 404.156023 114.35219 
C 404.951632 114.35219 405.714762 114.036091 406.277343 113.473511 
C 406.839924 112.91093 407.156023 112.1478 407.156023 111.35219 
C 407.156023 110.556581 406.839924 109.793451 406.277343 109.23087 
C 405.714762 108.668289 404.951632 108.35219 404.156023 108.35219 
C 403.360413 108.35219 402.597283 108.668289 402.034702 109.23087 
C 401.472122 109.793451 401.156023 110.556581 401.156023 111.35219 
C 401.156023 112.1478 401.472122 112.91093 402.034702 113.473511 
C 402.597283 114.036091 403.360413 114.35219 404.156023 114.35219 
z
" style="fill:#2ca02c;stroke:#ffffff;stroke-width:0.48;"/>
   </g>
   <g id="PathCollection_2"/>
   <g id="PathCollection_3"/>
   <g id="PathCollection_4"/>
   <g id="PathCollection_5"/>
   <g id="matplotlib.axis_1">
    <g id="xtick_1">
     <g id="line2d_1">
      <defs>
       <path d="M 0 0 
L 0 3.5 
" id="mf1a8112d80" style="stroke:#000000;stroke-width:0.8;"/>
      </defs>
      <g>
       <use style="stroke:#000000;stroke-width:0.8;" x="65.974205" xlink:href="#mf1a8112d80" y="288.910125"/>
      </g>
     </g>
     <g id="text_1">
      <!-- 0 -->
      <g transform="translate(62.792955 303.508562)scale(0.1 -0.1)">
       <defs>
        <path d="M 2034 4250 
Q 1547 4250 1301 3770 
Q 1056 3291 1056 2328 
Q 1056 1369 1301 889 
Q 1547 409 2034 409 
Q 2525 409 2770 889 
Q 3016 1369 3016 2328 
Q 3016 3291 2770 3770 
Q 2525 4250 2034 4250 
z
M 2034 4750 
Q 2819 4750 3233 4129 
Q 3647 3509 3647 2328 
Q 3647 1150 3233 529 
Q 2819 -91 2034 -91 
Q 1250 -91 836 529 
Q 422 1150 422 2328 
Q 422 3509 836 4129 
Q 1250 4750 2034 4750 
z
" id="DejaVuSans-30" transform="scale(0.015625)"/>
       </defs>
       <use xlink:href="#DejaVuSans-30"/>
      </g>
     </g>
    </g>
    <g id="xtick_2">
     <g id="line2d_2">
      <g>
       <use style="stroke:#000000;stroke-width:0.8;" x="133.610568" xlink:href="#mf1a8112d80" y="288.910125"/>
      </g>
     </g>
     <g id="text_2">
      <!-- 5 -->
      <g transform="translate(130.429318 303.508562)scale(0.1 -0.1)">
       <defs>
        <path d="M 691 4666 
L 3169 4666 
L 3169 4134 
L 1269 4134 
L 1269 2991 
Q 1406 3038 1543 3061 
Q 1681 3084 1819 3084 
Q 2600 3084 3056 2656 
Q 3513 2228 3513 1497 
Q 3513 744 3044 326 
Q 2575 -91 1722 -91 
Q 1428 -91 1123 -41 
Q 819 9 494 109 
L 494 744 
Q 775 591 1075 516 
Q 1375 441 1709 441 
Q 2250 441 2565 725 
Q 2881 1009 2881 1497 
Q 2881 1984 2565 2268 
Q 2250 2553 1709 2553 
Q 1456 2553 1204 2497 
Q 953 2441 691 2322 
L 691 4666 
z
" id="DejaVuSans-35" transform="scale(0.015625)"/>
       </defs>
       <use xlink:href="#DejaVuSans-35"/>
      </g>
     </g>
    </g>
    <g id="xtick_3">
     <g id="line2d_3">
      <g>
       <use style="stroke:#000000;stroke-width:0.8;" x="201.246932" xlink:href="#mf1a8112d80" y="288.910125"/>
      </g>
     </g>
     <g id="text_3">
      <!-- 10 -->
      <g transform="translate(194.884432 303.508562)scale(0.1 -0.1)">
       <defs>
        <path d="M 794 531 
L 1825 531 
L 1825 4091 
L 703 3866 
L 703 4441 
L 1819 4666 
L 2450 4666 
L 2450 531 
L 3481 531 
L 3481 0 
L 794 0 
L 794 531 
z
" id="DejaVuSans-31" transform="scale(0.015625)"/>
       </defs>
       <use xlink:href="#DejaVuSans-31"/>
       <use x="63.623047" xlink:href="#DejaVuSans-30"/>
      </g>
     </g>
    </g>
    <g id="xtick_4">
     <g id="line2d_4">
      <g>
       <use style="stroke:#000000;stroke-width:0.8;" x="268.883295" xlink:href="#mf1a8112d80" y="288.910125"/>
      </g>
     </g>
     <g id="text_4">
      <!-- 15 -->
      <g transform="translate(262.520795 303.508562)scale(0.1 -0.1)">
       <use xlink:href="#DejaVuSans-31"/>
       <use x="63.623047" xlink:href="#DejaVuSans-35"/>
      </g>
     </g>
    </g>
    <g id="xtick_5">
     <g id="line2d_5">
      <g>
       <use style="stroke:#000000;stroke-width:0.8;" x="336.519659" xlink:href="#mf1a8112d80" y="288.910125"/>
      </g>
     </g>
     <g id="text_5">
      <!-- 20 -->
      <g transform="translate(330.157159 303.508562)scale(0.1 -0.1)">
       <defs>
        <path d="M 1228 531 
L 3431 531 
L 3431 0 
L 469 0 
L 469 531 
Q 828 903 1448 1529 
Q 2069 2156 2228 2338 
Q 2531 2678 2651 2914 
Q 2772 3150 2772 3378 
Q 2772 3750 2511 3984 
Q 2250 4219 1831 4219 
Q 1534 4219 1204 4116 
Q 875 4013 500 3803 
L 500 4441 
Q 881 4594 1212 4672 
Q 1544 4750 1819 4750 
Q 2544 4750 2975 4387 
Q 3406 4025 3406 3419 
Q 3406 3131 3298 2873 
Q 3191 2616 2906 2266 
Q 2828 2175 2409 1742 
Q 1991 1309 1228 531 
z
" id="DejaVuSans-32" transform="scale(0.015625)"/>
       </defs>
       <use xlink:href="#DejaVuSans-32"/>
       <use x="63.623047" xlink:href="#DejaVuSans-30"/>
      </g>
     </g>
    </g>
    <g id="xtick_6">
     <g id="line2d_6">
      <g>
       <use style="stroke:#000000;stroke-width:0.8;" x="404.156023" xlink:href="#mf1a8112d80" y="288.910125"/>
      </g>
     </g>
     <g id="text_6">
      <!-- 25 -->
      <g transform="translate(397.793523 303.508562)scale(0.1 -0.1)">
       <use xlink:href="#DejaVuSans-32"/>
       <use x="63.623047" xlink:href="#DejaVuSans-35"/>
      </g>
     </g>
    </g>
    <g id="text_7">
     <!-- Cantidad de locales -->
     <g transform="translate(192.581875 317.186687)scale(0.1 -0.1)">
      <defs>
       <path d="M 4122 4306 
L 4122 3641 
Q 3803 3938 3442 4084 
Q 3081 4231 2675 4231 
Q 1875 4231 1450 3742 
Q 1025 3253 1025 2328 
Q 1025 1406 1450 917 
Q 1875 428 2675 428 
Q 3081 428 3442 575 
Q 3803 722 4122 1019 
L 4122 359 
Q 3791 134 3420 21 
Q 3050 -91 2638 -91 
Q 1578 -91 968 557 
Q 359 1206 359 2328 
Q 359 3453 968 4101 
Q 1578 4750 2638 4750 
Q 3056 4750 3426 4639 
Q 3797 4528 4122 4306 
z
" id="DejaVuSans-43" transform="scale(0.015625)"/>
       <path d="M 2194 1759 
Q 1497 1759 1228 1600 
Q 959 1441 959 1056 
Q 959 750 1161 570 
Q 1363 391 1709 391 
Q 2188 391 2477 730 
Q 2766 1069 2766 1631 
L 2766 1759 
L 2194 1759 
z
M 3341 1997 
L 3341 0 
L 2766 0 
L 2766 531 
Q 2569 213 2275 61 
Q 1981 -91 1556 -91 
Q 1019 -91 701 211 
Q 384 513 384 1019 
Q 384 1609 779 1909 
Q 1175 2209 1959 2209 
L 2766 2209 
L 2766 2266 
Q 2766 2663 2505 2880 
Q 2244 3097 1772 3097 
Q 1472 3097 1187 3025 
Q 903 2953 641 2809 
L 641 3341 
Q 956 3463 1253 3523 
Q 1550 3584 1831 3584 
Q 2591 3584 2966 3190 
Q 3341 2797 3341 1997 
z
" id="DejaVuSans-61" transform="scale(0.015625)"/>
       <path d="M 3513 2113 
L 3513 0 
L 2938 0 
L 2938 2094 
Q 2938 2591 2744 2837 
Q 2550 3084 2163 3084 
Q 1697 3084 1428 2787 
Q 1159 2491 1159 1978 
L 1159 0 
L 581 0 
L 581 3500 
L 1159 3500 
L 1159 2956 
Q 1366 3272 1645 3428 
Q 1925 3584 2291 3584 
Q 2894 3584 3203 3211 
Q 3513 2838 3513 2113 
z
" id="DejaVuSans-6e" transform="scale(0.015625)"/>
       <path d="M 1172 4494 
L 1172 3500 
L 2356 3500 
L 2356 3053 
L 1172 3053 
L 1172 1153 
Q 1172 725 1289 603 
Q 1406 481 1766 481 
L 2356 481 
L 2356 0 
L 1766 0 
Q 1100 0 847 248 
Q 594 497 594 1153 
L 594 3053 
L 172 3053 
L 172 3500 
L 594 3500 
L 594 4494 
L 1172 4494 
z
" id="DejaVuSans-74" transform="scale(0.015625)"/>
       <path d="M 603 3500 
L 1178 3500 
L 1178 0 
L 603 0 
L 603 3500 
z
M 603 4863 
L 1178 4863 
L 1178 4134 
L 603 4134 
L 603 4863 
z
" id="DejaVuSans-69" transform="scale(0.015625)"/>
       <path d="M 2906 2969 
L 2906 4863 
L 3481 4863 
L 3481 0 
L 2906 0 
L 2906 525 
Q 2725 213 2448 61 
Q 2172 -91 1784 -91 
Q 1150 -91 751 415 
Q 353 922 353 1747 
Q 353 2572 751 3078 
Q 1150 3584 1784 3584 
Q 2172 3584 2448 3432 
Q 2725 3281 2906 2969 
z
M 947 1747 
Q 947 1113 1208 752 
Q 1469 391 1925 391 
Q 2381 391 2643 752 
Q 2906 1113 2906 1747 
Q 2906 2381 2643 2742 
Q 2381 3103 1925 3103 
Q 1469 3103 1208 2742 
Q 947 2381 947 1747 
z
" id="DejaVuSans-64" transform="scale(0.015625)"/>
       <path id="DejaVuSans-20" transform="scale(0.015625)"/>
       <path d="M 3597 1894 
L 3597 1613 
L 953 1613 
Q 991 1019 1311 708 
Q 1631 397 2203 397 
Q 2534 397 2845 478 
Q 3156 559 3463 722 
L 3463 178 
Q 3153 47 2828 -22 
Q 2503 -91 2169 -91 
Q 1331 -91 842 396 
Q 353 884 353 1716 
Q 353 2575 817 3079 
Q 1281 3584 2069 3584 
Q 2775 3584 3186 3129 
Q 3597 2675 3597 1894 
z
M 3022 2063 
Q 3016 2534 2758 2815 
Q 2500 3097 2075 3097 
Q 1594 3097 1305 2825 
Q 1016 2553 972 2059 
L 3022 2063 
z
" id="DejaVuSans-65" transform="scale(0.015625)"/>
       <path d="M 603 4863 
L 1178 4863 
L 1178 0 
L 603 0 
L 603 4863 
z
" id="DejaVuSans-6c" transform="scale(0.015625)"/>
       <path d="M 1959 3097 
Q 1497 3097 1228 2736 
Q 959 2375 959 1747 
Q 959 1119 1226 758 
Q 1494 397 1959 397 
Q 2419 397 2687 759 
Q 2956 1122 2956 1747 
Q 2956 2369 2687 2733 
Q 2419 3097 1959 3097 
z
M 1959 3584 
Q 2709 3584 3137 3096 
Q 3566 2609 3566 1747 
Q 3566 888 3137 398 
Q 2709 -91 1959 -91 
Q 1206 -91 779 398 
Q 353 888 353 1747 
Q 353 2609 779 3096 
Q 1206 3584 1959 3584 
z
" id="DejaVuSans-6f" transform="scale(0.015625)"/>
       <path d="M 3122 3366 
L 3122 2828 
Q 2878 2963 2633 3030 
Q 2388 3097 2138 3097 
Q 1578 3097 1268 2742 
Q 959 2388 959 1747 
Q 959 1106 1268 751 
Q 1578 397 2138 397 
Q 2388 397 2633 464 
Q 2878 531 3122 666 
L 3122 134 
Q 2881 22 2623 -34 
Q 2366 -91 2075 -91 
Q 1284 -91 818 406 
Q 353 903 353 1747 
Q 353 2603 823 3093 
Q 1294 3584 2113 3584 
Q 2378 3584 2631 3529 
Q 2884 3475 3122 3366 
z
" id="DejaVuSans-63" transform="scale(0.015625)"/>
       <path d="M 2834 3397 
L 2834 2853 
Q 2591 2978 2328 3040 
Q 2066 3103 1784 3103 
Q 1356 3103 1142 2972 
Q 928 2841 928 2578 
Q 928 2378 1081 2264 
Q 1234 2150 1697 2047 
L 1894 2003 
Q 2506 1872 2764 1633 
Q 3022 1394 3022 966 
Q 3022 478 2636 193 
Q 2250 -91 1575 -91 
Q 1294 -91 989 -36 
Q 684 19 347 128 
L 347 722 
Q 666 556 975 473 
Q 1284 391 1588 391 
Q 1994 391 2212 530 
Q 2431 669 2431 922 
Q 2431 1156 2273 1281 
Q 2116 1406 1581 1522 
L 1381 1569 
Q 847 1681 609 1914 
Q 372 2147 372 2553 
Q 372 3047 722 3315 
Q 1072 3584 1716 3584 
Q 2034 3584 2315 3537 
Q 2597 3491 2834 3397 
z
" id="DejaVuSans-73" transform="scale(0.015625)"/>
      </defs>
      <use xlink:href="#DejaVuSans-43"/>
      <use x="69.824219" xlink:href="#DejaVuSans-61"/>
      <use x="131.103516" xlink:href="#DejaVuSans-6e"/>
      <use x="194.482422" xlink:href="#DejaVuSans-74"/>
      <use x="233.691406" xlink:href="#DejaVuSans-69"/>
      <use x="261.474609" xlink:href="#DejaVuSans-64"/>
      <use x="324.951172" xlink:href="#DejaVuSans-61"/>
      <use x="386.230469" xlink:href="#DejaVuSans-64"/>
      <use x="449.707031" xlink:href="#DejaVuSans-20"/>
      <use x="481.494141" xlink:href="#DejaVuSans-64"/>
      <use x="544.970703" xlink:href="#DejaVuSans-65"/>
      <use x="606.494141" xlink:href="#DejaVuSans-20"/>
      <use x="638.28125" xlink:href="#DejaVuSans-6c"/>
      <use x="666.064453" xlink:href="#DejaVuSans-6f"/>
      <use x="727.246094" xlink:href="#DejaVuSans-63"/>
      <use x="782.226562" xlink:href="#DejaVuSans-61"/>
      <use x="843.505859" xlink:href="#DejaVuSans-6c"/>
      <use x="871.289062" xlink:href="#DejaVuSans-65"/>
      <use x="932.8125" xlink:href="#DejaVuSans-73"/>
     </g>
    </g>
   </g>
   <g id="matplotlib.axis_2">
    <g id="ytick_1">
     <g id="line2d_7">
      <defs>
       <path d="M 0 0 
L -3.5 0 
" id="m4f0a143383" style="stroke:#000000;stroke-width:0.8;"/>
      </defs>
      <g>
       <use style="stroke:#000000;stroke-width:0.8;" x="63.26875" xlink:href="#m4f0a143383" y="279.338906"/>
      </g>
     </g>
     <g id="text_8">
      <!-- 0.0000 -->
      <g transform="translate(21.278125 283.138125)scale(0.1 -0.1)">
       <defs>
        <path d="M 684 794 
L 1344 794 
L 1344 0 
L 684 0 
L 684 794 
z
" id="DejaVuSans-2e" transform="scale(0.015625)"/>
       </defs>
       <use xlink:href="#DejaVuSans-30"/>
       <use x="63.623047" xlink:href="#DejaVuSans-2e"/>
       <use x="95.410156" xlink:href="#DejaVuSans-30"/>
       <use x="159.033203" xlink:href="#DejaVuSans-30"/>
       <use x="222.65625" xlink:href="#DejaVuSans-30"/>
       <use x="286.279297" xlink:href="#DejaVuSans-30"/>
      </g>
     </g>
    </g>
    <g id="ytick_2">
     <g id="line2d_8">
      <g>
       <use style="stroke:#000000;stroke-width:0.8;" x="63.26875" xlink:href="#m4f0a143383" y="245.382196"/>
      </g>
     </g>
     <g id="text_9">
      <!-- 0.0025 -->
      <g transform="translate(21.278125 249.181415)scale(0.1 -0.1)">
       <use xlink:href="#DejaVuSans-30"/>
       <use x="63.623047" xlink:href="#DejaVuSans-2e"/>
       <use x="95.410156" xlink:href="#DejaVuSans-30"/>
       <use x="159.033203" xlink:href="#DejaVuSans-30"/>
       <use x="222.65625" xlink:href="#DejaVuSans-32"/>
       <use x="286.279297" xlink:href="#DejaVuSans-35"/>
      </g>
     </g>
    </g>
    <g id="ytick_3">
     <g id="line2d_9">
      <g>
       <use style="stroke:#000000;stroke-width:0.8;" x="63.26875" xlink:href="#m4f0a143383" y="211.425485"/>
      </g>
     </g>
     <g id="text_10">
      <!-- 0.0050 -->
      <g transform="translate(21.278125 215.224704)scale(0.1 -0.1)">
       <use xlink:href="#DejaVuSans-30"/>
       <use x="63.623047" xlink:href="#DejaVuSans-2e"/>
       <use x="95.410156" xlink:href="#DejaVuSans-30"/>
       <use x="159.033203" xlink:href="#DejaVuSans-30"/>
       <use x="222.65625" xlink:href="#DejaVuSans-35"/>
       <use x="286.279297" xlink:href="#DejaVuSans-30"/>
      </g>
     </g>
    </g>
    <g id="ytick_4">
     <g id="line2d_10">
      <g>
       <use style="stroke:#000000;stroke-width:0.8;" x="63.26875" xlink:href="#m4f0a143383" y="177.468775"/>
      </g>
     </g>
     <g id="text_11">
      <!-- 0.0075 -->
      <g transform="translate(21.278125 181.267994)scale(0.1 -0.1)">
       <defs>
        <path d="M 525 4666 
L 3525 4666 
L 3525 4397 
L 1831 0 
L 1172 0 
L 2766 4134 
L 525 4134 
L 525 4666 
z
" id="DejaVuSans-37" transform="scale(0.015625)"/>
       </defs>
       <use xlink:href="#DejaVuSans-30"/>
       <use x="63.623047" xlink:href="#DejaVuSans-2e"/>
       <use x="95.410156" xlink:href="#DejaVuSans-30"/>
       <use x="159.033203" xlink:href="#DejaVuSans-30"/>
       <use x="222.65625" xlink:href="#DejaVuSans-37"/>
       <use x="286.279297" xlink:href="#DejaVuSans-35"/>
      </g>
     </g>
    </g>
    <g id="ytick_5">
     <g id="line2d_11">
      <g>
       <use style="stroke:#000000;stroke-width:0.8;" x="63.26875" xlink:href="#m4f0a143383" y="143.512064"/>
      </g>
     </g>
     <g id="text_12">
      <!-- 0.0100 -->
      <g transform="translate(21.278125 147.311283)scale(0.1 -0.1)">
       <use xlink:href="#DejaVuSans-30"/>
       <use x="63.623047" xlink:href="#DejaVuSans-2e"/>
       <use x="95.410156" xlink:href="#DejaVuSans-30"/>
       <use x="159.033203" xlink:href="#DejaVuSans-31"/>
       <use x="222.65625" xlink:href="#DejaVuSans-30"/>
       <use x="286.279297" xlink:href="#DejaVuSans-30"/>
      </g>
     </g>
    </g>
    <g id="ytick_6">
     <g id="line2d_12">
      <g>
       <use style="stroke:#000000;stroke-width:0.8;" x="63.26875" xlink:href="#m4f0a143383" y="109.555354"/>
      </g>
     </g>
     <g id="text_13">
      <!-- 0.0125 -->
      <g transform="translate(21.278125 113.354573)scale(0.1 -0.1)">
       <use xlink:href="#DejaVuSans-30"/>
       <use x="63.623047" xlink:href="#DejaVuSans-2e"/>
       <use x="95.410156" xlink:href="#DejaVuSans-30"/>
       <use x="159.033203" xlink:href="#DejaVuSans-31"/>
       <use x="222.65625" xlink:href="#DejaVuSans-32"/>
       <use x="286.279297" xlink:href="#DejaVuSans-35"/>
      </g>
     </g>
    </g>
    <g id="ytick_7">
     <g id="line2d_13">
      <g>
       <use style="stroke:#000000;stroke-width:0.8;" x="63.26875" xlink:href="#m4f0a143383" y="75.598643"/>
      </g>
     </g>
     <g id="text_14">
      <!-- 0.0150 -->
      <g transform="translate(21.278125 79.397862)scale(0.1 -0.1)">
       <use xlink:href="#DejaVuSans-30"/>
       <use x="63.623047" xlink:href="#DejaVuSans-2e"/>
       <use x="95.410156" xlink:href="#DejaVuSans-30"/>
       <use x="159.033203" xlink:href="#DejaVuSans-31"/>
       <use x="222.65625" xlink:href="#DejaVuSans-35"/>
       <use x="286.279297" xlink:href="#DejaVuSans-30"/>
      </g>
     </g>
    </g>
    <g id="ytick_8">
     <g id="line2d_14">
      <g>
       <use style="stroke:#000000;stroke-width:0.8;" x="63.26875" xlink:href="#m4f0a143383" y="41.641933"/>
      </g>
     </g>
     <g id="text_15">
      <!-- 0.0175 -->
      <g transform="translate(21.278125 45.441152)scale(0.1 -0.1)">
       <use xlink:href="#DejaVuSans-30"/>
       <use x="63.623047" xlink:href="#DejaVuSans-2e"/>
       <use x="95.410156" xlink:href="#DejaVuSans-30"/>
       <use x="159.033203" xlink:href="#DejaVuSans-31"/>
       <use x="222.65625" xlink:href="#DejaVuSans-37"/>
       <use x="286.279297" xlink:href="#DejaVuSans-35"/>
      </g>
     </g>
    </g>
    <g id="text_16">
     <!-- Tiempo de ejecucin (10^(-3) s) -->
     <g transform="translate(15.198437 236.700219)rotate(-90)scale(0.1 -0.1)">
      <defs>
       <path d="M -19 4666 
L 3928 4666 
L 3928 4134 
L 2272 4134 
L 2272 0 
L 1638 0 
L 1638 4134 
L -19 4134 
L -19 4666 
z
" id="DejaVuSans-54" transform="scale(0.015625)"/>
       <path d="M 3328 2828 
Q 3544 3216 3844 3400 
Q 4144 3584 4550 3584 
Q 5097 3584 5394 3201 
Q 5691 2819 5691 2113 
L 5691 0 
L 5113 0 
L 5113 2094 
Q 5113 2597 4934 2840 
Q 4756 3084 4391 3084 
Q 3944 3084 3684 2787 
Q 3425 2491 3425 1978 
L 3425 0 
L 2847 0 
L 2847 2094 
Q 2847 2600 2669 2842 
Q 2491 3084 2119 3084 
Q 1678 3084 1418 2786 
Q 1159 2488 1159 1978 
L 1159 0 
L 581 0 
L 581 3500 
L 1159 3500 
L 1159 2956 
Q 1356 3278 1631 3431 
Q 1906 3584 2284 3584 
Q 2666 3584 2933 3390 
Q 3200 3197 3328 2828 
z
" id="DejaVuSans-6d" transform="scale(0.015625)"/>
       <path d="M 1159 525 
L 1159 -1331 
L 581 -1331 
L 581 3500 
L 1159 3500 
L 1159 2969 
Q 1341 3281 1617 3432 
Q 1894 3584 2278 3584 
Q 2916 3584 3314 3078 
Q 3713 2572 3713 1747 
Q 3713 922 3314 415 
Q 2916 -91 2278 -91 
Q 1894 -91 1617 61 
Q 1341 213 1159 525 
z
M 3116 1747 
Q 3116 2381 2855 2742 
Q 2594 3103 2138 3103 
Q 1681 3103 1420 2742 
Q 1159 2381 1159 1747 
Q 1159 1113 1420 752 
Q 1681 391 2138 391 
Q 2594 391 2855 752 
Q 3116 1113 3116 1747 
z
" id="DejaVuSans-70" transform="scale(0.015625)"/>
       <path d="M 603 3500 
L 1178 3500 
L 1178 -63 
Q 1178 -731 923 -1031 
Q 669 -1331 103 -1331 
L -116 -1331 
L -116 -844 
L 38 -844 
Q 366 -844 484 -692 
Q 603 -541 603 -63 
L 603 3500 
z
M 603 4863 
L 1178 4863 
L 1178 4134 
L 603 4134 
L 603 4863 
z
" id="DejaVuSans-6a" transform="scale(0.015625)"/>
       <path d="M 544 1381 
L 544 3500 
L 1119 3500 
L 1119 1403 
Q 1119 906 1312 657 
Q 1506 409 1894 409 
Q 2359 409 2629 706 
Q 2900 1003 2900 1516 
L 2900 3500 
L 3475 3500 
L 3475 0 
L 2900 0 
L 2900 538 
Q 2691 219 2414 64 
Q 2138 -91 1772 -91 
Q 1169 -91 856 284 
Q 544 659 544 1381 
z
M 1991 3584 
L 1991 3584 
z
" id="DejaVuSans-75" transform="scale(0.015625)"/>
       <path d="M 1959 3097 
Q 1497 3097 1228 2736 
Q 959 2375 959 1747 
Q 959 1119 1226 758 
Q 1494 397 1959 397 
Q 2419 397 2687 759 
Q 2956 1122 2956 1747 
Q 2956 2369 2687 2733 
Q 2419 3097 1959 3097 
z
M 1959 3584 
Q 2709 3584 3137 3096 
Q 3566 2609 3566 1747 
Q 3566 888 3137 398 
Q 2709 -91 1959 -91 
Q 1206 -91 779 398 
Q 353 888 353 1747 
Q 353 2609 779 3096 
Q 1206 3584 1959 3584 
z
M 2394 5119 
L 3016 5119 
L 1998 3944 
L 1519 3944 
L 2394 5119 
z
" id="DejaVuSans-f3" transform="scale(0.015625)"/>
       <path d="M 1984 4856 
Q 1566 4138 1362 3434 
Q 1159 2731 1159 2009 
Q 1159 1288 1364 580 
Q 1569 -128 1984 -844 
L 1484 -844 
Q 1016 -109 783 600 
Q 550 1309 550 2009 
Q 550 2706 781 3412 
Q 1013 4119 1484 4856 
L 1984 4856 
z
" id="DejaVuSans-28" transform="scale(0.015625)"/>
       <path d="M 2988 4666 
L 4684 2925 
L 4056 2925 
L 2681 4159 
L 1306 2925 
L 678 2925 
L 2375 4666 
L 2988 4666 
z
" id="DejaVuSans-5e" transform="scale(0.015625)"/>
       <path d="M 313 2009 
L 1997 2009 
L 1997 1497 
L 313 1497 
L 313 2009 
z
" id="DejaVuSans-2d" transform="scale(0.015625)"/>
       <path d="M 2597 2516 
Q 3050 2419 3304 2112 
Q 3559 1806 3559 1356 
Q 3559 666 3084 287 
Q 2609 -91 1734 -91 
Q 1441 -91 1130 -33 
Q 819 25 488 141 
L 488 750 
Q 750 597 1062 519 
Q 1375 441 1716 441 
Q 2309 441 2620 675 
Q 2931 909 2931 1356 
Q 2931 1769 2642 2001 
Q 2353 2234 1838 2234 
L 1294 2234 
L 1294 2753 
L 1863 2753 
Q 2328 2753 2575 2939 
Q 2822 3125 2822 3475 
Q 2822 3834 2567 4026 
Q 2313 4219 1838 4219 
Q 1578 4219 1281 4162 
Q 984 4106 628 3988 
L 628 4550 
Q 988 4650 1302 4700 
Q 1616 4750 1894 4750 
Q 2613 4750 3031 4423 
Q 3450 4097 3450 3541 
Q 3450 3153 3228 2886 
Q 3006 2619 2597 2516 
z
" id="DejaVuSans-33" transform="scale(0.015625)"/>
       <path d="M 513 4856 
L 1013 4856 
Q 1481 4119 1714 3412 
Q 1947 2706 1947 2009 
Q 1947 1309 1714 600 
Q 1481 -109 1013 -844 
L 513 -844 
Q 928 -128 1133 580 
Q 1338 1288 1338 2009 
Q 1338 2731 1133 3434 
Q 928 4138 513 4856 
z
" id="DejaVuSans-29" transform="scale(0.015625)"/>
      </defs>
      <use xlink:href="#DejaVuSans-54"/>
      <use x="57.958984" xlink:href="#DejaVuSans-69"/>
      <use x="85.742188" xlink:href="#DejaVuSans-65"/>
      <use x="147.265625" xlink:href="#DejaVuSans-6d"/>
      <use x="244.677734" xlink:href="#DejaVuSans-70"/>
      <use x="308.154297" xlink:href="#DejaVuSans-6f"/>
      <use x="369.335938" xlink:href="#DejaVuSans-20"/>
      <use x="401.123047" xlink:href="#DejaVuSans-64"/>
      <use x="464.599609" xlink:href="#DejaVuSans-65"/>
      <use x="526.123047" xlink:href="#DejaVuSans-20"/>
      <use x="557.910156" xlink:href="#DejaVuSans-65"/>
      <use x="619.433594" xlink:href="#DejaVuSans-6a"/>
      <use x="647.216797" xlink:href="#DejaVuSans-65"/>
      <use x="708.740234" xlink:href="#DejaVuSans-63"/>
      <use x="763.720703" xlink:href="#DejaVuSans-75"/>
      <use x="827.099609" xlink:href="#DejaVuSans-63"/>
      <use x="882.080078" xlink:href="#DejaVuSans-69"/>
      <use x="909.863281" xlink:href="#DejaVuSans-f3"/>
      <use x="971.044922" xlink:href="#DejaVuSans-6e"/>
      <use x="1034.423828" xlink:href="#DejaVuSans-20"/>
      <use x="1066.210938" xlink:href="#DejaVuSans-28"/>
      <use x="1105.224609" xlink:href="#DejaVuSans-31"/>
      <use x="1168.847656" xlink:href="#DejaVuSans-30"/>
      <use x="1232.470703" xlink:href="#DejaVuSans-5e"/>
      <use x="1316.259766" xlink:href="#DejaVuSans-28"/>
      <use x="1355.273438" xlink:href="#DejaVuSans-2d"/>
      <use x="1391.357422" xlink:href="#DejaVuSans-33"/>
      <use x="1454.980469" xlink:href="#DejaVuSans-29"/>
      <use x="1493.994141" xlink:href="#DejaVuSans-20"/>
      <use x="1525.78125" xlink:href="#DejaVuSans-73"/>
      <use x="1577.880859" xlink:href="#DejaVuSans-29"/>
     </g>
    </g>
   </g>
   <g id="patch_3">
    <path d="M 63.26875 288.910125 
L 63.26875 22.798125 
" style="fill:none;stroke:#000000;stroke-linecap:square;stroke-linejoin:miter;stroke-width:0.8;"/>
   </g>
   <g id="patch_4">
    <path d="M 420.38875 288.910125 
L 420.38875 22.798125 
" style="fill:none;stroke:#000000;stroke-linecap:square;stroke-linejoin:miter;stroke-width:0.8;"/>
   </g>
   <g id="patch_5">
    <path d="M 63.26875 288.910125 
L 420.38875 288.910125 
" style="fill:none;stroke:#000000;stroke-linecap:square;stroke-linejoin:miter;stroke-width:0.8;"/>
   </g>
   <g id="patch_6">
    <path d="M 63.26875 22.798125 
L 420.38875 22.798125 
" style="fill:none;stroke:#000000;stroke-linecap:square;stroke-linejoin:miter;stroke-width:0.8;"/>
   </g>
   <g id="text_17">
    <!-- Tiempos de ejecucin de algoritmos de Backtracking de acuerdo al orden -->
    <g transform="translate(20.820625 16.798125)scale(0.12 -0.12)">
     <defs>
      <path d="M 2906 1791 
Q 2906 2416 2648 2759 
Q 2391 3103 1925 3103 
Q 1463 3103 1205 2759 
Q 947 2416 947 1791 
Q 947 1169 1205 825 
Q 1463 481 1925 481 
Q 2391 481 2648 825 
Q 2906 1169 2906 1791 
z
M 3481 434 
Q 3481 -459 3084 -895 
Q 2688 -1331 1869 -1331 
Q 1566 -1331 1297 -1286 
Q 1028 -1241 775 -1147 
L 775 -588 
Q 1028 -725 1275 -790 
Q 1522 -856 1778 -856 
Q 2344 -856 2625 -561 
Q 2906 -266 2906 331 
L 2906 616 
Q 2728 306 2450 153 
Q 2172 0 1784 0 
Q 1141 0 747 490 
Q 353 981 353 1791 
Q 353 2603 747 3093 
Q 1141 3584 1784 3584 
Q 2172 3584 2450 3431 
Q 2728 3278 2906 2969 
L 2906 3500 
L 3481 3500 
L 3481 434 
z
" id="DejaVuSans-67" transform="scale(0.015625)"/>
      <path d="M 2631 2963 
Q 2534 3019 2420 3045 
Q 2306 3072 2169 3072 
Q 1681 3072 1420 2755 
Q 1159 2438 1159 1844 
L 1159 0 
L 581 0 
L 581 3500 
L 1159 3500 
L 1159 2956 
Q 1341 3275 1631 3429 
Q 1922 3584 2338 3584 
Q 2397 3584 2469 3576 
Q 2541 3569 2628 3553 
L 2631 2963 
z
" id="DejaVuSans-72" transform="scale(0.015625)"/>
      <path d="M 1259 2228 
L 1259 519 
L 2272 519 
Q 2781 519 3026 730 
Q 3272 941 3272 1375 
Q 3272 1813 3026 2020 
Q 2781 2228 2272 2228 
L 1259 2228 
z
M 1259 4147 
L 1259 2741 
L 2194 2741 
Q 2656 2741 2882 2914 
Q 3109 3088 3109 3444 
Q 3109 3797 2882 3972 
Q 2656 4147 2194 4147 
L 1259 4147 
z
M 628 4666 
L 2241 4666 
Q 2963 4666 3353 4366 
Q 3744 4066 3744 3513 
Q 3744 3084 3544 2831 
Q 3344 2578 2956 2516 
Q 3422 2416 3680 2098 
Q 3938 1781 3938 1306 
Q 3938 681 3513 340 
Q 3088 0 2303 0 
L 628 0 
L 628 4666 
z
" id="DejaVuSans-42" transform="scale(0.015625)"/>
      <path d="M 581 4863 
L 1159 4863 
L 1159 1991 
L 2875 3500 
L 3609 3500 
L 1753 1863 
L 3688 0 
L 2938 0 
L 1159 1709 
L 1159 0 
L 581 0 
L 581 4863 
z
" id="DejaVuSans-6b" transform="scale(0.015625)"/>
     </defs>
     <use xlink:href="#DejaVuSans-54"/>
     <use x="57.958984" xlink:href="#DejaVuSans-69"/>
     <use x="85.742188" xlink:href="#DejaVuSans-65"/>
     <use x="147.265625" xlink:href="#DejaVuSans-6d"/>
     <use x="244.677734" xlink:href="#DejaVuSans-70"/>
     <use x="308.154297" xlink:href="#DejaVuSans-6f"/>
     <use x="369.335938" xlink:href="#DejaVuSans-73"/>
     <use x="421.435547" xlink:href="#DejaVuSans-20"/>
     <use x="453.222656" xlink:href="#DejaVuSans-64"/>
     <use x="516.699219" xlink:href="#DejaVuSans-65"/>
     <use x="578.222656" xlink:href="#DejaVuSans-20"/>
     <use x="610.009766" xlink:href="#DejaVuSans-65"/>
     <use x="671.533203" xlink:href="#DejaVuSans-6a"/>
     <use x="699.316406" xlink:href="#DejaVuSans-65"/>
     <use x="760.839844" xlink:href="#DejaVuSans-63"/>
     <use x="815.820312" xlink:href="#DejaVuSans-75"/>
     <use x="879.199219" xlink:href="#DejaVuSans-63"/>
     <use x="934.179688" xlink:href="#DejaVuSans-69"/>
     <use x="961.962891" xlink:href="#DejaVuSans-f3"/>
     <use x="1023.144531" xlink:href="#DejaVuSans-6e"/>
     <use x="1086.523438" xlink:href="#DejaVuSans-20"/>
     <use x="1118.310547" xlink:href="#DejaVuSans-64"/>
     <use x="1181.787109" xlink:href="#DejaVuSans-65"/>
     <use x="1243.310547" xlink:href="#DejaVuSans-20"/>
     <use x="1275.097656" xlink:href="#DejaVuSans-61"/>
     <use x="1336.376953" xlink:href="#DejaVuSans-6c"/>
     <use x="1364.160156" xlink:href="#DejaVuSans-67"/>
     <use x="1427.636719" xlink:href="#DejaVuSans-6f"/>
     <use x="1488.818359" xlink:href="#DejaVuSans-72"/>
     <use x="1529.931641" xlink:href="#DejaVuSans-69"/>
     <use x="1557.714844" xlink:href="#DejaVuSans-74"/>
     <use x="1596.923828" xlink:href="#DejaVuSans-6d"/>
     <use x="1694.335938" xlink:href="#DejaVuSans-6f"/>
     <use x="1755.517578" xlink:href="#DejaVuSans-73"/>
     <use x="1807.617188" xlink:href="#DejaVuSans-20"/>
     <use x="1839.404297" xlink:href="#DejaVuSans-64"/>
     <use x="1902.880859" xlink:href="#DejaVuSans-65"/>
     <use x="1964.404297" xlink:href="#DejaVuSans-20"/>
     <use x="1996.191406" xlink:href="#DejaVuSans-42"/>
     <use x="2064.794922" xlink:href="#DejaVuSans-61"/>
     <use x="2126.074219" xlink:href="#DejaVuSans-63"/>
     <use x="2181.054688" xlink:href="#DejaVuSans-6b"/>
     <use x="2238.964844" xlink:href="#DejaVuSans-74"/>
     <use x="2278.173828" xlink:href="#DejaVuSans-72"/>
     <use x="2319.287109" xlink:href="#DejaVuSans-61"/>
     <use x="2380.566406" xlink:href="#DejaVuSans-63"/>
     <use x="2435.546875" xlink:href="#DejaVuSans-6b"/>
     <use x="2493.457031" xlink:href="#DejaVuSans-69"/>
     <use x="2521.240234" xlink:href="#DejaVuSans-6e"/>
     <use x="2584.619141" xlink:href="#DejaVuSans-67"/>
     <use x="2648.095703" xlink:href="#DejaVuSans-20"/>
     <use x="2679.882812" xlink:href="#DejaVuSans-64"/>
     <use x="2743.359375" xlink:href="#DejaVuSans-65"/>
     <use x="2804.882812" xlink:href="#DejaVuSans-20"/>
     <use x="2836.669922" xlink:href="#DejaVuSans-61"/>
     <use x="2897.949219" xlink:href="#DejaVuSans-63"/>
     <use x="2952.929688" xlink:href="#DejaVuSans-75"/>
     <use x="3016.308594" xlink:href="#DejaVuSans-65"/>
     <use x="3077.832031" xlink:href="#DejaVuSans-72"/>
     <use x="3117.195312" xlink:href="#DejaVuSans-64"/>
     <use x="3180.671875" xlink:href="#DejaVuSans-6f"/>
     <use x="3241.853516" xlink:href="#DejaVuSans-20"/>
     <use x="3273.640625" xlink:href="#DejaVuSans-61"/>
     <use x="3334.919922" xlink:href="#DejaVuSans-6c"/>
     <use x="3362.703125" xlink:href="#DejaVuSans-20"/>
     <use x="3394.490234" xlink:href="#DejaVuSans-6f"/>
     <use x="3455.671875" xlink:href="#DejaVuSans-72"/>
     <use x="3495.035156" xlink:href="#DejaVuSans-64"/>
     <use x="3558.511719" xlink:href="#DejaVuSans-65"/>
     <use x="3620.035156" xlink:href="#DejaVuSans-6e"/>
    </g>
   </g>
   <g id="legend_1">
    <g id="patch_7">
     <path d="M 70.26875 118.866875 
L 277.817188 118.866875 
Q 279.817188 118.866875 279.817188 116.866875 
L 279.817188 29.798125 
Q 279.817188 27.798125 277.817188 27.798125 
L 70.26875 27.798125 
Q 68.26875 27.798125 68.26875 29.798125 
L 68.26875 116.866875 
Q 68.26875 118.866875 70.26875 118.866875 
z
" style="fill:#ffffff;opacity:0.8;stroke:#cccccc;stroke-linejoin:miter;"/>
    </g>
    <g id="text_18">
     <!-- Familia -->
     <g transform="translate(80.26875 39.396562)scale(0.1 -0.1)">
      <defs>
       <path d="M 628 4666 
L 3309 4666 
L 3309 4134 
L 1259 4134 
L 1259 2759 
L 3109 2759 
L 3109 2228 
L 1259 2228 
L 1259 0 
L 628 0 
L 628 4666 
z
" id="DejaVuSans-46" transform="scale(0.015625)"/>
      </defs>
      <use xlink:href="#DejaVuSans-46"/>
      <use x="48.394531" xlink:href="#DejaVuSans-61"/>
      <use x="109.673828" xlink:href="#DejaVuSans-6d"/>
      <use x="207.085938" xlink:href="#DejaVuSans-69"/>
      <use x="234.869141" xlink:href="#DejaVuSans-6c"/>
      <use x="262.652344" xlink:href="#DejaVuSans-69"/>
      <use x="290.435547" xlink:href="#DejaVuSans-61"/>
     </g>
    </g>
    <g id="PathCollection_6">
     <defs>
      <path d="M 0 3 
C 0.795609 3 1.55874 2.683901 2.12132 2.12132 
C 2.683901 1.55874 3 0.795609 3 0 
C 3 -0.795609 2.683901 -1.55874 2.12132 -2.12132 
C 1.55874 -2.683901 0.795609 -3 0 -3 
C -0.795609 -3 -1.55874 -2.683901 -2.12132 -2.12132 
C -2.683901 -1.55874 -3 -0.795609 -3 0 
C -3 0.795609 -2.683901 1.55874 -2.12132 2.12132 
C -1.55874 2.683901 -0.795609 3 0 3 
z
" id="m9a940f025b" style="stroke:#1f77b4;"/>
     </defs>
     <g>
      <use style="fill:#1f77b4;stroke:#1f77b4;" x="82.26875" xlink:href="#m9a940f025b" y="51.449687"/>
     </g>
    </g>
    <g id="text_19">
     <!-- ordenadoPorBeneficioDescendente -->
     <g transform="translate(100.26875 54.074687)scale(0.1 -0.1)">
      <defs>
       <path d="M 1259 4147 
L 1259 2394 
L 2053 2394 
Q 2494 2394 2734 2622 
Q 2975 2850 2975 3272 
Q 2975 3691 2734 3919 
Q 2494 4147 2053 4147 
L 1259 4147 
z
M 628 4666 
L 2053 4666 
Q 2838 4666 3239 4311 
Q 3641 3956 3641 3272 
Q 3641 2581 3239 2228 
Q 2838 1875 2053 1875 
L 1259 1875 
L 1259 0 
L 628 0 
L 628 4666 
z
" id="DejaVuSans-50" transform="scale(0.015625)"/>
       <path d="M 2375 4863 
L 2375 4384 
L 1825 4384 
Q 1516 4384 1395 4259 
Q 1275 4134 1275 3809 
L 1275 3500 
L 2222 3500 
L 2222 3053 
L 1275 3053 
L 1275 0 
L 697 0 
L 697 3053 
L 147 3053 
L 147 3500 
L 697 3500 
L 697 3744 
Q 697 4328 969 4595 
Q 1241 4863 1831 4863 
L 2375 4863 
z
" id="DejaVuSans-66" transform="scale(0.015625)"/>
       <path d="M 1259 4147 
L 1259 519 
L 2022 519 
Q 2988 519 3436 956 
Q 3884 1394 3884 2338 
Q 3884 3275 3436 3711 
Q 2988 4147 2022 4147 
L 1259 4147 
z
M 628 4666 
L 1925 4666 
Q 3281 4666 3915 4102 
Q 4550 3538 4550 2338 
Q 4550 1131 3912 565 
Q 3275 0 1925 0 
L 628 0 
L 628 4666 
z
" id="DejaVuSans-44" transform="scale(0.015625)"/>
      </defs>
      <use xlink:href="#DejaVuSans-6f"/>
      <use x="61.181641" xlink:href="#DejaVuSans-72"/>
      <use x="100.544922" xlink:href="#DejaVuSans-64"/>
      <use x="164.021484" xlink:href="#DejaVuSans-65"/>
      <use x="225.544922" xlink:href="#DejaVuSans-6e"/>
      <use x="288.923828" xlink:href="#DejaVuSans-61"/>
      <use x="350.203125" xlink:href="#DejaVuSans-64"/>
      <use x="413.679688" xlink:href="#DejaVuSans-6f"/>
      <use x="474.861328" xlink:href="#DejaVuSans-50"/>
      <use x="531.539062" xlink:href="#DejaVuSans-6f"/>
      <use x="592.720703" xlink:href="#DejaVuSans-72"/>
      <use x="633.833984" xlink:href="#DejaVuSans-42"/>
      <use x="702.4375" xlink:href="#DejaVuSans-65"/>
      <use x="763.960938" xlink:href="#DejaVuSans-6e"/>
      <use x="827.339844" xlink:href="#DejaVuSans-65"/>
      <use x="888.863281" xlink:href="#DejaVuSans-66"/>
      <use x="924.068359" xlink:href="#DejaVuSans-69"/>
      <use x="951.851562" xlink:href="#DejaVuSans-63"/>
      <use x="1006.832031" xlink:href="#DejaVuSans-69"/>
      <use x="1034.615234" xlink:href="#DejaVuSans-6f"/>
      <use x="1095.796875" xlink:href="#DejaVuSans-44"/>
      <use x="1172.798828" xlink:href="#DejaVuSans-65"/>
      <use x="1234.322266" xlink:href="#DejaVuSans-73"/>
      <use x="1286.421875" xlink:href="#DejaVuSans-63"/>
      <use x="1341.402344" xlink:href="#DejaVuSans-65"/>
      <use x="1402.925781" xlink:href="#DejaVuSans-6e"/>
      <use x="1466.304688" xlink:href="#DejaVuSans-64"/>
      <use x="1529.78125" xlink:href="#DejaVuSans-65"/>
      <use x="1591.304688" xlink:href="#DejaVuSans-6e"/>
      <use x="1654.683594" xlink:href="#DejaVuSans-74"/>
      <use x="1693.892578" xlink:href="#DejaVuSans-65"/>
     </g>
    </g>
    <g id="PathCollection_7">
     <defs>
      <path d="M 0 3 
C 0.795609 3 1.55874 2.683901 2.12132 2.12132 
C 2.683901 1.55874 3 0.795609 3 0 
C 3 -0.795609 2.683901 -1.55874 2.12132 -2.12132 
C 1.55874 -2.683901 0.795609 -3 0 -3 
C -0.795609 -3 -1.55874 -2.683901 -2.12132 -2.12132 
C -2.683901 -1.55874 -3 -0.795609 -3 0 
C -3 0.795609 -2.683901 1.55874 -2.12132 2.12132 
C -1.55874 2.683901 -0.795609 3 0 3 
z
" id="m72db69b36e" style="stroke:#ff7f0e;"/>
     </defs>
     <g>
      <use style="fill:#ff7f0e;stroke:#ff7f0e;" x="82.26875" xlink:href="#m72db69b36e" y="66.127812"/>
     </g>
    </g>
    <g id="text_20">
     <!-- ordenadoPorBeneficioAscendente -->
     <g transform="translate(100.26875 68.752812)scale(0.1 -0.1)">
      <defs>
       <path d="M 2188 4044 
L 1331 1722 
L 3047 1722 
L 2188 4044 
z
M 1831 4666 
L 2547 4666 
L 4325 0 
L 3669 0 
L 3244 1197 
L 1141 1197 
L 716 0 
L 50 0 
L 1831 4666 
z
" id="DejaVuSans-41" transform="scale(0.015625)"/>
      </defs>
      <use xlink:href="#DejaVuSans-6f"/>
      <use x="61.181641" xlink:href="#DejaVuSans-72"/>
      <use x="100.544922" xlink:href="#DejaVuSans-64"/>
      <use x="164.021484" xlink:href="#DejaVuSans-65"/>
      <use x="225.544922" xlink:href="#DejaVuSans-6e"/>
      <use x="288.923828" xlink:href="#DejaVuSans-61"/>
      <use x="350.203125" xlink:href="#DejaVuSans-64"/>
      <use x="413.679688" xlink:href="#DejaVuSans-6f"/>
      <use x="474.861328" xlink:href="#DejaVuSans-50"/>
      <use x="531.539062" xlink:href="#DejaVuSans-6f"/>
      <use x="592.720703" xlink:href="#DejaVuSans-72"/>
      <use x="633.833984" xlink:href="#DejaVuSans-42"/>
      <use x="702.4375" xlink:href="#DejaVuSans-65"/>
      <use x="763.960938" xlink:href="#DejaVuSans-6e"/>
      <use x="827.339844" xlink:href="#DejaVuSans-65"/>
      <use x="888.863281" xlink:href="#DejaVuSans-66"/>
      <use x="924.068359" xlink:href="#DejaVuSans-69"/>
      <use x="951.851562" xlink:href="#DejaVuSans-63"/>
      <use x="1006.832031" xlink:href="#DejaVuSans-69"/>
      <use x="1034.615234" xlink:href="#DejaVuSans-6f"/>
      <use x="1095.796875" xlink:href="#DejaVuSans-41"/>
      <use x="1164.205078" xlink:href="#DejaVuSans-73"/>
      <use x="1216.304688" xlink:href="#DejaVuSans-63"/>
      <use x="1271.285156" xlink:href="#DejaVuSans-65"/>
      <use x="1332.808594" xlink:href="#DejaVuSans-6e"/>
      <use x="1396.1875" xlink:href="#DejaVuSans-64"/>
      <use x="1459.664062" xlink:href="#DejaVuSans-65"/>
      <use x="1521.1875" xlink:href="#DejaVuSans-6e"/>
      <use x="1584.566406" xlink:href="#DejaVuSans-74"/>
      <use x="1623.775391" xlink:href="#DejaVuSans-65"/>
     </g>
    </g>
    <g id="PathCollection_8">
     <defs>
      <path d="M 0 3 
C 0.795609 3 1.55874 2.683901 2.12132 2.12132 
C 2.683901 1.55874 3 0.795609 3 0 
C 3 -0.795609 2.683901 -1.55874 2.12132 -2.12132 
C 1.55874 -2.683901 0.795609 -3 0 -3 
C -0.795609 -3 -1.55874 -2.683901 -2.12132 -2.12132 
C -2.683901 -1.55874 -3 -0.795609 -3 0 
C -3 0.795609 -2.683901 1.55874 -2.12132 2.12132 
C -1.55874 2.683901 -0.795609 3 0 3 
z
" id="m0d6ea77e71" style="stroke:#2ca02c;"/>
     </defs>
     <g>
      <use style="fill:#2ca02c;stroke:#2ca02c;" x="82.26875" xlink:href="#m0d6ea77e71" y="80.805937"/>
     </g>
    </g>
    <g id="text_21">
     <!-- casoRandom -->
     <g transform="translate(100.26875 83.430937)scale(0.1 -0.1)">
      <defs>
       <path d="M 2841 2188 
Q 3044 2119 3236 1894 
Q 3428 1669 3622 1275 
L 4263 0 
L 3584 0 
L 2988 1197 
Q 2756 1666 2539 1819 
Q 2322 1972 1947 1972 
L 1259 1972 
L 1259 0 
L 628 0 
L 628 4666 
L 2053 4666 
Q 2853 4666 3247 4331 
Q 3641 3997 3641 3322 
Q 3641 2881 3436 2590 
Q 3231 2300 2841 2188 
z
M 1259 4147 
L 1259 2491 
L 2053 2491 
Q 2509 2491 2742 2702 
Q 2975 2913 2975 3322 
Q 2975 3731 2742 3939 
Q 2509 4147 2053 4147 
L 1259 4147 
z
" id="DejaVuSans-52" transform="scale(0.015625)"/>
      </defs>
      <use xlink:href="#DejaVuSans-63"/>
      <use x="54.980469" xlink:href="#DejaVuSans-61"/>
      <use x="116.259766" xlink:href="#DejaVuSans-73"/>
      <use x="168.359375" xlink:href="#DejaVuSans-6f"/>
      <use x="229.541016" xlink:href="#DejaVuSans-52"/>
      <use x="296.773438" xlink:href="#DejaVuSans-61"/>
      <use x="358.052734" xlink:href="#DejaVuSans-6e"/>
      <use x="421.431641" xlink:href="#DejaVuSans-64"/>
      <use x="484.908203" xlink:href="#DejaVuSans-6f"/>
      <use x="546.089844" xlink:href="#DejaVuSans-6d"/>
     </g>
    </g>
    <g id="text_22">
     <!-- Algoritmo  -->
     <g transform="translate(80.26875 98.109062)scale(0.1 -0.1)">
      <use xlink:href="#DejaVuSans-41"/>
      <use x="68.408203" xlink:href="#DejaVuSans-6c"/>
      <use x="96.191406" xlink:href="#DejaVuSans-67"/>
      <use x="159.667969" xlink:href="#DejaVuSans-6f"/>
      <use x="220.849609" xlink:href="#DejaVuSans-72"/>
      <use x="261.962891" xlink:href="#DejaVuSans-69"/>
      <use x="289.746094" xlink:href="#DejaVuSans-74"/>
      <use x="328.955078" xlink:href="#DejaVuSans-6d"/>
      <use x="426.367188" xlink:href="#DejaVuSans-6f"/>
      <use x="487.548828" xlink:href="#DejaVuSans-20"/>
     </g>
    </g>
    <g id="PathCollection_9">
     <defs>
      <path d="M 0 3 
C 0.795609 3 1.55874 2.683901 2.12132 2.12132 
C 2.683901 1.55874 3 0.795609 3 0 
C 3 -0.795609 2.683901 -1.55874 2.12132 -2.12132 
C 1.55874 -2.683901 0.795609 -3 0 -3 
C -0.795609 -3 -1.55874 -2.683901 -2.12132 -2.12132 
C -2.683901 -1.55874 -3 -0.795609 -3 0 
C -3 0.795609 -2.683901 1.55874 -2.12132 2.12132 
C -1.55874 2.683901 -0.795609 3 0 3 
z
" id="m80db5509e6" style="stroke:#333333;"/>
     </defs>
     <g>
      <use style="fill:#333333;stroke:#333333;" x="82.26875" xlink:href="#m80db5509e6" y="110.162187"/>
     </g>
    </g>
    <g id="text_23">
     <!-- BT -->
     <g transform="translate(100.26875 112.787187)scale(0.1 -0.1)">
      <use xlink:href="#DejaVuSans-42"/>
      <use x="68.603516" xlink:href="#DejaVuSans-54"/>
     </g>
    </g>
   </g>
  </g>
 </g>
 <defs>
  <clipPath id="p8044349f21">
   <rect height="266.112" width="357.12" x="63.26875" y="22.798125"/>
  </clipPath>
 </defs>
</svg>
