<?xml version="1.0" encoding="utf-8" standalone="no"?>
<!DOCTYPE svg PUBLIC "-//W3C//DTD SVG 1.1//EN"
  "http://www.w3.org/Graphics/SVG/1.1/DTD/svg11.dtd">
<svg height="367.634375pt" version="1.1" viewBox="0 0 389.0775 367.634375" width="389.0775pt" xmlns="http://www.w3.org/2000/svg" xmlns:xlink="http://www.w3.org/1999/xlink">
 <metadata>
  <rdf:RDF xmlns:cc="http://creativecommons.org/ns#" xmlns:dc="http://purl.org/dc/elements/1.1/" xmlns:rdf="http://www.w3.org/1999/02/22-rdf-syntax-ns#">
   <cc:Work>
    <dc:type rdf:resource="http://purl.org/dc/dcmitype/StillImage"/>
    <dc:date>2021-09-12T20:39:51.411141</dc:date>
    <dc:format>image/svg+xml</dc:format>
    <dc:creator>
     <cc:Agent>
      <dc:title>Matplotlib v3.4.3, https://matplotlib.org/</dc:title>
     </cc:Agent>
    </dc:creator>
   </cc:Work>
  </rdf:RDF>
 </metadata>
 <defs>
  <style type="text/css">*{stroke-linecap:butt;stroke-linejoin:round;}</style>
 </defs>
 <g id="figure_1">
  <g id="patch_1">
   <path d="M 0 367.634375 
L 389.0775 367.634375 
L 389.0775 0 
L 0 0 
z
" style="fill:#ffffff;"/>
  </g>
  <g id="axes_1">
   <g id="patch_2">
    <path d="M 51.126148 329.678125 
L 337.951352 329.678125 
L 337.951352 22.798125 
L 51.126148 22.798125 
z
" style="fill:#ffffff;"/>
   </g>
   <g id="PathCollection_1">
    <defs>
     <path d="M 0 3 
C 0.795609 3 1.55874 2.683901 2.12132 2.12132 
C 2.683901 1.55874 3 0.795609 3 0 
C 3 -0.795609 2.683901 -1.55874 2.12132 -2.12132 
C 1.55874 -2.683901 0.795609 -3 0 -3 
C -0.795609 -3 -1.55874 -2.683901 -2.12132 -2.12132 
C -2.683901 -1.55874 -3 -0.795609 -3 0 
C -3 0.795609 -2.683901 1.55874 -2.12132 2.12132 
C -1.55874 2.683901 -0.795609 3 0 3 
z
" id="m6b3913587d" style="stroke:#1f77b4;stroke-opacity:0.8;"/>
    </defs>
    <g clip-path="url(#p6f6b7f1096)">
     <use style="fill:#1f77b4;fill-opacity:0.8;stroke:#1f77b4;stroke-opacity:0.8;" x="82.24194" xlink:href="#m6b3913587d" y="222.15247"/>
     <use style="fill:#1f77b4;fill-opacity:0.8;stroke:#1f77b4;stroke-opacity:0.8;" x="91.926832" xlink:href="#m6b3913587d" y="220.335604"/>
     <use style="fill:#1f77b4;fill-opacity:0.8;stroke:#1f77b4;stroke-opacity:0.8;" x="93.335848" xlink:href="#m6b3913587d" y="218.518739"/>
     <use style="fill:#1f77b4;fill-opacity:0.8;stroke:#1f77b4;stroke-opacity:0.8;" x="94.277181" xlink:href="#m6b3913587d" y="216.701873"/>
     <use style="fill:#1f77b4;fill-opacity:0.8;stroke:#1f77b4;stroke-opacity:0.8;" x="100.415195" xlink:href="#m6b3913587d" y="214.885007"/>
     <use style="fill:#1f77b4;fill-opacity:0.8;stroke:#1f77b4;stroke-opacity:0.8;" x="94.255718" xlink:href="#m6b3913587d" y="213.068142"/>
     <use style="fill:#1f77b4;fill-opacity:0.8;stroke:#1f77b4;stroke-opacity:0.8;" x="104.076497" xlink:href="#m6b3913587d" y="211.251276"/>
     <use style="fill:#1f77b4;fill-opacity:0.8;stroke:#1f77b4;stroke-opacity:0.8;" x="106.592631" xlink:href="#m6b3913587d" y="209.434411"/>
     <use style="fill:#1f77b4;fill-opacity:0.8;stroke:#1f77b4;stroke-opacity:0.8;" x="111.357977" xlink:href="#m6b3913587d" y="207.617545"/>
     <use style="fill:#1f77b4;fill-opacity:0.8;stroke:#1f77b4;stroke-opacity:0.8;" x="116.866844" xlink:href="#m6b3913587d" y="205.80068"/>
     <use style="fill:#1f77b4;fill-opacity:0.8;stroke:#1f77b4;stroke-opacity:0.8;" x="115.125354" xlink:href="#m6b3913587d" y="203.983814"/>
     <use style="fill:#1f77b4;fill-opacity:0.8;stroke:#1f77b4;stroke-opacity:0.8;" x="106.498251" xlink:href="#m6b3913587d" y="202.166948"/>
     <use style="fill:#1f77b4;fill-opacity:0.8;stroke:#1f77b4;stroke-opacity:0.8;" x="120.611923" xlink:href="#m6b3913587d" y="200.350083"/>
     <use style="fill:#1f77b4;fill-opacity:0.8;stroke:#1f77b4;stroke-opacity:0.8;" x="124.887021" xlink:href="#m6b3913587d" y="198.533217"/>
     <use style="fill:#1f77b4;fill-opacity:0.8;stroke:#1f77b4;stroke-opacity:0.8;" x="126.913907" xlink:href="#m6b3913587d" y="196.716352"/>
     <use style="fill:#1f77b4;fill-opacity:0.8;stroke:#1f77b4;stroke-opacity:0.8;" x="126.209156" xlink:href="#m6b3913587d" y="194.899486"/>
     <use style="fill:#1f77b4;fill-opacity:0.8;stroke:#1f77b4;stroke-opacity:0.8;" x="127.036219" xlink:href="#m6b3913587d" y="193.08262"/>
     <use style="fill:#1f77b4;fill-opacity:0.8;stroke:#1f77b4;stroke-opacity:0.8;" x="124.703093" xlink:href="#m6b3913587d" y="191.265755"/>
     <use style="fill:#1f77b4;fill-opacity:0.8;stroke:#1f77b4;stroke-opacity:0.8;" x="141.445745" xlink:href="#m6b3913587d" y="189.448889"/>
     <use style="fill:#1f77b4;fill-opacity:0.8;stroke:#1f77b4;stroke-opacity:0.8;" x="143.187236" xlink:href="#m6b3913587d" y="187.632024"/>
     <use style="fill:#1f77b4;fill-opacity:0.8;stroke:#1f77b4;stroke-opacity:0.8;" x="142.028184" xlink:href="#m6b3913587d" y="185.815158"/>
     <use style="fill:#1f77b4;fill-opacity:0.8;stroke:#1f77b4;stroke-opacity:0.8;" x="151.236535" xlink:href="#m6b3913587d" y="183.998293"/>
     <use style="fill:#1f77b4;fill-opacity:0.8;stroke:#1f77b4;stroke-opacity:0.8;" x="147.010268" xlink:href="#m6b3913587d" y="182.181427"/>
     <use style="fill:#1f77b4;fill-opacity:0.8;stroke:#1f77b4;stroke-opacity:0.8;" x="145.810091" xlink:href="#m6b3913587d" y="180.364561"/>
     <use style="fill:#1f77b4;fill-opacity:0.8;stroke:#1f77b4;stroke-opacity:0.8;" x="147.38091" xlink:href="#m6b3913587d" y="178.547696"/>
     <use style="fill:#1f77b4;fill-opacity:0.8;stroke:#1f77b4;stroke-opacity:0.8;" x="139.61385" xlink:href="#m6b3913587d" y="176.73083"/>
     <use style="fill:#1f77b4;fill-opacity:0.8;stroke:#1f77b4;stroke-opacity:0.8;" x="154.288512" xlink:href="#m6b3913587d" y="174.913965"/>
     <use style="fill:#1f77b4;fill-opacity:0.8;stroke:#1f77b4;stroke-opacity:0.8;" x="164.044355" xlink:href="#m6b3913587d" y="173.097099"/>
     <use style="fill:#1f77b4;fill-opacity:0.8;stroke:#1f77b4;stroke-opacity:0.8;" x="154.625356" xlink:href="#m6b3913587d" y="171.280234"/>
     <use style="fill:#1f77b4;fill-opacity:0.8;stroke:#1f77b4;stroke-opacity:0.8;" x="161.883509" xlink:href="#m6b3913587d" y="169.463368"/>
     <use style="fill:#1f77b4;fill-opacity:0.8;stroke:#1f77b4;stroke-opacity:0.8;" x="158.627678" xlink:href="#m6b3913587d" y="167.646502"/>
     <use style="fill:#1f77b4;fill-opacity:0.8;stroke:#1f77b4;stroke-opacity:0.8;" x="161.027324" xlink:href="#m6b3913587d" y="165.829637"/>
     <use style="fill:#1f77b4;fill-opacity:0.8;stroke:#1f77b4;stroke-opacity:0.8;" x="160.299276" xlink:href="#m6b3913587d" y="164.012771"/>
     <use style="fill:#1f77b4;fill-opacity:0.8;stroke:#1f77b4;stroke-opacity:0.8;" x="170.713275" xlink:href="#m6b3913587d" y="162.195906"/>
     <use style="fill:#1f77b4;fill-opacity:0.8;stroke:#1f77b4;stroke-opacity:0.8;" x="179.673884" xlink:href="#m6b3913587d" y="160.37904"/>
     <use style="fill:#1f77b4;fill-opacity:0.8;stroke:#1f77b4;stroke-opacity:0.8;" x="170.410407" xlink:href="#m6b3913587d" y="158.562174"/>
     <use style="fill:#1f77b4;fill-opacity:0.8;stroke:#1f77b4;stroke-opacity:0.8;" x="172.743455" xlink:href="#m6b3913587d" y="156.745309"/>
     <use style="fill:#1f77b4;fill-opacity:0.8;stroke:#1f77b4;stroke-opacity:0.8;" x="173.019731" xlink:href="#m6b3913587d" y="154.928443"/>
     <use style="fill:#1f77b4;fill-opacity:0.8;stroke:#1f77b4;stroke-opacity:0.8;" x="176.57843" xlink:href="#m6b3913587d" y="153.111578"/>
     <use style="fill:#1f77b4;fill-opacity:0.8;stroke:#1f77b4;stroke-opacity:0.8;" x="189.528271" xlink:href="#m6b3913587d" y="151.294712"/>
     <use style="fill:#1f77b4;fill-opacity:0.8;stroke:#1f77b4;stroke-opacity:0.8;" x="177.267649" xlink:href="#m6b3913587d" y="149.477847"/>
     <use style="fill:#1f77b4;fill-opacity:0.8;stroke:#1f77b4;stroke-opacity:0.8;" x="170.672811" xlink:href="#m6b3913587d" y="147.660981"/>
     <use style="fill:#1f77b4;fill-opacity:0.8;stroke:#1f77b4;stroke-opacity:0.8;" x="190.699031" xlink:href="#m6b3913587d" y="145.844115"/>
     <use style="fill:#1f77b4;fill-opacity:0.8;stroke:#1f77b4;stroke-opacity:0.8;" x="175.090733" xlink:href="#m6b3913587d" y="144.02725"/>
     <use style="fill:#1f77b4;fill-opacity:0.8;stroke:#1f77b4;stroke-opacity:0.8;" x="165.287305" xlink:href="#m6b3913587d" y="142.210384"/>
     <use style="fill:#1f77b4;fill-opacity:0.8;stroke:#1f77b4;stroke-opacity:0.8;" x="183.198112" xlink:href="#m6b3913587d" y="140.393519"/>
     <use style="fill:#1f77b4;fill-opacity:0.8;stroke:#1f77b4;stroke-opacity:0.8;" x="198.394278" xlink:href="#m6b3913587d" y="138.576653"/>
     <use style="fill:#1f77b4;fill-opacity:0.8;stroke:#1f77b4;stroke-opacity:0.8;" x="204.784361" xlink:href="#m6b3913587d" y="136.759788"/>
     <use style="fill:#1f77b4;fill-opacity:0.8;stroke:#1f77b4;stroke-opacity:0.8;" x="205.706174" xlink:href="#m6b3913587d" y="134.942922"/>
     <use style="fill:#1f77b4;fill-opacity:0.8;stroke:#1f77b4;stroke-opacity:0.8;" x="204.599541" xlink:href="#m6b3913587d" y="133.126056"/>
     <use style="fill:#1f77b4;fill-opacity:0.8;stroke:#1f77b4;stroke-opacity:0.8;" x="217.104494" xlink:href="#m6b3913587d" y="131.309191"/>
     <use style="fill:#1f77b4;fill-opacity:0.8;stroke:#1f77b4;stroke-opacity:0.8;" x="205.112087" xlink:href="#m6b3913587d" y="129.492325"/>
     <use style="fill:#1f77b4;fill-opacity:0.8;stroke:#1f77b4;stroke-opacity:0.8;" x="212.206187" xlink:href="#m6b3913587d" y="127.67546"/>
     <use style="fill:#1f77b4;fill-opacity:0.8;stroke:#1f77b4;stroke-opacity:0.8;" x="221.606743" xlink:href="#m6b3913587d" y="125.858594"/>
     <use style="fill:#1f77b4;fill-opacity:0.8;stroke:#1f77b4;stroke-opacity:0.8;" x="220.662251" xlink:href="#m6b3913587d" y="124.041728"/>
     <use style="fill:#1f77b4;fill-opacity:0.8;stroke:#1f77b4;stroke-opacity:0.8;" x="235.107665" xlink:href="#m6b3913587d" y="122.224863"/>
     <use style="fill:#1f77b4;fill-opacity:0.8;stroke:#1f77b4;stroke-opacity:0.8;" x="227.617507" xlink:href="#m6b3913587d" y="120.407997"/>
     <use style="fill:#1f77b4;fill-opacity:0.8;stroke:#1f77b4;stroke-opacity:0.8;" x="220.867046" xlink:href="#m6b3913587d" y="118.591132"/>
     <use style="fill:#1f77b4;fill-opacity:0.8;stroke:#1f77b4;stroke-opacity:0.8;" x="233.331228" xlink:href="#m6b3913587d" y="116.774266"/>
     <use style="fill:#1f77b4;fill-opacity:0.8;stroke:#1f77b4;stroke-opacity:0.8;" x="238.351847" xlink:href="#m6b3913587d" y="114.957401"/>
     <use style="fill:#1f77b4;fill-opacity:0.8;stroke:#1f77b4;stroke-opacity:0.8;" x="217.445993" xlink:href="#m6b3913587d" y="113.140535"/>
     <use style="fill:#1f77b4;fill-opacity:0.8;stroke:#1f77b4;stroke-opacity:0.8;" x="237.711812" xlink:href="#m6b3913587d" y="111.323669"/>
     <use style="fill:#1f77b4;fill-opacity:0.8;stroke:#1f77b4;stroke-opacity:0.8;" x="232.869925" xlink:href="#m6b3913587d" y="109.506804"/>
     <use style="fill:#1f77b4;fill-opacity:0.8;stroke:#1f77b4;stroke-opacity:0.8;" x="231.322639" xlink:href="#m6b3913587d" y="107.689938"/>
     <use style="fill:#1f77b4;fill-opacity:0.8;stroke:#1f77b4;stroke-opacity:0.8;" x="249.464772" xlink:href="#m6b3913587d" y="105.873073"/>
     <use style="fill:#1f77b4;fill-opacity:0.8;stroke:#1f77b4;stroke-opacity:0.8;" x="242.411443" xlink:href="#m6b3913587d" y="104.056207"/>
     <use style="fill:#1f77b4;fill-opacity:0.8;stroke:#1f77b4;stroke-opacity:0.8;" x="249.924898" xlink:href="#m6b3913587d" y="102.239341"/>
     <use style="fill:#1f77b4;fill-opacity:0.8;stroke:#1f77b4;stroke-opacity:0.8;" x="247.845593" xlink:href="#m6b3913587d" y="100.422476"/>
     <use style="fill:#1f77b4;fill-opacity:0.8;stroke:#1f77b4;stroke-opacity:0.8;" x="252.021676" xlink:href="#m6b3913587d" y="98.60561"/>
     <use style="fill:#1f77b4;fill-opacity:0.8;stroke:#1f77b4;stroke-opacity:0.8;" x="256.564696" xlink:href="#m6b3913587d" y="96.788745"/>
     <use style="fill:#1f77b4;fill-opacity:0.8;stroke:#1f77b4;stroke-opacity:0.8;" x="254.782434" xlink:href="#m6b3913587d" y="94.971879"/>
     <use style="fill:#1f77b4;fill-opacity:0.8;stroke:#1f77b4;stroke-opacity:0.8;" x="249.517191" xlink:href="#m6b3913587d" y="93.155014"/>
     <use style="fill:#1f77b4;fill-opacity:0.8;stroke:#1f77b4;stroke-opacity:0.8;" x="262.321305" xlink:href="#m6b3913587d" y="91.338148"/>
     <use style="fill:#1f77b4;fill-opacity:0.8;stroke:#1f77b4;stroke-opacity:0.8;" x="270.28112" xlink:href="#m6b3913587d" y="89.521282"/>
     <use style="fill:#1f77b4;fill-opacity:0.8;stroke:#1f77b4;stroke-opacity:0.8;" x="258.285419" xlink:href="#m6b3913587d" y="87.704417"/>
     <use style="fill:#1f77b4;fill-opacity:0.8;stroke:#1f77b4;stroke-opacity:0.8;" x="269.663736" xlink:href="#m6b3913587d" y="85.887551"/>
     <use style="fill:#1f77b4;fill-opacity:0.8;stroke:#1f77b4;stroke-opacity:0.8;" x="265.534247" xlink:href="#m6b3913587d" y="84.070686"/>
     <use style="fill:#1f77b4;fill-opacity:0.8;stroke:#1f77b4;stroke-opacity:0.8;" x="260.809319" xlink:href="#m6b3913587d" y="82.25382"/>
     <use style="fill:#1f77b4;fill-opacity:0.8;stroke:#1f77b4;stroke-opacity:0.8;" x="284.684822" xlink:href="#m6b3913587d" y="80.436955"/>
     <use style="fill:#1f77b4;fill-opacity:0.8;stroke:#1f77b4;stroke-opacity:0.8;" x="273.018581" xlink:href="#m6b3913587d" y="78.620089"/>
     <use style="fill:#1f77b4;fill-opacity:0.8;stroke:#1f77b4;stroke-opacity:0.8;" x="266.058442" xlink:href="#m6b3913587d" y="76.803223"/>
     <use style="fill:#1f77b4;fill-opacity:0.8;stroke:#1f77b4;stroke-opacity:0.8;" x="273.781575" xlink:href="#m6b3913587d" y="74.986358"/>
     <use style="fill:#1f77b4;fill-opacity:0.8;stroke:#1f77b4;stroke-opacity:0.8;" x="281.050406" xlink:href="#m6b3913587d" y="73.169492"/>
     <use style="fill:#1f77b4;fill-opacity:0.8;stroke:#1f77b4;stroke-opacity:0.8;" x="286.880615" xlink:href="#m6b3913587d" y="71.352627"/>
     <use style="fill:#1f77b4;fill-opacity:0.8;stroke:#1f77b4;stroke-opacity:0.8;" x="285.034285" xlink:href="#m6b3913587d" y="69.535761"/>
     <use style="fill:#1f77b4;fill-opacity:0.8;stroke:#1f77b4;stroke-opacity:0.8;" x="293.776686" xlink:href="#m6b3913587d" y="67.718895"/>
     <use style="fill:#1f77b4;fill-opacity:0.8;stroke:#1f77b4;stroke-opacity:0.8;" x="291.889585" xlink:href="#m6b3913587d" y="65.90203"/>
     <use style="fill:#1f77b4;fill-opacity:0.8;stroke:#1f77b4;stroke-opacity:0.8;" x="311.261487" xlink:href="#m6b3913587d" y="64.085164"/>
     <use style="fill:#1f77b4;fill-opacity:0.8;stroke:#1f77b4;stroke-opacity:0.8;" x="286.059377" xlink:href="#m6b3913587d" y="62.268299"/>
     <use style="fill:#1f77b4;fill-opacity:0.8;stroke:#1f77b4;stroke-opacity:0.8;" x="287.195543" xlink:href="#m6b3913587d" y="60.451433"/>
     <use style="fill:#1f77b4;fill-opacity:0.8;stroke:#1f77b4;stroke-opacity:0.8;" x="297.044165" xlink:href="#m6b3913587d" y="58.634568"/>
     <use style="fill:#1f77b4;fill-opacity:0.8;stroke:#1f77b4;stroke-opacity:0.8;" x="300.870785" xlink:href="#m6b3913587d" y="56.817702"/>
     <use style="fill:#1f77b4;fill-opacity:0.8;stroke:#1f77b4;stroke-opacity:0.8;" x="311.482813" xlink:href="#m6b3913587d" y="55.000836"/>
     <use style="fill:#1f77b4;fill-opacity:0.8;stroke:#1f77b4;stroke-opacity:0.8;" x="306.223394" xlink:href="#m6b3913587d" y="53.183971"/>
     <use style="fill:#1f77b4;fill-opacity:0.8;stroke:#1f77b4;stroke-opacity:0.8;" x="312.309876" xlink:href="#m6b3913587d" y="51.367105"/>
     <use style="fill:#1f77b4;fill-opacity:0.8;stroke:#1f77b4;stroke-opacity:0.8;" x="304.056723" xlink:href="#m6b3913587d" y="49.55024"/>
     <use style="fill:#1f77b4;fill-opacity:0.8;stroke:#1f77b4;stroke-opacity:0.8;" x="304.433367" xlink:href="#m6b3913587d" y="47.733374"/>
     <use style="fill:#1f77b4;fill-opacity:0.8;stroke:#1f77b4;stroke-opacity:0.8;" x="324.913843" xlink:href="#m6b3913587d" y="45.916509"/>
     <use style="fill:#1f77b4;fill-opacity:0.8;stroke:#1f77b4;stroke-opacity:0.8;" x="311.249838" xlink:href="#m6b3913587d" y="44.099643"/>
     <use style="fill:#1f77b4;fill-opacity:0.8;stroke:#1f77b4;stroke-opacity:0.8;" x="314.350668" xlink:href="#m6b3913587d" y="42.282777"/>
    </g>
   </g>
   <g id="PolyCollection_1">
    <path clip-path="url(#p6f6b7f1096)" d="M 82.24194 225.858492 
L 82.24194 230.087432 
L 84.693172 228.148473 
L 87.144403 226.207573 
L 89.595634 224.266449 
L 92.046866 222.325294 
L 94.498097 220.406204 
L 96.949328 218.488719 
L 99.40056 216.571234 
L 101.851791 214.65375 
L 104.303022 212.735814 
L 106.754254 210.805508 
L 109.205485 208.872964 
L 111.656716 206.943901 
L 114.107948 205.019227 
L 116.559179 203.084007 
L 119.01041 201.150373 
L 121.461642 199.221146 
L 123.912873 197.293068 
L 126.364104 195.361144 
L 128.815336 193.427515 
L 131.266567 191.495708 
L 133.717798 189.569732 
L 136.16903 187.644217 
L 138.620261 185.718516 
L 141.071492 183.792389 
L 143.522724 181.866263 
L 145.973955 179.938498 
L 148.425186 178.014804 
L 150.876418 176.092667 
L 153.327649 174.186065 
L 155.77888 172.285474 
L 158.230112 170.37947 
L 160.681343 168.470653 
L 163.132574 166.558471 
L 165.583806 164.650423 
L 168.035037 162.733047 
L 170.486268 160.84079 
L 172.9375 158.928035 
L 175.388731 157.033765 
L 177.839962 155.137813 
L 180.291194 153.228601 
L 182.742425 151.328738 
L 185.193656 149.437445 
L 187.644888 147.543327 
L 190.096119 145.636102 
L 192.54735 143.73429 
L 194.998582 141.849622 
L 197.449813 139.958889 
L 199.901044 138.053336 
L 202.352276 136.156831 
L 204.803507 134.264394 
L 207.254738 132.357615 
L 209.70597 130.473445 
L 212.157201 128.587297 
L 214.608433 126.682545 
L 217.059664 124.792901 
L 219.510895 122.90302 
L 221.962127 121.022666 
L 224.413358 119.151117 
L 226.864589 117.275484 
L 229.315821 115.402368 
L 231.767052 113.53158 
L 234.218283 111.667006 
L 236.669515 109.802322 
L 239.120746 107.937637 
L 241.571977 106.068885 
L 244.023209 104.207727 
L 246.47444 102.33838 
L 248.925671 100.466714 
L 251.376903 98.598034 
L 253.828134 96.722878 
L 256.279365 94.845026 
L 258.730597 92.964981 
L 261.181828 91.085936 
L 263.633059 89.213251 
L 266.084291 87.347734 
L 268.535522 85.477749 
L 270.986753 83.601836 
L 273.437985 81.725794 
L 275.889216 79.851212 
L 278.340447 77.978651 
L 280.791679 76.132896 
L 283.24291 74.272291 
L 285.694141 72.395989 
L 288.145373 70.524848 
L 290.596604 68.654372 
L 293.047835 66.77579 
L 295.499067 64.897374 
L 297.950298 63.019494 
L 300.401529 61.144019 
L 302.852761 59.276495 
L 305.303992 57.400523 
L 307.755223 55.52804 
L 310.206455 53.67515 
L 312.657686 51.808693 
L 315.108917 49.942235 
L 317.560149 48.09589 
L 320.01138 46.257284 
L 322.462611 44.418348 
L 324.913843 42.551994 
L 324.913843 38.039986 
L 324.913843 38.039986 
L 322.462611 39.966281 
L 320.01138 41.88738 
L 317.560149 43.802609 
L 315.108917 45.718315 
L 312.657686 47.635599 
L 310.206455 49.569718 
L 307.755223 51.509135 
L 305.303992 53.443675 
L 302.852761 55.376708 
L 300.401529 57.318708 
L 297.950298 59.247978 
L 295.499067 61.176745 
L 293.047835 63.098831 
L 290.596604 65.031041 
L 288.145373 66.96386 
L 285.694141 68.871309 
L 283.24291 70.785848 
L 280.791679 72.702026 
L 278.340447 74.615379 
L 275.889216 76.534698 
L 273.437985 78.454379 
L 270.986753 80.385217 
L 268.535522 82.293199 
L 266.084291 84.213461 
L 263.633059 86.13226 
L 261.181828 88.051942 
L 258.730597 89.970926 
L 256.279365 91.890252 
L 253.828134 93.810118 
L 251.376903 95.723733 
L 248.925671 97.632556 
L 246.47444 99.542687 
L 244.023209 101.436856 
L 241.571977 103.357119 
L 239.120746 105.270269 
L 236.669515 107.181873 
L 234.218283 109.091222 
L 231.767052 111.001151 
L 229.315821 112.91118 
L 226.864589 114.810902 
L 224.413358 116.712776 
L 221.962127 118.608045 
L 219.510895 120.519629 
L 217.059664 122.441103 
L 214.608433 124.357811 
L 212.157201 126.274128 
L 209.70597 128.178779 
L 207.254738 130.078948 
L 204.803507 131.979879 
L 202.352276 133.889149 
L 199.901044 135.792622 
L 197.449813 137.700042 
L 194.998582 139.599366 
L 192.54735 141.495307 
L 190.096119 143.388586 
L 187.644888 145.291038 
L 185.193656 147.180652 
L 182.742425 149.069558 
L 180.291194 150.953072 
L 177.839962 152.849182 
L 175.388731 154.702225 
L 172.9375 156.579023 
L 170.486268 158.466482 
L 168.035037 160.334769 
L 165.583806 162.228123 
L 163.132574 164.090378 
L 160.681343 165.969559 
L 158.230112 167.855095 
L 155.77888 169.729388 
L 153.327649 171.597784 
L 150.876418 173.473945 
L 148.425186 175.35086 
L 145.973955 177.227776 
L 143.522724 179.104691 
L 141.071492 180.981849 
L 138.620261 182.859465 
L 136.16903 184.741725 
L 133.717798 186.619655 
L 131.266567 188.491186 
L 128.815336 190.36386 
L 126.364104 192.223899 
L 123.912873 194.111308 
L 121.461642 195.998299 
L 119.01041 197.867095 
L 116.559179 199.717068 
L 114.107948 201.583901 
L 111.656716 203.440362 
L 109.205485 205.309204 
L 106.754254 207.178322 
L 104.303022 209.037171 
L 101.851791 210.895095 
L 99.40056 212.755598 
L 96.949328 214.631529 
L 94.498097 216.511632 
L 92.046866 218.396596 
L 89.595634 220.259596 
L 87.144403 222.130985 
L 84.693172 223.995645 
L 82.24194 225.858492 
z
" style="fill:#1f77b4;fill-opacity:0.15;"/>
   </g>
   <g id="PathCollection_2">
    <defs>
     <path d="M 0 3 
C 0.795609 3 1.55874 2.683901 2.12132 2.12132 
C 2.683901 1.55874 3 0.795609 3 0 
C 3 -0.795609 2.683901 -1.55874 2.12132 -2.12132 
C 1.55874 -2.683901 0.795609 -3 0 -3 
C -0.795609 -3 -1.55874 -2.683901 -2.12132 -2.12132 
C -2.683901 -1.55874 -3 -0.795609 -3 0 
C -3 0.795609 -2.683901 1.55874 -2.12132 2.12132 
C -1.55874 2.683901 -0.795609 3 0 3 
z
" id="m42c6a61aca" style="stroke:#ff7f0e;stroke-opacity:0.8;"/>
    </defs>
    <g clip-path="url(#p6f6b7f1096)">
     <use style="fill:#ff7f0e;fill-opacity:0.8;stroke:#ff7f0e;stroke-opacity:0.8;" x="74.342763" xlink:href="#m42c6a61aca" y="222.15247"/>
     <use style="fill:#ff7f0e;fill-opacity:0.8;stroke:#ff7f0e;stroke-opacity:0.8;" x="83.415005" xlink:href="#m42c6a61aca" y="220.335604"/>
     <use style="fill:#ff7f0e;fill-opacity:0.8;stroke:#ff7f0e;stroke-opacity:0.8;" x="93.243143" xlink:href="#m42c6a61aca" y="218.518739"/>
     <use style="fill:#ff7f0e;fill-opacity:0.8;stroke:#ff7f0e;stroke-opacity:0.8;" x="99.891589" xlink:href="#m42c6a61aca" y="216.701873"/>
     <use style="fill:#ff7f0e;fill-opacity:0.8;stroke:#ff7f0e;stroke-opacity:0.8;" x="96.807666" xlink:href="#m42c6a61aca" y="214.885007"/>
     <use style="fill:#ff7f0e;fill-opacity:0.8;stroke:#ff7f0e;stroke-opacity:0.8;" x="96.772719" xlink:href="#m42c6a61aca" y="213.068142"/>
     <use style="fill:#ff7f0e;fill-opacity:0.8;stroke:#ff7f0e;stroke-opacity:0.8;" x="106.202397" xlink:href="#m42c6a61aca" y="211.251276"/>
     <use style="fill:#ff7f0e;fill-opacity:0.8;stroke:#ff7f0e;stroke-opacity:0.8;" x="106.359656" xlink:href="#m42c6a61aca" y="209.434411"/>
     <use style="fill:#ff7f0e;fill-opacity:0.8;stroke:#ff7f0e;stroke-opacity:0.8;" x="98.325453" xlink:href="#m42c6a61aca" y="207.617545"/>
     <use style="fill:#ff7f0e;fill-opacity:0.8;stroke:#ff7f0e;stroke-opacity:0.8;" x="105.633608" xlink:href="#m42c6a61aca" y="205.80068"/>
     <use style="fill:#ff7f0e;fill-opacity:0.8;stroke:#ff7f0e;stroke-opacity:0.8;" x="98.179573" xlink:href="#m42c6a61aca" y="203.983814"/>
     <use style="fill:#ff7f0e;fill-opacity:0.8;stroke:#ff7f0e;stroke-opacity:0.8;" x="96.215599" xlink:href="#m42c6a61aca" y="202.166948"/>
     <use style="fill:#ff7f0e;fill-opacity:0.8;stroke:#ff7f0e;stroke-opacity:0.8;" x="105.072467" xlink:href="#m42c6a61aca" y="200.350083"/>
     <use style="fill:#ff7f0e;fill-opacity:0.8;stroke:#ff7f0e;stroke-opacity:0.8;" x="106.062612" xlink:href="#m42c6a61aca" y="198.533217"/>
     <use style="fill:#ff7f0e;fill-opacity:0.8;stroke:#ff7f0e;stroke-opacity:0.8;" x="104.268702" xlink:href="#m42c6a61aca" y="196.716352"/>
     <use style="fill:#ff7f0e;fill-opacity:0.8;stroke:#ff7f0e;stroke-opacity:0.8;" x="97.760844" xlink:href="#m42c6a61aca" y="194.899486"/>
     <use style="fill:#ff7f0e;fill-opacity:0.8;stroke:#ff7f0e;stroke-opacity:0.8;" x="99.69156" xlink:href="#m42c6a61aca" y="193.08262"/>
     <use style="fill:#ff7f0e;fill-opacity:0.8;stroke:#ff7f0e;stroke-opacity:0.8;" x="104.068672" xlink:href="#m42c6a61aca" y="191.265755"/>
     <use style="fill:#ff7f0e;fill-opacity:0.8;stroke:#ff7f0e;stroke-opacity:0.8;" x="108.683585" xlink:href="#m42c6a61aca" y="189.448889"/>
     <use style="fill:#ff7f0e;fill-opacity:0.8;stroke:#ff7f0e;stroke-opacity:0.8;" x="103.174424" xlink:href="#m42c6a61aca" y="187.632024"/>
     <use style="fill:#ff7f0e;fill-opacity:0.8;stroke:#ff7f0e;stroke-opacity:0.8;" x="108.19869" xlink:href="#m42c6a61aca" y="185.815158"/>
     <use style="fill:#ff7f0e;fill-opacity:0.8;stroke:#ff7f0e;stroke-opacity:0.8;" x="105.765568" xlink:href="#m42c6a61aca" y="183.998293"/>
     <use style="fill:#ff7f0e;fill-opacity:0.8;stroke:#ff7f0e;stroke-opacity:0.8;" x="102.450068" xlink:href="#m42c6a61aca" y="182.181427"/>
     <use style="fill:#ff7f0e;fill-opacity:0.8;stroke:#ff7f0e;stroke-opacity:0.8;" x="105.563009" xlink:href="#m42c6a61aca" y="180.364561"/>
     <use style="fill:#ff7f0e;fill-opacity:0.8;stroke:#ff7f0e;stroke-opacity:0.8;" x="105.800515" xlink:href="#m42c6a61aca" y="178.547696"/>
     <use style="fill:#ff7f0e;fill-opacity:0.8;stroke:#ff7f0e;stroke-opacity:0.8;" x="110.990041" xlink:href="#m42c6a61aca" y="176.73083"/>
     <use style="fill:#ff7f0e;fill-opacity:0.8;stroke:#ff7f0e;stroke-opacity:0.8;" x="101.6087" xlink:href="#m42c6a61aca" y="174.913965"/>
     <use style="fill:#ff7f0e;fill-opacity:0.8;stroke:#ff7f0e;stroke-opacity:0.8;" x="102.788833" xlink:href="#m42c6a61aca" y="173.097099"/>
     <use style="fill:#ff7f0e;fill-opacity:0.8;stroke:#ff7f0e;stroke-opacity:0.8;" x="103.492117" xlink:href="#m42c6a61aca" y="171.280234"/>
     <use style="fill:#ff7f0e;fill-opacity:0.8;stroke:#ff7f0e;stroke-opacity:0.8;" x="104.927622" xlink:href="#m42c6a61aca" y="169.463368"/>
     <use style="fill:#ff7f0e;fill-opacity:0.8;stroke:#ff7f0e;stroke-opacity:0.8;" x="109.813515" xlink:href="#m42c6a61aca" y="167.646502"/>
     <use style="fill:#ff7f0e;fill-opacity:0.8;stroke:#ff7f0e;stroke-opacity:0.8;" x="108.642814" xlink:href="#m42c6a61aca" y="165.829637"/>
     <use style="fill:#ff7f0e;fill-opacity:0.8;stroke:#ff7f0e;stroke-opacity:0.8;" x="108.351595" xlink:href="#m42c6a61aca" y="164.012771"/>
     <use style="fill:#ff7f0e;fill-opacity:0.8;stroke:#ff7f0e;stroke-opacity:0.8;" x="106.510207" xlink:href="#m42c6a61aca" y="162.195906"/>
     <use style="fill:#ff7f0e;fill-opacity:0.8;stroke:#ff7f0e;stroke-opacity:0.8;" x="113.494526" xlink:href="#m42c6a61aca" y="160.37904"/>
     <use style="fill:#ff7f0e;fill-opacity:0.8;stroke:#ff7f0e;stroke-opacity:0.8;" x="109.627135" xlink:href="#m42c6a61aca" y="158.562174"/>
     <use style="fill:#ff7f0e;fill-opacity:0.8;stroke:#ff7f0e;stroke-opacity:0.8;" x="103.472306" xlink:href="#m42c6a61aca" y="156.745309"/>
     <use style="fill:#ff7f0e;fill-opacity:0.8;stroke:#ff7f0e;stroke-opacity:0.8;" x="106.449874" xlink:href="#m42c6a61aca" y="154.928443"/>
     <use style="fill:#ff7f0e;fill-opacity:0.8;stroke:#ff7f0e;stroke-opacity:0.8;" x="114.787892" xlink:href="#m42c6a61aca" y="153.111578"/>
     <use style="fill:#ff7f0e;fill-opacity:0.8;stroke:#ff7f0e;stroke-opacity:0.8;" x="108.316649" xlink:href="#m42c6a61aca" y="151.294712"/>
     <use style="fill:#ff7f0e;fill-opacity:0.8;stroke:#ff7f0e;stroke-opacity:0.8;" x="100.817911" xlink:href="#m42c6a61aca" y="149.477847"/>
     <use style="fill:#ff7f0e;fill-opacity:0.8;stroke:#ff7f0e;stroke-opacity:0.8;" x="104.926857" xlink:href="#m42c6a61aca" y="147.660981"/>
     <use style="fill:#ff7f0e;fill-opacity:0.8;stroke:#ff7f0e;stroke-opacity:0.8;" x="110.346064" xlink:href="#m42c6a61aca" y="145.844115"/>
     <use style="fill:#ff7f0e;fill-opacity:0.8;stroke:#ff7f0e;stroke-opacity:0.8;" x="106.115031" xlink:href="#m42c6a61aca" y="144.02725"/>
     <use style="fill:#ff7f0e;fill-opacity:0.8;stroke:#ff7f0e;stroke-opacity:0.8;" x="105.168834" xlink:href="#m42c6a61aca" y="142.210384"/>
     <use style="fill:#ff7f0e;fill-opacity:0.8;stroke:#ff7f0e;stroke-opacity:0.8;" x="110.057786" xlink:href="#m42c6a61aca" y="140.393519"/>
     <use style="fill:#ff7f0e;fill-opacity:0.8;stroke:#ff7f0e;stroke-opacity:0.8;" x="110.734957" xlink:href="#m42c6a61aca" y="138.576653"/>
     <use style="fill:#ff7f0e;fill-opacity:0.8;stroke:#ff7f0e;stroke-opacity:0.8;" x="119.091759" xlink:href="#m42c6a61aca" y="136.759788"/>
     <use style="fill:#ff7f0e;fill-opacity:0.8;stroke:#ff7f0e;stroke-opacity:0.8;" x="119.853341" xlink:href="#m42c6a61aca" y="134.942922"/>
     <use style="fill:#ff7f0e;fill-opacity:0.8;stroke:#ff7f0e;stroke-opacity:0.8;" x="115.682141" xlink:href="#m42c6a61aca" y="133.126056"/>
     <use style="fill:#ff7f0e;fill-opacity:0.8;stroke:#ff7f0e;stroke-opacity:0.8;" x="120.588864" xlink:href="#m42c6a61aca" y="131.309191"/>
     <use style="fill:#ff7f0e;fill-opacity:0.8;stroke:#ff7f0e;stroke-opacity:0.8;" x="118.456901" xlink:href="#m42c6a61aca" y="129.492325"/>
     <use style="fill:#ff7f0e;fill-opacity:0.8;stroke:#ff7f0e;stroke-opacity:0.8;" x="120.483787" xlink:href="#m42c6a61aca" y="127.67546"/>
     <use style="fill:#ff7f0e;fill-opacity:0.8;stroke:#ff7f0e;stroke-opacity:0.8;" x="116.447489" xlink:href="#m42c6a61aca" y="125.858594"/>
     <use style="fill:#ff7f0e;fill-opacity:0.8;stroke:#ff7f0e;stroke-opacity:0.8;" x="117.420161" xlink:href="#m42c6a61aca" y="124.041728"/>
     <use style="fill:#ff7f0e;fill-opacity:0.8;stroke:#ff7f0e;stroke-opacity:0.8;" x="124.164798" xlink:href="#m42c6a61aca" y="122.224863"/>
     <use style="fill:#ff7f0e;fill-opacity:0.8;stroke:#ff7f0e;stroke-opacity:0.8;" x="117.414337" xlink:href="#m42c6a61aca" y="120.407997"/>
     <use style="fill:#ff7f0e;fill-opacity:0.8;stroke:#ff7f0e;stroke-opacity:0.8;" x="119.085935" xlink:href="#m42c6a61aca" y="118.591132"/>
     <use style="fill:#ff7f0e;fill-opacity:0.8;stroke:#ff7f0e;stroke-opacity:0.8;" x="125.743206" xlink:href="#m42c6a61aca" y="116.774266"/>
     <use style="fill:#ff7f0e;fill-opacity:0.8;stroke:#ff7f0e;stroke-opacity:0.8;" x="120.274109" xlink:href="#m42c6a61aca" y="114.957401"/>
     <use style="fill:#ff7f0e;fill-opacity:0.8;stroke:#ff7f0e;stroke-opacity:0.8;" x="123.803686" xlink:href="#m42c6a61aca" y="113.140535"/>
     <use style="fill:#ff7f0e;fill-opacity:0.8;stroke:#ff7f0e;stroke-opacity:0.8;" x="119.901349" xlink:href="#m42c6a61aca" y="111.323669"/>
     <use style="fill:#ff7f0e;fill-opacity:0.8;stroke:#ff7f0e;stroke-opacity:0.8;" x="123.168828" xlink:href="#m42c6a61aca" y="109.506804"/>
     <use style="fill:#ff7f0e;fill-opacity:0.8;stroke:#ff7f0e;stroke-opacity:0.8;" x="117.868639" xlink:href="#m42c6a61aca" y="107.689938"/>
     <use style="fill:#ff7f0e;fill-opacity:0.8;stroke:#ff7f0e;stroke-opacity:0.8;" x="122.860136" xlink:href="#m42c6a61aca" y="105.873073"/>
     <use style="fill:#ff7f0e;fill-opacity:0.8;stroke:#ff7f0e;stroke-opacity:0.8;" x="120.419719" xlink:href="#m42c6a61aca" y="104.056207"/>
     <use style="fill:#ff7f0e;fill-opacity:0.8;stroke:#ff7f0e;stroke-opacity:0.8;" x="114.081906" xlink:href="#m42c6a61aca" y="102.239341"/>
     <use style="fill:#ff7f0e;fill-opacity:0.8;stroke:#ff7f0e;stroke-opacity:0.8;" x="116.1552" xlink:href="#m42c6a61aca" y="100.422476"/>
     <use style="fill:#ff7f0e;fill-opacity:0.8;stroke:#ff7f0e;stroke-opacity:0.8;" x="123.460047" xlink:href="#m42c6a61aca" y="98.60561"/>
     <use style="fill:#ff7f0e;fill-opacity:0.8;stroke:#ff7f0e;stroke-opacity:0.8;" x="121.759504" xlink:href="#m42c6a61aca" y="96.788745"/>
     <use style="fill:#ff7f0e;fill-opacity:0.8;stroke:#ff7f0e;stroke-opacity:0.8;" x="121.899112" xlink:href="#m42c6a61aca" y="94.971879"/>
     <use style="fill:#ff7f0e;fill-opacity:0.8;stroke:#ff7f0e;stroke-opacity:0.8;" x="122.860136" xlink:href="#m42c6a61aca" y="93.155014"/>
     <use style="fill:#ff7f0e;fill-opacity:0.8;stroke:#ff7f0e;stroke-opacity:0.8;" x="116.458306" xlink:href="#m42c6a61aca" y="91.338148"/>
     <use style="fill:#ff7f0e;fill-opacity:0.8;stroke:#ff7f0e;stroke-opacity:0.8;" x="118.323705" xlink:href="#m42c6a61aca" y="89.521282"/>
     <use style="fill:#ff7f0e;fill-opacity:0.8;stroke:#ff7f0e;stroke-opacity:0.8;" x="127.496345" xlink:href="#m42c6a61aca" y="87.704417"/>
     <use style="fill:#ff7f0e;fill-opacity:0.8;stroke:#ff7f0e;stroke-opacity:0.8;" x="126.803244" xlink:href="#m42c6a61aca" y="85.887551"/>
     <use style="fill:#ff7f0e;fill-opacity:0.8;stroke:#ff7f0e;stroke-opacity:0.8;" x="124.648163" xlink:href="#m42c6a61aca" y="84.070686"/>
     <use style="fill:#ff7f0e;fill-opacity:0.8;stroke:#ff7f0e;stroke-opacity:0.8;" x="127.735145" xlink:href="#m42c6a61aca" y="82.25382"/>
     <use style="fill:#ff7f0e;fill-opacity:0.8;stroke:#ff7f0e;stroke-opacity:0.8;" x="128.253515" xlink:href="#m42c6a61aca" y="80.436955"/>
     <use style="fill:#ff7f0e;fill-opacity:0.8;stroke:#ff7f0e;stroke-opacity:0.8;" x="125.859693" xlink:href="#m42c6a61aca" y="78.620089"/>
     <use style="fill:#ff7f0e;fill-opacity:0.8;stroke:#ff7f0e;stroke-opacity:0.8;" x="116.626003" xlink:href="#m42c6a61aca" y="76.803223"/>
     <use style="fill:#ff7f0e;fill-opacity:0.8;stroke:#ff7f0e;stroke-opacity:0.8;" x="125.989536" xlink:href="#m42c6a61aca" y="74.986358"/>
     <use style="fill:#ff7f0e;fill-opacity:0.8;stroke:#ff7f0e;stroke-opacity:0.8;" x="130.134791" xlink:href="#m42c6a61aca" y="73.169492"/>
     <use style="fill:#ff7f0e;fill-opacity:0.8;stroke:#ff7f0e;stroke-opacity:0.8;" x="122.865548" xlink:href="#m42c6a61aca" y="71.352627"/>
     <use style="fill:#ff7f0e;fill-opacity:0.8;stroke:#ff7f0e;stroke-opacity:0.8;" x="132.709169" xlink:href="#m42c6a61aca" y="69.535761"/>
     <use style="fill:#ff7f0e;fill-opacity:0.8;stroke:#ff7f0e;stroke-opacity:0.8;" x="126.791595" xlink:href="#m42c6a61aca" y="67.718895"/>
     <use style="fill:#ff7f0e;fill-opacity:0.8;stroke:#ff7f0e;stroke-opacity:0.8;" x="131.18318" xlink:href="#m42c6a61aca" y="65.90203"/>
     <use style="fill:#ff7f0e;fill-opacity:0.8;stroke:#ff7f0e;stroke-opacity:0.8;" x="126.313995" xlink:href="#m42c6a61aca" y="64.085164"/>
     <use style="fill:#ff7f0e;fill-opacity:0.8;stroke:#ff7f0e;stroke-opacity:0.8;" x="126.378064" xlink:href="#m42c6a61aca" y="62.268299"/>
     <use style="fill:#ff7f0e;fill-opacity:0.8;stroke:#ff7f0e;stroke-opacity:0.8;" x="136.128082" xlink:href="#m42c6a61aca" y="60.451433"/>
     <use style="fill:#ff7f0e;fill-opacity:0.8;stroke:#ff7f0e;stroke-opacity:0.8;" x="133.8391" xlink:href="#m42c6a61aca" y="58.634568"/>
     <use style="fill:#ff7f0e;fill-opacity:0.8;stroke:#ff7f0e;stroke-opacity:0.8;" x="130.484254" xlink:href="#m42c6a61aca" y="56.817702"/>
     <use style="fill:#ff7f0e;fill-opacity:0.8;stroke:#ff7f0e;stroke-opacity:0.8;" x="126.459605" xlink:href="#m42c6a61aca" y="55.000836"/>
     <use style="fill:#ff7f0e;fill-opacity:0.8;stroke:#ff7f0e;stroke-opacity:0.8;" x="134.800123" xlink:href="#m42c6a61aca" y="53.183971"/>
     <use style="fill:#ff7f0e;fill-opacity:0.8;stroke:#ff7f0e;stroke-opacity:0.8;" x="134.771001" xlink:href="#m42c6a61aca" y="51.367105"/>
     <use style="fill:#ff7f0e;fill-opacity:0.8;stroke:#ff7f0e;stroke-opacity:0.8;" x="130.734703" xlink:href="#m42c6a61aca" y="49.55024"/>
     <use style="fill:#ff7f0e;fill-opacity:0.8;stroke:#ff7f0e;stroke-opacity:0.8;" x="127.783917" xlink:href="#m42c6a61aca" y="47.733374"/>
     <use style="fill:#ff7f0e;fill-opacity:0.8;stroke:#ff7f0e;stroke-opacity:0.8;" x="130.19886" xlink:href="#m42c6a61aca" y="45.916509"/>
     <use style="fill:#ff7f0e;fill-opacity:0.8;stroke:#ff7f0e;stroke-opacity:0.8;" x="134.414302" xlink:href="#m42c6a61aca" y="44.099643"/>
     <use style="fill:#ff7f0e;fill-opacity:0.8;stroke:#ff7f0e;stroke-opacity:0.8;" x="125.418864" xlink:href="#m42c6a61aca" y="42.282777"/>
    </g>
   </g>
   <g id="PolyCollection_2">
    <path clip-path="url(#p6f6b7f1096)" d="M 74.342763 274.770143 
L 74.342763 313.465924 
L 74.966857 310.688105 
L 75.590952 307.912005 
L 76.215046 305.134923 
L 76.83914 302.357841 
L 77.463234 299.58076 
L 78.087328 296.785404 
L 78.711422 294.027289 
L 79.335516 291.254244 
L 79.95961 288.47982 
L 80.583705 285.705395 
L 81.207799 282.929376 
L 81.831893 280.152626 
L 82.455987 277.37749 
L 83.080081 274.603893 
L 83.704175 271.872768 
L 84.328269 269.149988 
L 84.952364 266.425959 
L 85.576458 263.700529 
L 86.200552 260.967566 
L 86.824646 258.162513 
L 87.44874 255.434953 
L 88.072834 252.726465 
L 88.696928 249.955822 
L 89.321022 247.185179 
L 89.945117 244.414444 
L 90.569211 241.643183 
L 91.193305 238.870184 
L 91.817399 236.096289 
L 92.441493 233.322395 
L 93.065587 230.5485 
L 93.689681 227.774606 
L 94.313776 224.983445 
L 94.93787 222.228942 
L 95.561964 219.3835 
L 96.186058 216.638716 
L 96.810152 213.911541 
L 97.434246 211.16092 
L 98.05834 208.439163 
L 98.682434 205.721509 
L 99.306529 202.989864 
L 99.930623 200.222141 
L 100.554717 197.42033 
L 101.178811 194.687357 
L 101.802905 191.90434 
L 102.426999 189.121323 
L 103.051093 186.338306 
L 103.675188 183.555587 
L 104.299282 180.899061 
L 104.923376 178.241433 
L 105.54747 175.557846 
L 106.171564 172.761377 
L 106.795658 169.962873 
L 107.419752 167.164369 
L 108.043846 164.364821 
L 108.667941 161.677652 
L 109.292035 159.129656 
L 109.916129 156.48646 
L 110.540223 153.747942 
L 111.164317 151.008265 
L 111.788411 148.348198 
L 112.412505 145.619195 
L 113.0366 142.89879 
L 113.660694 140.229798 
L 114.284788 137.520386 
L 114.908882 134.941109 
L 115.532976 132.345266 
L 116.15707 129.7337 
L 116.781164 127.096938 
L 117.405258 124.537388 
L 118.029353 122.05136 
L 118.653447 119.520875 
L 119.277541 117.057039 
L 119.901635 114.582583 
L 120.525729 112.115675 
L 121.149823 109.698187 
L 121.773917 107.229458 
L 122.398012 104.764857 
L 123.022106 102.349541 
L 123.6462 100.008737 
L 124.270294 97.678518 
L 124.894388 95.327106 
L 125.518482 92.982031 
L 126.142576 90.644307 
L 126.76667 88.30486 
L 127.390765 86.084001 
L 128.014859 83.788304 
L 128.638953 81.448594 
L 129.263047 79.08482 
L 129.887141 76.781778 
L 130.511235 74.517567 
L 131.135329 72.248899 
L 131.759424 69.837214 
L 132.383518 67.55665 
L 133.007612 65.356956 
L 133.631706 63.040844 
L 134.2558 60.793429 
L 134.879894 58.567092 
L 135.503988 56.30936 
L 136.128082 54.04855 
L 136.128082 36.747216 
L 136.128082 36.747216 
L 135.503988 39.459058 
L 134.879894 42.195791 
L 134.2558 45.000944 
L 133.631706 47.709464 
L 133.007612 50.424357 
L 132.383518 53.169585 
L 131.759424 55.931141 
L 131.135329 58.6305 
L 130.511235 61.353137 
L 129.887141 64.075257 
L 129.263047 66.762336 
L 128.638953 69.52507 
L 128.014859 72.233896 
L 127.390765 74.98892 
L 126.76667 77.648004 
L 126.142576 80.355083 
L 125.518482 83.068992 
L 124.894388 85.768658 
L 124.270294 88.435323 
L 123.6462 91.033111 
L 123.022106 93.839317 
L 122.398012 96.594387 
L 121.773917 99.182528 
L 121.149823 101.73109 
L 120.525729 104.388016 
L 119.901635 106.997454 
L 119.277541 109.574367 
L 118.653447 112.121768 
L 118.029353 114.631107 
L 117.405258 117.167509 
L 116.781164 119.565632 
L 116.15707 121.996039 
L 115.532976 124.40273 
L 114.908882 126.849771 
L 114.284788 129.340306 
L 113.660694 131.708488 
L 113.0366 134.092904 
L 112.412505 136.490671 
L 111.788411 138.879847 
L 111.164317 141.167247 
L 110.540223 143.569083 
L 109.916129 145.847579 
L 109.292035 148.251673 
L 108.667941 150.48635 
L 108.043846 152.750255 
L 107.419752 155.056191 
L 106.795658 157.365641 
L 106.171564 159.684848 
L 105.54747 162.003871 
L 104.923376 164.236633 
L 104.299282 166.432591 
L 103.675188 168.631022 
L 103.051093 170.926811 
L 102.426999 173.279593 
L 101.802905 175.632375 
L 101.178811 177.947905 
L 100.554717 180.205102 
L 99.930623 182.462298 
L 99.306529 184.752811 
L 98.682434 187.041216 
L 98.05834 189.301224 
L 97.434246 191.518113 
L 96.810152 193.751935 
L 96.186058 195.997156 
L 95.561964 198.215724 
L 94.93787 200.50332 
L 94.313776 202.761922 
L 93.689681 205.016858 
L 93.065587 207.271991 
L 92.441493 209.529283 
L 91.817399 211.786576 
L 91.193305 214.043868 
L 90.569211 216.30116 
L 89.945117 218.557421 
L 89.321022 220.812843 
L 88.696928 223.068265 
L 88.072834 225.323687 
L 87.44874 227.57911 
L 86.824646 229.832401 
L 86.200552 232.055439 
L 85.576458 234.255755 
L 84.952364 236.456071 
L 84.328269 238.665306 
L 83.704175 240.900858 
L 83.080081 243.158377 
L 82.455987 245.434587 
L 81.831893 247.676982 
L 81.207799 249.935296 
L 80.583705 252.19361 
L 79.95961 254.451924 
L 79.335516 256.710238 
L 78.711422 258.968552 
L 78.087328 261.226866 
L 77.463234 263.48583 
L 76.83914 265.745448 
L 76.215046 268.001239 
L 75.590952 270.242004 
L 74.966857 272.483053 
L 74.342763 274.770143 
z
" style="fill:#ff7f0e;fill-opacity:0.15;"/>
   </g>
   <g id="PathCollection_3">
    <defs>
     <path d="M 0 3 
C 0.795609 3 1.55874 2.683901 2.12132 2.12132 
C 2.683901 1.55874 3 0.795609 3 0 
C 3 -0.795609 2.683901 -1.55874 2.12132 -2.12132 
C 1.55874 -2.683901 0.795609 -3 0 -3 
C -0.795609 -3 -1.55874 -2.683901 -2.12132 -2.12132 
C -2.683901 -1.55874 -3 -0.795609 -3 0 
C -3 0.795609 -2.683901 1.55874 -2.12132 2.12132 
C -1.55874 2.683901 -0.795609 3 0 3 
z
" id="m64989271cb" style="stroke:#2ca02c;stroke-opacity:0.8;"/>
    </defs>
    <g clip-path="url(#p6f6b7f1096)">
     <use style="fill:#2ca02c;fill-opacity:0.8;stroke:#2ca02c;stroke-opacity:0.8;" x="74.02897" xlink:href="#m64989271cb" y="222.15247"/>
     <use style="fill:#2ca02c;fill-opacity:0.8;stroke:#2ca02c;stroke-opacity:0.8;" x="64.163657" xlink:href="#m64989271cb" y="220.335604"/>
     <use style="fill:#2ca02c;fill-opacity:0.8;stroke:#2ca02c;stroke-opacity:0.8;" x="81.024114" xlink:href="#m64989271cb" y="218.518739"/>
     <use style="fill:#2ca02c;fill-opacity:0.8;stroke:#2ca02c;stroke-opacity:0.8;" x="89.076256" xlink:href="#m64989271cb" y="216.701873"/>
     <use style="fill:#2ca02c;fill-opacity:0.8;stroke:#2ca02c;stroke-opacity:0.8;" x="95.182663" xlink:href="#m64989271cb" y="214.885007"/>
     <use style="fill:#2ca02c;fill-opacity:0.8;stroke:#2ca02c;stroke-opacity:0.8;" x="92.928983" xlink:href="#m64989271cb" y="213.068142"/>
     <use style="fill:#2ca02c;fill-opacity:0.8;stroke:#2ca02c;stroke-opacity:0.8;" x="98.15604" xlink:href="#m64989271cb" y="211.251276"/>
     <use style="fill:#2ca02c;fill-opacity:0.8;stroke:#2ca02c;stroke-opacity:0.8;" x="95.357394" xlink:href="#m64989271cb" y="209.434411"/>
     <use style="fill:#2ca02c;fill-opacity:0.8;stroke:#2ca02c;stroke-opacity:0.8;" x="90.278171" xlink:href="#m64989271cb" y="207.617545"/>
     <use style="fill:#2ca02c;fill-opacity:0.8;stroke:#2ca02c;stroke-opacity:0.8;" x="95.104212" xlink:href="#m64989271cb" y="205.80068"/>
     <use style="fill:#2ca02c;fill-opacity:0.8;stroke:#2ca02c;stroke-opacity:0.8;" x="94.867322" xlink:href="#m64989271cb" y="203.983814"/>
     <use style="fill:#2ca02c;fill-opacity:0.8;stroke:#2ca02c;stroke-opacity:0.8;" x="100.209283" xlink:href="#m64989271cb" y="202.166948"/>
     <use style="fill:#2ca02c;fill-opacity:0.8;stroke:#2ca02c;stroke-opacity:0.8;" x="94.165178" xlink:href="#m64989271cb" y="200.350083"/>
     <use style="fill:#2ca02c;fill-opacity:0.8;stroke:#2ca02c;stroke-opacity:0.8;" x="99.836345" xlink:href="#m64989271cb" y="198.533217"/>
     <use style="fill:#2ca02c;fill-opacity:0.8;stroke:#2ca02c;stroke-opacity:0.8;" x="97.372631" xlink:href="#m64989271cb" y="196.716352"/>
     <use style="fill:#2ca02c;fill-opacity:0.8;stroke:#2ca02c;stroke-opacity:0.8;" x="93.16119" xlink:href="#m64989271cb" y="194.899486"/>
     <use style="fill:#2ca02c;fill-opacity:0.8;stroke:#2ca02c;stroke-opacity:0.8;" x="98.822903" xlink:href="#m64989271cb" y="193.08262"/>
     <use style="fill:#2ca02c;fill-opacity:0.8;stroke:#2ca02c;stroke-opacity:0.8;" x="97.47747" xlink:href="#m64989271cb" y="191.265755"/>
     <use style="fill:#2ca02c;fill-opacity:0.8;stroke:#2ca02c;stroke-opacity:0.8;" x="100.262232" xlink:href="#m64989271cb" y="189.448889"/>
     <use style="fill:#2ca02c;fill-opacity:0.8;stroke:#2ca02c;stroke-opacity:0.8;" x="97.659809" xlink:href="#m64989271cb" y="187.632024"/>
     <use style="fill:#2ca02c;fill-opacity:0.8;stroke:#2ca02c;stroke-opacity:0.8;" x="102.96404" xlink:href="#m64989271cb" y="185.815158"/>
     <use style="fill:#2ca02c;fill-opacity:0.8;stroke:#2ca02c;stroke-opacity:0.8;" x="107.052757" xlink:href="#m64989271cb" y="183.998293"/>
     <use style="fill:#2ca02c;fill-opacity:0.8;stroke:#2ca02c;stroke-opacity:0.8;" x="97.174602" xlink:href="#m64989271cb" y="182.181427"/>
     <use style="fill:#2ca02c;fill-opacity:0.8;stroke:#2ca02c;stroke-opacity:0.8;" x="104.181336" xlink:href="#m64989271cb" y="180.364561"/>
     <use style="fill:#2ca02c;fill-opacity:0.8;stroke:#2ca02c;stroke-opacity:0.8;" x="97.772731" xlink:href="#m64989271cb" y="178.547696"/>
     <use style="fill:#2ca02c;fill-opacity:0.8;stroke:#2ca02c;stroke-opacity:0.8;" x="104.688057" xlink:href="#m64989271cb" y="176.73083"/>
     <use style="fill:#2ca02c;fill-opacity:0.8;stroke:#2ca02c;stroke-opacity:0.8;" x="104.437609" xlink:href="#m64989271cb" y="174.913965"/>
     <use style="fill:#2ca02c;fill-opacity:0.8;stroke:#2ca02c;stroke-opacity:0.8;" x="104.024078" xlink:href="#m64989271cb" y="173.097099"/>
     <use style="fill:#2ca02c;fill-opacity:0.8;stroke:#2ca02c;stroke-opacity:0.8;" x="102.544684" xlink:href="#m64989271cb" y="171.280234"/>
     <use style="fill:#2ca02c;fill-opacity:0.8;stroke:#2ca02c;stroke-opacity:0.8;" x="102.886146" xlink:href="#m64989271cb" y="169.463368"/>
     <use style="fill:#2ca02c;fill-opacity:0.8;stroke:#2ca02c;stroke-opacity:0.8;" x="103.868643" xlink:href="#m64989271cb" y="167.646502"/>
     <use style="fill:#2ca02c;fill-opacity:0.8;stroke:#2ca02c;stroke-opacity:0.8;" x="103.886293" xlink:href="#m64989271cb" y="165.829637"/>
     <use style="fill:#2ca02c;fill-opacity:0.8;stroke:#2ca02c;stroke-opacity:0.8;" x="102.603752" xlink:href="#m64989271cb" y="164.012771"/>
     <use style="fill:#2ca02c;fill-opacity:0.8;stroke:#2ca02c;stroke-opacity:0.8;" x="105.637732" xlink:href="#m64989271cb" y="162.195906"/>
     <use style="fill:#2ca02c;fill-opacity:0.8;stroke:#2ca02c;stroke-opacity:0.8;" x="104.059024" xlink:href="#m64989271cb" y="160.37904"/>
     <use style="fill:#2ca02c;fill-opacity:0.8;stroke:#2ca02c;stroke-opacity:0.8;" x="107.833225" xlink:href="#m64989271cb" y="158.562174"/>
     <use style="fill:#2ca02c;fill-opacity:0.8;stroke:#2ca02c;stroke-opacity:0.8;" x="107.413869" xlink:href="#m64989271cb" y="156.745309"/>
     <use style="fill:#2ca02c;fill-opacity:0.8;stroke:#2ca02c;stroke-opacity:0.8;" x="107.769157" xlink:href="#m64989271cb" y="154.928443"/>
     <use style="fill:#2ca02c;fill-opacity:0.8;stroke:#2ca02c;stroke-opacity:0.8;" x="102.135075" xlink:href="#m64989271cb" y="153.111578"/>
     <use style="fill:#2ca02c;fill-opacity:0.8;stroke:#2ca02c;stroke-opacity:0.8;" x="95.291553" xlink:href="#m64989271cb" y="151.294712"/>
     <use style="fill:#2ca02c;fill-opacity:0.8;stroke:#2ca02c;stroke-opacity:0.8;" x="92.257528" xlink:href="#m64989271cb" y="149.477847"/>
     <use style="fill:#2ca02c;fill-opacity:0.8;stroke:#2ca02c;stroke-opacity:0.8;" x="96.635041" xlink:href="#m64989271cb" y="147.660981"/>
     <use style="fill:#2ca02c;fill-opacity:0.8;stroke:#2ca02c;stroke-opacity:0.8;" x="90.717302" xlink:href="#m64989271cb" y="145.844115"/>
     <use style="fill:#2ca02c;fill-opacity:0.8;stroke:#2ca02c;stroke-opacity:0.8;" x="96.208696" xlink:href="#m64989271cb" y="144.02725"/>
     <use style="fill:#2ca02c;fill-opacity:0.8;stroke:#2ca02c;stroke-opacity:0.8;" x="108.73018" xlink:href="#m64989271cb" y="142.210384"/>
     <use style="fill:#2ca02c;fill-opacity:0.8;stroke:#2ca02c;stroke-opacity:0.8;" x="101.99778" xlink:href="#m64989271cb" y="140.393519"/>
     <use style="fill:#2ca02c;fill-opacity:0.8;stroke:#2ca02c;stroke-opacity:0.8;" x="94.26027" xlink:href="#m64989271cb" y="138.576653"/>
     <use style="fill:#2ca02c;fill-opacity:0.8;stroke:#2ca02c;stroke-opacity:0.8;" x="110.76289" xlink:href="#m64989271cb" y="136.759788"/>
     <use style="fill:#2ca02c;fill-opacity:0.8;stroke:#2ca02c;stroke-opacity:0.8;" x="109.469877" xlink:href="#m64989271cb" y="134.942922"/>
     <use style="fill:#2ca02c;fill-opacity:0.8;stroke:#2ca02c;stroke-opacity:0.8;" x="113.418809" xlink:href="#m64989271cb" y="133.126056"/>
     <use style="fill:#2ca02c;fill-opacity:0.8;stroke:#2ca02c;stroke-opacity:0.8;" x="113.50035" xlink:href="#m64989271cb" y="131.309191"/>
     <use style="fill:#2ca02c;fill-opacity:0.8;stroke:#2ca02c;stroke-opacity:0.8;" x="111.693321" xlink:href="#m64989271cb" y="129.492325"/>
     <use style="fill:#2ca02c;fill-opacity:0.8;stroke:#2ca02c;stroke-opacity:0.8;" x="113.528884" xlink:href="#m64989271cb" y="127.67546"/>
     <use style="fill:#2ca02c;fill-opacity:0.8;stroke:#2ca02c;stroke-opacity:0.8;" x="114.379832" xlink:href="#m64989271cb" y="125.858594"/>
     <use style="fill:#2ca02c;fill-opacity:0.8;stroke:#2ca02c;stroke-opacity:0.8;" x="112.789776" xlink:href="#m64989271cb" y="124.041728"/>
     <use style="fill:#2ca02c;fill-opacity:0.8;stroke:#2ca02c;stroke-opacity:0.8;" x="122.819365" xlink:href="#m64989271cb" y="122.224863"/>
     <use style="fill:#2ca02c;fill-opacity:0.8;stroke:#2ca02c;stroke-opacity:0.8;" x="118.694348" xlink:href="#m64989271cb" y="120.407997"/>
     <use style="fill:#2ca02c;fill-opacity:0.8;stroke:#2ca02c;stroke-opacity:0.8;" x="121.363269" xlink:href="#m64989271cb" y="118.591132"/>
     <use style="fill:#2ca02c;fill-opacity:0.8;stroke:#2ca02c;stroke-opacity:0.8;" x="111.016751" xlink:href="#m64989271cb" y="116.774266"/>
     <use style="fill:#2ca02c;fill-opacity:0.8;stroke:#2ca02c;stroke-opacity:0.8;" x="114.502145" xlink:href="#m64989271cb" y="114.957401"/>
     <use style="fill:#2ca02c;fill-opacity:0.8;stroke:#2ca02c;stroke-opacity:0.8;" x="117.158064" xlink:href="#m64989271cb" y="113.140535"/>
     <use style="fill:#2ca02c;fill-opacity:0.8;stroke:#2ca02c;stroke-opacity:0.8;" x="119.971241" xlink:href="#m64989271cb" y="111.323669"/>
     <use style="fill:#2ca02c;fill-opacity:0.8;stroke:#2ca02c;stroke-opacity:0.8;" x="117.787097" xlink:href="#m64989271cb" y="109.506804"/>
     <use style="fill:#2ca02c;fill-opacity:0.8;stroke:#2ca02c;stroke-opacity:0.8;" x="117.874463" xlink:href="#m64989271cb" y="107.689938"/>
     <use style="fill:#2ca02c;fill-opacity:0.8;stroke:#2ca02c;stroke-opacity:0.8;" x="118.113263" xlink:href="#m64989271cb" y="105.873073"/>
     <use style="fill:#2ca02c;fill-opacity:0.8;stroke:#2ca02c;stroke-opacity:0.8;" x="112.352947" xlink:href="#m64989271cb" y="104.056207"/>
     <use style="fill:#2ca02c;fill-opacity:0.8;stroke:#2ca02c;stroke-opacity:0.8;" x="117.7638" xlink:href="#m64989271cb" y="102.239341"/>
     <use style="fill:#2ca02c;fill-opacity:0.8;stroke:#2ca02c;stroke-opacity:0.8;" x="117.810395" xlink:href="#m64989271cb" y="100.422476"/>
     <use style="fill:#2ca02c;fill-opacity:0.8;stroke:#2ca02c;stroke-opacity:0.8;" x="118.608335" xlink:href="#m64989271cb" y="98.60561"/>
     <use style="fill:#2ca02c;fill-opacity:0.8;stroke:#2ca02c;stroke-opacity:0.8;" x="108.820128" xlink:href="#m64989271cb" y="96.788745"/>
     <use style="fill:#2ca02c;fill-opacity:0.8;stroke:#2ca02c;stroke-opacity:0.8;" x="117.658961" xlink:href="#m64989271cb" y="94.971879"/>
     <use style="fill:#2ca02c;fill-opacity:0.8;stroke:#2ca02c;stroke-opacity:0.8;" x="122.726175" xlink:href="#m64989271cb" y="93.155014"/>
     <use style="fill:#2ca02c;fill-opacity:0.8;stroke:#2ca02c;stroke-opacity:0.8;" x="124.887021" xlink:href="#m64989271cb" y="91.338148"/>
     <use style="fill:#2ca02c;fill-opacity:0.8;stroke:#2ca02c;stroke-opacity:0.8;" x="120.000422" xlink:href="#m64989271cb" y="89.521282"/>
     <use style="fill:#2ca02c;fill-opacity:0.8;stroke:#2ca02c;stroke-opacity:0.8;" x="124.188095" xlink:href="#m64989271cb" y="87.704417"/>
     <use style="fill:#2ca02c;fill-opacity:0.8;stroke:#2ca02c;stroke-opacity:0.8;" x="119.493642" xlink:href="#m64989271cb" y="85.887551"/>
     <use style="fill:#2ca02c;fill-opacity:0.8;stroke:#2ca02c;stroke-opacity:0.8;" x="118.480199" xlink:href="#m64989271cb" y="84.070686"/>
     <use style="fill:#2ca02c;fill-opacity:0.8;stroke:#2ca02c;stroke-opacity:0.8;" x="123.990066" xlink:href="#m64989271cb" y="82.25382"/>
     <use style="fill:#2ca02c;fill-opacity:0.8;stroke:#2ca02c;stroke-opacity:0.8;" x="127.560414" xlink:href="#m64989271cb" y="80.436955"/>
     <use style="fill:#2ca02c;fill-opacity:0.8;stroke:#2ca02c;stroke-opacity:0.8;" x="121.25843" xlink:href="#m64989271cb" y="78.620089"/>
     <use style="fill:#2ca02c;fill-opacity:0.8;stroke:#2ca02c;stroke-opacity:0.8;" x="127.810862" xlink:href="#m64989271cb" y="76.803223"/>
     <use style="fill:#2ca02c;fill-opacity:0.8;stroke:#2ca02c;stroke-opacity:0.8;" x="125.289433" xlink:href="#m64989271cb" y="74.986358"/>
     <use style="fill:#2ca02c;fill-opacity:0.8;stroke:#2ca02c;stroke-opacity:0.8;" x="126.502396" xlink:href="#m64989271cb" y="73.169492"/>
     <use style="fill:#2ca02c;fill-opacity:0.8;stroke:#2ca02c;stroke-opacity:0.8;" x="119.004393" xlink:href="#m64989271cb" y="71.352627"/>
     <use style="fill:#2ca02c;fill-opacity:0.8;stroke:#2ca02c;stroke-opacity:0.8;" x="125.888815" xlink:href="#m64989271cb" y="69.535761"/>
     <use style="fill:#2ca02c;fill-opacity:0.8;stroke:#2ca02c;stroke-opacity:0.8;" x="118.497672" xlink:href="#m64989271cb" y="67.718895"/>
     <use style="fill:#2ca02c;fill-opacity:0.8;stroke:#2ca02c;stroke-opacity:0.8;" x="127.216775" xlink:href="#m64989271cb" y="65.90203"/>
     <use style="fill:#2ca02c;fill-opacity:0.8;stroke:#2ca02c;stroke-opacity:0.8;" x="133.355676" xlink:href="#m64989271cb" y="64.085164"/>
     <use style="fill:#2ca02c;fill-opacity:0.8;stroke:#2ca02c;stroke-opacity:0.8;" x="130.956029" xlink:href="#m64989271cb" y="62.268299"/>
     <use style="fill:#2ca02c;fill-opacity:0.8;stroke:#2ca02c;stroke-opacity:0.8;" x="127.001449" xlink:href="#m64989271cb" y="60.451433"/>
     <use style="fill:#2ca02c;fill-opacity:0.8;stroke:#2ca02c;stroke-opacity:0.8;" x="124.019188" xlink:href="#m64989271cb" y="58.634568"/>
     <use style="fill:#2ca02c;fill-opacity:0.8;stroke:#2ca02c;stroke-opacity:0.8;" x="125.901288" xlink:href="#m64989271cb" y="56.817702"/>
     <use style="fill:#2ca02c;fill-opacity:0.8;stroke:#2ca02c;stroke-opacity:0.8;" x="129.098051" xlink:href="#m64989271cb" y="55.000836"/>
     <use style="fill:#2ca02c;fill-opacity:0.8;stroke:#2ca02c;stroke-opacity:0.8;" x="129.103875" xlink:href="#m64989271cb" y="53.183971"/>
     <use style="fill:#2ca02c;fill-opacity:0.8;stroke:#2ca02c;stroke-opacity:0.8;" x="130.81042" xlink:href="#m64989271cb" y="51.367105"/>
     <use style="fill:#2ca02c;fill-opacity:0.8;stroke:#2ca02c;stroke-opacity:0.8;" x="125.719908" xlink:href="#m64989271cb" y="49.55024"/>
     <use style="fill:#2ca02c;fill-opacity:0.8;stroke:#2ca02c;stroke-opacity:0.8;" x="128.230218" xlink:href="#m64989271cb" y="47.733374"/>
     <use style="fill:#2ca02c;fill-opacity:0.8;stroke:#2ca02c;stroke-opacity:0.8;" x="130.19886" xlink:href="#m64989271cb" y="45.916509"/>
     <use style="fill:#2ca02c;fill-opacity:0.8;stroke:#2ca02c;stroke-opacity:0.8;" x="130.915259" xlink:href="#m64989271cb" y="44.099643"/>
     <use style="fill:#2ca02c;fill-opacity:0.8;stroke:#2ca02c;stroke-opacity:0.8;" x="132.93632" xlink:href="#m64989271cb" y="42.282777"/>
    </g>
   </g>
   <g id="PolyCollection_3">
    <path clip-path="url(#p6f6b7f1096)" d="M 64.163657 270.637852 
L 64.163657 315.729034 
L 64.862567 312.992225 
L 65.561476 310.255416 
L 66.260385 307.518607 
L 66.959294 304.781798 
L 67.658204 302.044989 
L 68.357113 299.30818 
L 69.056022 296.571371 
L 69.754932 293.834562 
L 70.453841 291.097753 
L 71.15275 288.360944 
L 71.851659 285.624135 
L 72.550569 282.887326 
L 73.249478 280.150517 
L 73.948387 277.413708 
L 74.647296 274.676899 
L 75.346206 271.94009 
L 76.045115 269.203281 
L 76.744024 266.466472 
L 77.442934 263.729663 
L 78.141843 260.992854 
L 78.840752 258.256045 
L 79.539661 255.519236 
L 80.238571 252.782427 
L 80.93748 250.046078 
L 81.636389 247.330491 
L 82.335298 244.66129 
L 83.034208 241.959202 
L 83.733117 239.183731 
L 84.432026 236.424732 
L 85.130936 233.727592 
L 85.829845 231.041071 
L 86.528754 228.327809 
L 87.227663 225.614548 
L 87.926573 222.904158 
L 88.625482 220.199223 
L 89.324391 217.494287 
L 90.023301 214.789352 
L 90.72221 212.084417 
L 91.421119 209.36483 
L 92.120028 206.636747 
L 92.818938 203.908663 
L 93.517847 201.184388 
L 94.216756 198.450176 
L 94.915665 195.721844 
L 95.614575 192.995756 
L 96.313484 190.298592 
L 97.012393 187.601429 
L 97.711303 184.905155 
L 98.410212 182.208325 
L 99.109121 179.471055 
L 99.80803 176.756913 
L 100.50694 174.042229 
L 101.205849 171.327544 
L 101.904758 168.606377 
L 102.603668 165.892233 
L 103.302577 163.159817 
L 104.001486 160.412307 
L 104.700395 157.7036 
L 105.399305 155.004246 
L 106.098214 152.242096 
L 106.797123 149.536666 
L 107.496032 146.823553 
L 108.194942 144.159689 
L 108.893851 141.406719 
L 109.59276 138.76463 
L 110.29167 136.127628 
L 110.990579 133.623164 
L 111.689488 130.96385 
L 112.388397 128.450018 
L 113.087307 126.064615 
L 113.786216 123.494392 
L 114.485125 121.097399 
L 115.184034 118.71505 
L 115.882944 116.333285 
L 116.581853 114.003045 
L 117.280762 111.729752 
L 117.979672 109.48054 
L 118.678581 107.172124 
L 119.37749 104.880803 
L 120.076399 102.573449 
L 120.775309 100.413992 
L 121.474218 98.184159 
L 122.173127 95.912156 
L 122.872037 93.728405 
L 123.570946 91.588565 
L 124.269855 89.381481 
L 124.968764 87.213243 
L 125.667674 84.983281 
L 126.366583 82.760908 
L 127.065492 80.550296 
L 127.764401 78.326694 
L 128.463311 76.139316 
L 129.16222 74.003605 
L 129.861129 71.971299 
L 130.560039 69.655989 
L 131.258948 67.589984 
L 131.957857 65.568462 
L 132.656766 63.546682 
L 133.355676 61.528712 
L 133.355676 43.281085 
L 133.355676 43.281085 
L 132.656766 45.981957 
L 131.957857 48.710638 
L 131.258948 51.43932 
L 130.560039 54.130384 
L 129.861129 56.8164 
L 129.16222 59.502415 
L 128.463311 62.188937 
L 127.764401 64.874445 
L 127.065492 67.580658 
L 126.366583 70.28448 
L 125.667674 73.030935 
L 124.968764 75.713704 
L 124.269855 78.43017 
L 123.570946 81.101164 
L 122.872037 83.818116 
L 122.173127 86.461385 
L 121.474218 89.091083 
L 120.775309 91.650559 
L 120.076399 94.163136 
L 119.37749 96.650695 
L 118.678581 99.138479 
L 117.979672 101.650507 
L 117.280762 104.124222 
L 116.581853 106.555968 
L 115.882944 108.940771 
L 115.184034 111.395846 
L 114.485125 113.810704 
L 113.786216 116.194823 
L 113.087307 118.562509 
L 112.388397 120.934161 
L 111.689488 123.230095 
L 110.990579 125.518029 
L 110.29167 127.733515 
L 109.59276 129.983566 
L 108.893851 132.176433 
L 108.194942 134.397258 
L 107.496032 136.585409 
L 106.797123 138.884298 
L 106.098214 141.105778 
L 105.399305 143.371645 
L 104.700395 145.616702 
L 104.001486 147.898636 
L 103.302577 150.097153 
L 102.603668 152.257112 
L 101.904758 154.436703 
L 101.205849 156.614346 
L 100.50694 158.758781 
L 99.80803 160.970022 
L 99.109121 163.142107 
L 98.410212 165.332452 
L 97.711303 167.520834 
L 97.012393 169.755426 
L 96.313484 171.972218 
L 95.614575 174.092024 
L 94.915665 176.316929 
L 94.216756 178.504264 
L 93.517847 180.610119 
L 92.818938 182.781945 
L 92.120028 184.94524 
L 91.421119 187.123283 
L 90.72221 189.301718 
L 90.023301 191.434306 
L 89.324391 193.580993 
L 88.625482 195.771135 
L 87.926573 197.962707 
L 87.227663 200.154555 
L 86.528754 202.348833 
L 85.829845 204.543111 
L 85.130936 206.734067 
L 84.432026 208.914817 
L 83.733117 211.095567 
L 83.034208 213.269681 
L 82.335298 215.401528 
L 81.636389 217.533374 
L 80.93748 219.665221 
L 80.238571 221.797068 
L 79.539661 223.928915 
L 78.840752 226.060762 
L 78.141843 228.192609 
L 77.442934 230.325108 
L 76.744024 232.458541 
L 76.045115 234.591974 
L 75.346206 236.725408 
L 74.647296 238.858841 
L 73.948387 240.992274 
L 73.249478 243.125708 
L 72.550569 245.259141 
L 71.851659 247.378701 
L 71.15275 249.465921 
L 70.453841 251.599037 
L 69.754932 253.75681 
L 69.056022 255.892603 
L 68.357113 258.011761 
L 67.658204 260.130919 
L 66.959294 262.250077 
L 66.260385 264.369236 
L 65.561476 266.487612 
L 64.862567 268.562732 
L 64.163657 270.637852 
z
" style="fill:#2ca02c;fill-opacity:0.15;"/>
   </g>
   <g id="matplotlib.axis_1">
    <g id="xtick_1">
     <g id="line2d_1">
      <defs>
       <path d="M 0 0 
L 0 3.5 
" id="m1c6fd345cb" style="stroke:#000000;stroke-width:0.8;"/>
      </defs>
      <g>
       <use style="stroke:#000000;stroke-width:0.8;" x="97.279441" xlink:href="#m1c6fd345cb" y="329.678125"/>
      </g>
     </g>
     <g id="text_1">
      <!-- 0.0002 -->
      <g transform="translate(79.784128 344.276562)scale(0.1 -0.1)">
       <defs>
        <path d="M 2034 4250 
Q 1547 4250 1301 3770 
Q 1056 3291 1056 2328 
Q 1056 1369 1301 889 
Q 1547 409 2034 409 
Q 2525 409 2770 889 
Q 3016 1369 3016 2328 
Q 3016 3291 2770 3770 
Q 2525 4250 2034 4250 
z
M 2034 4750 
Q 2819 4750 3233 4129 
Q 3647 3509 3647 2328 
Q 3647 1150 3233 529 
Q 2819 -91 2034 -91 
Q 1250 -91 836 529 
Q 422 1150 422 2328 
Q 422 3509 836 4129 
Q 1250 4750 2034 4750 
z
" id="DejaVuSans-30" transform="scale(0.015625)"/>
        <path d="M 684 794 
L 1344 794 
L 1344 0 
L 684 0 
L 684 794 
z
" id="DejaVuSans-2e" transform="scale(0.015625)"/>
        <path d="M 1228 531 
L 3431 531 
L 3431 0 
L 469 0 
L 469 531 
Q 828 903 1448 1529 
Q 2069 2156 2228 2338 
Q 2531 2678 2651 2914 
Q 2772 3150 2772 3378 
Q 2772 3750 2511 3984 
Q 2250 4219 1831 4219 
Q 1534 4219 1204 4116 
Q 875 4013 500 3803 
L 500 4441 
Q 881 4594 1212 4672 
Q 1544 4750 1819 4750 
Q 2544 4750 2975 4387 
Q 3406 4025 3406 3419 
Q 3406 3131 3298 2873 
Q 3191 2616 2906 2266 
Q 2828 2175 2409 1742 
Q 1991 1309 1228 531 
z
" id="DejaVuSans-32" transform="scale(0.015625)"/>
       </defs>
       <use xlink:href="#DejaVuSans-30"/>
       <use x="63.623047" xlink:href="#DejaVuSans-2e"/>
       <use x="95.410156" xlink:href="#DejaVuSans-30"/>
       <use x="159.033203" xlink:href="#DejaVuSans-30"/>
       <use x="222.65625" xlink:href="#DejaVuSans-30"/>
       <use x="286.279297" xlink:href="#DejaVuSans-32"/>
      </g>
     </g>
    </g>
    <g id="xtick_2">
     <g id="line2d_2">
      <g>
       <use style="stroke:#000000;stroke-width:0.8;" x="155.523281" xlink:href="#m1c6fd345cb" y="329.678125"/>
      </g>
     </g>
     <g id="text_2">
      <!-- 0.0003 -->
      <g transform="translate(138.027969 344.276562)scale(0.1 -0.1)">
       <defs>
        <path d="M 2597 2516 
Q 3050 2419 3304 2112 
Q 3559 1806 3559 1356 
Q 3559 666 3084 287 
Q 2609 -91 1734 -91 
Q 1441 -91 1130 -33 
Q 819 25 488 141 
L 488 750 
Q 750 597 1062 519 
Q 1375 441 1716 441 
Q 2309 441 2620 675 
Q 2931 909 2931 1356 
Q 2931 1769 2642 2001 
Q 2353 2234 1838 2234 
L 1294 2234 
L 1294 2753 
L 1863 2753 
Q 2328 2753 2575 2939 
Q 2822 3125 2822 3475 
Q 2822 3834 2567 4026 
Q 2313 4219 1838 4219 
Q 1578 4219 1281 4162 
Q 984 4106 628 3988 
L 628 4550 
Q 988 4650 1302 4700 
Q 1616 4750 1894 4750 
Q 2613 4750 3031 4423 
Q 3450 4097 3450 3541 
Q 3450 3153 3228 2886 
Q 3006 2619 2597 2516 
z
" id="DejaVuSans-33" transform="scale(0.015625)"/>
       </defs>
       <use xlink:href="#DejaVuSans-30"/>
       <use x="63.623047" xlink:href="#DejaVuSans-2e"/>
       <use x="95.410156" xlink:href="#DejaVuSans-30"/>
       <use x="159.033203" xlink:href="#DejaVuSans-30"/>
       <use x="222.65625" xlink:href="#DejaVuSans-30"/>
       <use x="286.279297" xlink:href="#DejaVuSans-33"/>
      </g>
     </g>
    </g>
    <g id="xtick_3">
     <g id="line2d_3">
      <g>
       <use style="stroke:#000000;stroke-width:0.8;" x="213.767122" xlink:href="#m1c6fd345cb" y="329.678125"/>
      </g>
     </g>
     <g id="text_3">
      <!-- 0.0004 -->
      <g transform="translate(196.271809 344.276562)scale(0.1 -0.1)">
       <defs>
        <path d="M 2419 4116 
L 825 1625 
L 2419 1625 
L 2419 4116 
z
M 2253 4666 
L 3047 4666 
L 3047 1625 
L 3713 1625 
L 3713 1100 
L 3047 1100 
L 3047 0 
L 2419 0 
L 2419 1100 
L 313 1100 
L 313 1709 
L 2253 4666 
z
" id="DejaVuSans-34" transform="scale(0.015625)"/>
       </defs>
       <use xlink:href="#DejaVuSans-30"/>
       <use x="63.623047" xlink:href="#DejaVuSans-2e"/>
       <use x="95.410156" xlink:href="#DejaVuSans-30"/>
       <use x="159.033203" xlink:href="#DejaVuSans-30"/>
       <use x="222.65625" xlink:href="#DejaVuSans-30"/>
       <use x="286.279297" xlink:href="#DejaVuSans-34"/>
      </g>
     </g>
    </g>
    <g id="xtick_4">
     <g id="line2d_4">
      <g>
       <use style="stroke:#000000;stroke-width:0.8;" x="272.010962" xlink:href="#m1c6fd345cb" y="329.678125"/>
      </g>
     </g>
     <g id="text_4">
      <!-- 0.0005 -->
      <g transform="translate(254.51565 344.276562)scale(0.1 -0.1)">
       <defs>
        <path d="M 691 4666 
L 3169 4666 
L 3169 4134 
L 1269 4134 
L 1269 2991 
Q 1406 3038 1543 3061 
Q 1681 3084 1819 3084 
Q 2600 3084 3056 2656 
Q 3513 2228 3513 1497 
Q 3513 744 3044 326 
Q 2575 -91 1722 -91 
Q 1428 -91 1123 -41 
Q 819 9 494 109 
L 494 744 
Q 775 591 1075 516 
Q 1375 441 1709 441 
Q 2250 441 2565 725 
Q 2881 1009 2881 1497 
Q 2881 1984 2565 2268 
Q 2250 2553 1709 2553 
Q 1456 2553 1204 2497 
Q 953 2441 691 2322 
L 691 4666 
z
" id="DejaVuSans-35" transform="scale(0.015625)"/>
       </defs>
       <use xlink:href="#DejaVuSans-30"/>
       <use x="63.623047" xlink:href="#DejaVuSans-2e"/>
       <use x="95.410156" xlink:href="#DejaVuSans-30"/>
       <use x="159.033203" xlink:href="#DejaVuSans-30"/>
       <use x="222.65625" xlink:href="#DejaVuSans-30"/>
       <use x="286.279297" xlink:href="#DejaVuSans-35"/>
      </g>
     </g>
    </g>
    <g id="xtick_5">
     <g id="line2d_5">
      <g>
       <use style="stroke:#000000;stroke-width:0.8;" x="330.254803" xlink:href="#m1c6fd345cb" y="329.678125"/>
      </g>
     </g>
     <g id="text_5">
      <!-- 0.0006 -->
      <g transform="translate(312.75949 344.276562)scale(0.1 -0.1)">
       <defs>
        <path d="M 2113 2584 
Q 1688 2584 1439 2293 
Q 1191 2003 1191 1497 
Q 1191 994 1439 701 
Q 1688 409 2113 409 
Q 2538 409 2786 701 
Q 3034 994 3034 1497 
Q 3034 2003 2786 2293 
Q 2538 2584 2113 2584 
z
M 3366 4563 
L 3366 3988 
Q 3128 4100 2886 4159 
Q 2644 4219 2406 4219 
Q 1781 4219 1451 3797 
Q 1122 3375 1075 2522 
Q 1259 2794 1537 2939 
Q 1816 3084 2150 3084 
Q 2853 3084 3261 2657 
Q 3669 2231 3669 1497 
Q 3669 778 3244 343 
Q 2819 -91 2113 -91 
Q 1303 -91 875 529 
Q 447 1150 447 2328 
Q 447 3434 972 4092 
Q 1497 4750 2381 4750 
Q 2619 4750 2861 4703 
Q 3103 4656 3366 4563 
z
" id="DejaVuSans-36" transform="scale(0.015625)"/>
       </defs>
       <use xlink:href="#DejaVuSans-30"/>
       <use x="63.623047" xlink:href="#DejaVuSans-2e"/>
       <use x="95.410156" xlink:href="#DejaVuSans-30"/>
       <use x="159.033203" xlink:href="#DejaVuSans-30"/>
       <use x="222.65625" xlink:href="#DejaVuSans-30"/>
       <use x="286.279297" xlink:href="#DejaVuSans-36"/>
      </g>
     </g>
    </g>
    <g id="text_6">
     <!-- Tiempo de ejecucin (10^(-3) s) -->
     <g transform="translate(113.692656 358.354687)scale(0.1 -0.1)">
      <defs>
       <path d="M -19 4666 
L 3928 4666 
L 3928 4134 
L 2272 4134 
L 2272 0 
L 1638 0 
L 1638 4134 
L -19 4134 
L -19 4666 
z
" id="DejaVuSans-54" transform="scale(0.015625)"/>
       <path d="M 603 3500 
L 1178 3500 
L 1178 0 
L 603 0 
L 603 3500 
z
M 603 4863 
L 1178 4863 
L 1178 4134 
L 603 4134 
L 603 4863 
z
" id="DejaVuSans-69" transform="scale(0.015625)"/>
       <path d="M 3597 1894 
L 3597 1613 
L 953 1613 
Q 991 1019 1311 708 
Q 1631 397 2203 397 
Q 2534 397 2845 478 
Q 3156 559 3463 722 
L 3463 178 
Q 3153 47 2828 -22 
Q 2503 -91 2169 -91 
Q 1331 -91 842 396 
Q 353 884 353 1716 
Q 353 2575 817 3079 
Q 1281 3584 2069 3584 
Q 2775 3584 3186 3129 
Q 3597 2675 3597 1894 
z
M 3022 2063 
Q 3016 2534 2758 2815 
Q 2500 3097 2075 3097 
Q 1594 3097 1305 2825 
Q 1016 2553 972 2059 
L 3022 2063 
z
" id="DejaVuSans-65" transform="scale(0.015625)"/>
       <path d="M 3328 2828 
Q 3544 3216 3844 3400 
Q 4144 3584 4550 3584 
Q 5097 3584 5394 3201 
Q 5691 2819 5691 2113 
L 5691 0 
L 5113 0 
L 5113 2094 
Q 5113 2597 4934 2840 
Q 4756 3084 4391 3084 
Q 3944 3084 3684 2787 
Q 3425 2491 3425 1978 
L 3425 0 
L 2847 0 
L 2847 2094 
Q 2847 2600 2669 2842 
Q 2491 3084 2119 3084 
Q 1678 3084 1418 2786 
Q 1159 2488 1159 1978 
L 1159 0 
L 581 0 
L 581 3500 
L 1159 3500 
L 1159 2956 
Q 1356 3278 1631 3431 
Q 1906 3584 2284 3584 
Q 2666 3584 2933 3390 
Q 3200 3197 3328 2828 
z
" id="DejaVuSans-6d" transform="scale(0.015625)"/>
       <path d="M 1159 525 
L 1159 -1331 
L 581 -1331 
L 581 3500 
L 1159 3500 
L 1159 2969 
Q 1341 3281 1617 3432 
Q 1894 3584 2278 3584 
Q 2916 3584 3314 3078 
Q 3713 2572 3713 1747 
Q 3713 922 3314 415 
Q 2916 -91 2278 -91 
Q 1894 -91 1617 61 
Q 1341 213 1159 525 
z
M 3116 1747 
Q 3116 2381 2855 2742 
Q 2594 3103 2138 3103 
Q 1681 3103 1420 2742 
Q 1159 2381 1159 1747 
Q 1159 1113 1420 752 
Q 1681 391 2138 391 
Q 2594 391 2855 752 
Q 3116 1113 3116 1747 
z
" id="DejaVuSans-70" transform="scale(0.015625)"/>
       <path d="M 1959 3097 
Q 1497 3097 1228 2736 
Q 959 2375 959 1747 
Q 959 1119 1226 758 
Q 1494 397 1959 397 
Q 2419 397 2687 759 
Q 2956 1122 2956 1747 
Q 2956 2369 2687 2733 
Q 2419 3097 1959 3097 
z
M 1959 3584 
Q 2709 3584 3137 3096 
Q 3566 2609 3566 1747 
Q 3566 888 3137 398 
Q 2709 -91 1959 -91 
Q 1206 -91 779 398 
Q 353 888 353 1747 
Q 353 2609 779 3096 
Q 1206 3584 1959 3584 
z
" id="DejaVuSans-6f" transform="scale(0.015625)"/>
       <path id="DejaVuSans-20" transform="scale(0.015625)"/>
       <path d="M 2906 2969 
L 2906 4863 
L 3481 4863 
L 3481 0 
L 2906 0 
L 2906 525 
Q 2725 213 2448 61 
Q 2172 -91 1784 -91 
Q 1150 -91 751 415 
Q 353 922 353 1747 
Q 353 2572 751 3078 
Q 1150 3584 1784 3584 
Q 2172 3584 2448 3432 
Q 2725 3281 2906 2969 
z
M 947 1747 
Q 947 1113 1208 752 
Q 1469 391 1925 391 
Q 2381 391 2643 752 
Q 2906 1113 2906 1747 
Q 2906 2381 2643 2742 
Q 2381 3103 1925 3103 
Q 1469 3103 1208 2742 
Q 947 2381 947 1747 
z
" id="DejaVuSans-64" transform="scale(0.015625)"/>
       <path d="M 603 3500 
L 1178 3500 
L 1178 -63 
Q 1178 -731 923 -1031 
Q 669 -1331 103 -1331 
L -116 -1331 
L -116 -844 
L 38 -844 
Q 366 -844 484 -692 
Q 603 -541 603 -63 
L 603 3500 
z
M 603 4863 
L 1178 4863 
L 1178 4134 
L 603 4134 
L 603 4863 
z
" id="DejaVuSans-6a" transform="scale(0.015625)"/>
       <path d="M 3122 3366 
L 3122 2828 
Q 2878 2963 2633 3030 
Q 2388 3097 2138 3097 
Q 1578 3097 1268 2742 
Q 959 2388 959 1747 
Q 959 1106 1268 751 
Q 1578 397 2138 397 
Q 2388 397 2633 464 
Q 2878 531 3122 666 
L 3122 134 
Q 2881 22 2623 -34 
Q 2366 -91 2075 -91 
Q 1284 -91 818 406 
Q 353 903 353 1747 
Q 353 2603 823 3093 
Q 1294 3584 2113 3584 
Q 2378 3584 2631 3529 
Q 2884 3475 3122 3366 
z
" id="DejaVuSans-63" transform="scale(0.015625)"/>
       <path d="M 544 1381 
L 544 3500 
L 1119 3500 
L 1119 1403 
Q 1119 906 1312 657 
Q 1506 409 1894 409 
Q 2359 409 2629 706 
Q 2900 1003 2900 1516 
L 2900 3500 
L 3475 3500 
L 3475 0 
L 2900 0 
L 2900 538 
Q 2691 219 2414 64 
Q 2138 -91 1772 -91 
Q 1169 -91 856 284 
Q 544 659 544 1381 
z
M 1991 3584 
L 1991 3584 
z
" id="DejaVuSans-75" transform="scale(0.015625)"/>
       <path d="M 1959 3097 
Q 1497 3097 1228 2736 
Q 959 2375 959 1747 
Q 959 1119 1226 758 
Q 1494 397 1959 397 
Q 2419 397 2687 759 
Q 2956 1122 2956 1747 
Q 2956 2369 2687 2733 
Q 2419 3097 1959 3097 
z
M 1959 3584 
Q 2709 3584 3137 3096 
Q 3566 2609 3566 1747 
Q 3566 888 3137 398 
Q 2709 -91 1959 -91 
Q 1206 -91 779 398 
Q 353 888 353 1747 
Q 353 2609 779 3096 
Q 1206 3584 1959 3584 
z
M 2394 5119 
L 3016 5119 
L 1998 3944 
L 1519 3944 
L 2394 5119 
z
" id="DejaVuSans-f3" transform="scale(0.015625)"/>
       <path d="M 3513 2113 
L 3513 0 
L 2938 0 
L 2938 2094 
Q 2938 2591 2744 2837 
Q 2550 3084 2163 3084 
Q 1697 3084 1428 2787 
Q 1159 2491 1159 1978 
L 1159 0 
L 581 0 
L 581 3500 
L 1159 3500 
L 1159 2956 
Q 1366 3272 1645 3428 
Q 1925 3584 2291 3584 
Q 2894 3584 3203 3211 
Q 3513 2838 3513 2113 
z
" id="DejaVuSans-6e" transform="scale(0.015625)"/>
       <path d="M 1984 4856 
Q 1566 4138 1362 3434 
Q 1159 2731 1159 2009 
Q 1159 1288 1364 580 
Q 1569 -128 1984 -844 
L 1484 -844 
Q 1016 -109 783 600 
Q 550 1309 550 2009 
Q 550 2706 781 3412 
Q 1013 4119 1484 4856 
L 1984 4856 
z
" id="DejaVuSans-28" transform="scale(0.015625)"/>
       <path d="M 794 531 
L 1825 531 
L 1825 4091 
L 703 3866 
L 703 4441 
L 1819 4666 
L 2450 4666 
L 2450 531 
L 3481 531 
L 3481 0 
L 794 0 
L 794 531 
z
" id="DejaVuSans-31" transform="scale(0.015625)"/>
       <path d="M 2988 4666 
L 4684 2925 
L 4056 2925 
L 2681 4159 
L 1306 2925 
L 678 2925 
L 2375 4666 
L 2988 4666 
z
" id="DejaVuSans-5e" transform="scale(0.015625)"/>
       <path d="M 313 2009 
L 1997 2009 
L 1997 1497 
L 313 1497 
L 313 2009 
z
" id="DejaVuSans-2d" transform="scale(0.015625)"/>
       <path d="M 513 4856 
L 1013 4856 
Q 1481 4119 1714 3412 
Q 1947 2706 1947 2009 
Q 1947 1309 1714 600 
Q 1481 -109 1013 -844 
L 513 -844 
Q 928 -128 1133 580 
Q 1338 1288 1338 2009 
Q 1338 2731 1133 3434 
Q 928 4138 513 4856 
z
" id="DejaVuSans-29" transform="scale(0.015625)"/>
       <path d="M 2834 3397 
L 2834 2853 
Q 2591 2978 2328 3040 
Q 2066 3103 1784 3103 
Q 1356 3103 1142 2972 
Q 928 2841 928 2578 
Q 928 2378 1081 2264 
Q 1234 2150 1697 2047 
L 1894 2003 
Q 2506 1872 2764 1633 
Q 3022 1394 3022 966 
Q 3022 478 2636 193 
Q 2250 -91 1575 -91 
Q 1294 -91 989 -36 
Q 684 19 347 128 
L 347 722 
Q 666 556 975 473 
Q 1284 391 1588 391 
Q 1994 391 2212 530 
Q 2431 669 2431 922 
Q 2431 1156 2273 1281 
Q 2116 1406 1581 1522 
L 1381 1569 
Q 847 1681 609 1914 
Q 372 2147 372 2553 
Q 372 3047 722 3315 
Q 1072 3584 1716 3584 
Q 2034 3584 2315 3537 
Q 2597 3491 2834 3397 
z
" id="DejaVuSans-73" transform="scale(0.015625)"/>
      </defs>
      <use xlink:href="#DejaVuSans-54"/>
      <use x="57.958984" xlink:href="#DejaVuSans-69"/>
      <use x="85.742188" xlink:href="#DejaVuSans-65"/>
      <use x="147.265625" xlink:href="#DejaVuSans-6d"/>
      <use x="244.677734" xlink:href="#DejaVuSans-70"/>
      <use x="308.154297" xlink:href="#DejaVuSans-6f"/>
      <use x="369.335938" xlink:href="#DejaVuSans-20"/>
      <use x="401.123047" xlink:href="#DejaVuSans-64"/>
      <use x="464.599609" xlink:href="#DejaVuSans-65"/>
      <use x="526.123047" xlink:href="#DejaVuSans-20"/>
      <use x="557.910156" xlink:href="#DejaVuSans-65"/>
      <use x="619.433594" xlink:href="#DejaVuSans-6a"/>
      <use x="647.216797" xlink:href="#DejaVuSans-65"/>
      <use x="708.740234" xlink:href="#DejaVuSans-63"/>
      <use x="763.720703" xlink:href="#DejaVuSans-75"/>
      <use x="827.099609" xlink:href="#DejaVuSans-63"/>
      <use x="882.080078" xlink:href="#DejaVuSans-69"/>
      <use x="909.863281" xlink:href="#DejaVuSans-f3"/>
      <use x="971.044922" xlink:href="#DejaVuSans-6e"/>
      <use x="1034.423828" xlink:href="#DejaVuSans-20"/>
      <use x="1066.210938" xlink:href="#DejaVuSans-28"/>
      <use x="1105.224609" xlink:href="#DejaVuSans-31"/>
      <use x="1168.847656" xlink:href="#DejaVuSans-30"/>
      <use x="1232.470703" xlink:href="#DejaVuSans-5e"/>
      <use x="1316.259766" xlink:href="#DejaVuSans-28"/>
      <use x="1355.273438" xlink:href="#DejaVuSans-2d"/>
      <use x="1391.357422" xlink:href="#DejaVuSans-33"/>
      <use x="1454.980469" xlink:href="#DejaVuSans-29"/>
      <use x="1493.994141" xlink:href="#DejaVuSans-20"/>
      <use x="1525.78125" xlink:href="#DejaVuSans-73"/>
      <use x="1577.880859" xlink:href="#DejaVuSans-29"/>
     </g>
    </g>
   </g>
   <g id="matplotlib.axis_2">
    <g id="ytick_1">
     <g id="line2d_6">
      <defs>
       <path d="M 0 0 
L -3.5 0 
" id="m8fc91eac41" style="stroke:#000000;stroke-width:0.8;"/>
      </defs>
      <g>
       <use style="stroke:#000000;stroke-width:0.8;" x="51.126148" xlink:href="#m8fc91eac41" y="296.643958"/>
      </g>
     </g>
     <g id="text_7">
      <!-- 40 -->
      <g transform="translate(23.021461 300.443177)scale(0.1 -0.1)">
       <defs>
        <path d="M 678 2272 
L 4684 2272 
L 4684 1741 
L 678 1741 
L 678 2272 
z
" id="DejaVuSans-2212" transform="scale(0.015625)"/>
       </defs>
       <use xlink:href="#DejaVuSans-2212"/>
       <use x="83.789062" xlink:href="#DejaVuSans-34"/>
       <use x="147.412109" xlink:href="#DejaVuSans-30"/>
      </g>
     </g>
    </g>
    <g id="ytick_2">
     <g id="line2d_7">
      <g>
       <use style="stroke:#000000;stroke-width:0.8;" x="51.126148" xlink:href="#m8fc91eac41" y="260.306647"/>
      </g>
     </g>
     <g id="text_8">
      <!-- 20 -->
      <g transform="translate(23.021461 264.105866)scale(0.1 -0.1)">
       <use xlink:href="#DejaVuSans-2212"/>
       <use x="83.789062" xlink:href="#DejaVuSans-32"/>
       <use x="147.412109" xlink:href="#DejaVuSans-30"/>
      </g>
     </g>
    </g>
    <g id="ytick_3">
     <g id="line2d_8">
      <g>
       <use style="stroke:#000000;stroke-width:0.8;" x="51.126148" xlink:href="#m8fc91eac41" y="223.969335"/>
      </g>
     </g>
     <g id="text_9">
      <!-- 0 -->
      <g transform="translate(37.763648 227.768554)scale(0.1 -0.1)">
       <use xlink:href="#DejaVuSans-30"/>
      </g>
     </g>
    </g>
    <g id="ytick_4">
     <g id="line2d_9">
      <g>
       <use style="stroke:#000000;stroke-width:0.8;" x="51.126148" xlink:href="#m8fc91eac41" y="187.632024"/>
      </g>
     </g>
     <g id="text_10">
      <!-- 20 -->
      <g transform="translate(31.401148 191.431242)scale(0.1 -0.1)">
       <use xlink:href="#DejaVuSans-32"/>
       <use x="63.623047" xlink:href="#DejaVuSans-30"/>
      </g>
     </g>
    </g>
    <g id="ytick_5">
     <g id="line2d_10">
      <g>
       <use style="stroke:#000000;stroke-width:0.8;" x="51.126148" xlink:href="#m8fc91eac41" y="151.294712"/>
      </g>
     </g>
     <g id="text_11">
      <!-- 40 -->
      <g transform="translate(31.401148 155.093931)scale(0.1 -0.1)">
       <use xlink:href="#DejaVuSans-34"/>
       <use x="63.623047" xlink:href="#DejaVuSans-30"/>
      </g>
     </g>
    </g>
    <g id="ytick_6">
     <g id="line2d_11">
      <g>
       <use style="stroke:#000000;stroke-width:0.8;" x="51.126148" xlink:href="#m8fc91eac41" y="114.957401"/>
      </g>
     </g>
     <g id="text_12">
      <!-- 60 -->
      <g transform="translate(31.401148 118.756619)scale(0.1 -0.1)">
       <use xlink:href="#DejaVuSans-36"/>
       <use x="63.623047" xlink:href="#DejaVuSans-30"/>
      </g>
     </g>
    </g>
    <g id="ytick_7">
     <g id="line2d_12">
      <g>
       <use style="stroke:#000000;stroke-width:0.8;" x="51.126148" xlink:href="#m8fc91eac41" y="78.620089"/>
      </g>
     </g>
     <g id="text_13">
      <!-- 80 -->
      <g transform="translate(31.401148 82.419308)scale(0.1 -0.1)">
       <defs>
        <path d="M 2034 2216 
Q 1584 2216 1326 1975 
Q 1069 1734 1069 1313 
Q 1069 891 1326 650 
Q 1584 409 2034 409 
Q 2484 409 2743 651 
Q 3003 894 3003 1313 
Q 3003 1734 2745 1975 
Q 2488 2216 2034 2216 
z
M 1403 2484 
Q 997 2584 770 2862 
Q 544 3141 544 3541 
Q 544 4100 942 4425 
Q 1341 4750 2034 4750 
Q 2731 4750 3128 4425 
Q 3525 4100 3525 3541 
Q 3525 3141 3298 2862 
Q 3072 2584 2669 2484 
Q 3125 2378 3379 2068 
Q 3634 1759 3634 1313 
Q 3634 634 3220 271 
Q 2806 -91 2034 -91 
Q 1263 -91 848 271 
Q 434 634 434 1313 
Q 434 1759 690 2068 
Q 947 2378 1403 2484 
z
M 1172 3481 
Q 1172 3119 1398 2916 
Q 1625 2713 2034 2713 
Q 2441 2713 2670 2916 
Q 2900 3119 2900 3481 
Q 2900 3844 2670 4047 
Q 2441 4250 2034 4250 
Q 1625 4250 1398 4047 
Q 1172 3844 1172 3481 
z
" id="DejaVuSans-38" transform="scale(0.015625)"/>
       </defs>
       <use xlink:href="#DejaVuSans-38"/>
       <use x="63.623047" xlink:href="#DejaVuSans-30"/>
      </g>
     </g>
    </g>
    <g id="ytick_8">
     <g id="line2d_13">
      <g>
       <use style="stroke:#000000;stroke-width:0.8;" x="51.126148" xlink:href="#m8fc91eac41" y="42.282777"/>
      </g>
     </g>
     <g id="text_14">
      <!-- 100 -->
      <g transform="translate(25.038648 46.081996)scale(0.1 -0.1)">
       <use xlink:href="#DejaVuSans-31"/>
       <use x="63.623047" xlink:href="#DejaVuSans-30"/>
       <use x="127.246094" xlink:href="#DejaVuSans-30"/>
      </g>
     </g>
    </g>
    <g id="text_15">
     <!-- Complejidad - O(n) -->
     <g transform="translate(16.941773 223.477969)rotate(-90)scale(0.1 -0.1)">
      <defs>
       <path d="M 4122 4306 
L 4122 3641 
Q 3803 3938 3442 4084 
Q 3081 4231 2675 4231 
Q 1875 4231 1450 3742 
Q 1025 3253 1025 2328 
Q 1025 1406 1450 917 
Q 1875 428 2675 428 
Q 3081 428 3442 575 
Q 3803 722 4122 1019 
L 4122 359 
Q 3791 134 3420 21 
Q 3050 -91 2638 -91 
Q 1578 -91 968 557 
Q 359 1206 359 2328 
Q 359 3453 968 4101 
Q 1578 4750 2638 4750 
Q 3056 4750 3426 4639 
Q 3797 4528 4122 4306 
z
" id="DejaVuSans-43" transform="scale(0.015625)"/>
       <path d="M 603 4863 
L 1178 4863 
L 1178 0 
L 603 0 
L 603 4863 
z
" id="DejaVuSans-6c" transform="scale(0.015625)"/>
       <path d="M 2194 1759 
Q 1497 1759 1228 1600 
Q 959 1441 959 1056 
Q 959 750 1161 570 
Q 1363 391 1709 391 
Q 2188 391 2477 730 
Q 2766 1069 2766 1631 
L 2766 1759 
L 2194 1759 
z
M 3341 1997 
L 3341 0 
L 2766 0 
L 2766 531 
Q 2569 213 2275 61 
Q 1981 -91 1556 -91 
Q 1019 -91 701 211 
Q 384 513 384 1019 
Q 384 1609 779 1909 
Q 1175 2209 1959 2209 
L 2766 2209 
L 2766 2266 
Q 2766 2663 2505 2880 
Q 2244 3097 1772 3097 
Q 1472 3097 1187 3025 
Q 903 2953 641 2809 
L 641 3341 
Q 956 3463 1253 3523 
Q 1550 3584 1831 3584 
Q 2591 3584 2966 3190 
Q 3341 2797 3341 1997 
z
" id="DejaVuSans-61" transform="scale(0.015625)"/>
       <path d="M 2522 4238 
Q 1834 4238 1429 3725 
Q 1025 3213 1025 2328 
Q 1025 1447 1429 934 
Q 1834 422 2522 422 
Q 3209 422 3611 934 
Q 4013 1447 4013 2328 
Q 4013 3213 3611 3725 
Q 3209 4238 2522 4238 
z
M 2522 4750 
Q 3503 4750 4090 4092 
Q 4678 3434 4678 2328 
Q 4678 1225 4090 567 
Q 3503 -91 2522 -91 
Q 1538 -91 948 565 
Q 359 1222 359 2328 
Q 359 3434 948 4092 
Q 1538 4750 2522 4750 
z
" id="DejaVuSans-4f" transform="scale(0.015625)"/>
      </defs>
      <use xlink:href="#DejaVuSans-43"/>
      <use x="69.824219" xlink:href="#DejaVuSans-6f"/>
      <use x="131.005859" xlink:href="#DejaVuSans-6d"/>
      <use x="228.417969" xlink:href="#DejaVuSans-70"/>
      <use x="291.894531" xlink:href="#DejaVuSans-6c"/>
      <use x="319.677734" xlink:href="#DejaVuSans-65"/>
      <use x="381.201172" xlink:href="#DejaVuSans-6a"/>
      <use x="408.984375" xlink:href="#DejaVuSans-69"/>
      <use x="436.767578" xlink:href="#DejaVuSans-64"/>
      <use x="500.244141" xlink:href="#DejaVuSans-61"/>
      <use x="561.523438" xlink:href="#DejaVuSans-64"/>
      <use x="625" xlink:href="#DejaVuSans-20"/>
      <use x="656.787109" xlink:href="#DejaVuSans-2d"/>
      <use x="692.871094" xlink:href="#DejaVuSans-20"/>
      <use x="724.658203" xlink:href="#DejaVuSans-4f"/>
      <use x="803.369141" xlink:href="#DejaVuSans-28"/>
      <use x="842.382812" xlink:href="#DejaVuSans-6e"/>
      <use x="905.761719" xlink:href="#DejaVuSans-29"/>
     </g>
    </g>
   </g>
   <g id="line2d_14">
    <path clip-path="url(#p6f6b7f1096)" d="M 82.24194 227.879051 
L 84.693172 225.983796 
L 87.144403 224.088541 
L 89.595634 222.193285 
L 92.046866 220.29803 
L 94.498097 218.402775 
L 96.949328 216.50752 
L 99.40056 214.612265 
L 101.851791 212.717009 
L 104.303022 210.821754 
L 106.754254 208.926499 
L 109.205485 207.031244 
L 111.656716 205.135989 
L 114.107948 203.240733 
L 116.559179 201.345478 
L 119.01041 199.450223 
L 121.461642 197.554968 
L 123.912873 195.659713 
L 126.364104 193.764457 
L 128.815336 191.869202 
L 131.266567 189.973947 
L 133.717798 188.078692 
L 136.16903 186.183437 
L 138.620261 184.288181 
L 141.071492 182.392926 
L 143.522724 180.497671 
L 145.973955 178.602416 
L 148.425186 176.707161 
L 150.876418 174.811905 
L 153.327649 172.91665 
L 155.77888 171.021395 
L 158.230112 169.12614 
L 160.681343 167.230885 
L 163.132574 165.335629 
L 165.583806 163.440374 
L 168.035037 161.545119 
L 170.486268 159.649864 
L 172.9375 157.754609 
L 175.388731 155.859353 
L 177.839962 153.964098 
L 180.291194 152.068843 
L 182.742425 150.173588 
L 185.193656 148.278333 
L 187.644888 146.383077 
L 190.096119 144.487822 
L 192.54735 142.592567 
L 194.998582 140.697312 
L 197.449813 138.802057 
L 199.901044 136.906801 
L 202.352276 135.011546 
L 204.803507 133.116291 
L 207.254738 131.221036 
L 209.70597 129.325781 
L 212.157201 127.430525 
L 214.608433 125.53527 
L 217.059664 123.640015 
L 219.510895 121.74476 
L 221.962127 119.849505 
L 224.413358 117.954249 
L 226.864589 116.058994 
L 229.315821 114.163739 
L 231.767052 112.268484 
L 234.218283 110.373229 
L 236.669515 108.477973 
L 239.120746 106.582718 
L 241.571977 104.687463 
L 244.023209 102.792208 
L 246.47444 100.896953 
L 248.925671 99.001697 
L 251.376903 97.106442 
L 253.828134 95.211187 
L 256.279365 93.315932 
L 258.730597 91.420677 
L 261.181828 89.525421 
L 263.633059 87.630166 
L 266.084291 85.734911 
L 268.535522 83.839656 
L 270.986753 81.944401 
L 273.437985 80.049145 
L 275.889216 78.15389 
L 278.340447 76.258635 
L 280.791679 74.36338 
L 283.24291 72.468125 
L 285.694141 70.572869 
L 288.145373 68.677614 
L 290.596604 66.782359 
L 293.047835 64.887104 
L 295.499067 62.991849 
L 297.950298 61.096593 
L 300.401529 59.201338 
L 302.852761 57.306083 
L 305.303992 55.410828 
L 307.755223 53.515573 
L 310.206455 51.620317 
L 312.657686 49.725062 
L 315.108917 47.829807 
L 317.560149 45.934552 
L 320.01138 44.039297 
L 322.462611 42.144041 
L 324.913843 40.248786 
" style="fill:none;stroke:#1f77b4;stroke-linecap:square;stroke-width:2.25;"/>
   </g>
   <g id="line2d_15">
    <path clip-path="url(#p6f6b7f1096)" d="M 74.342763 292.991813 
L 74.966857 290.496869 
L 75.590952 288.001925 
L 76.215046 285.506982 
L 76.83914 283.012038 
L 77.463234 280.517094 
L 78.087328 278.02215 
L 78.711422 275.527206 
L 79.335516 273.032262 
L 79.95961 270.537318 
L 80.583705 268.042374 
L 81.207799 265.54743 
L 81.831893 263.052486 
L 82.455987 260.557543 
L 83.080081 258.062599 
L 83.704175 255.567655 
L 84.328269 253.072711 
L 84.952364 250.577767 
L 85.576458 248.082823 
L 86.200552 245.587879 
L 86.824646 243.092935 
L 87.44874 240.597991 
L 88.072834 238.103048 
L 88.696928 235.608104 
L 89.321022 233.11316 
L 89.945117 230.618216 
L 90.569211 228.123272 
L 91.193305 225.628328 
L 91.817399 223.133384 
L 92.441493 220.63844 
L 93.065587 218.143496 
L 93.689681 215.648552 
L 94.313776 213.153609 
L 94.93787 210.658665 
L 95.561964 208.163721 
L 96.186058 205.668777 
L 96.810152 203.173833 
L 97.434246 200.678889 
L 98.05834 198.183945 
L 98.682434 195.689001 
L 99.306529 193.194057 
L 99.930623 190.699113 
L 100.554717 188.20417 
L 101.178811 185.709226 
L 101.802905 183.214282 
L 102.426999 180.719338 
L 103.051093 178.224394 
L 103.675188 175.72945 
L 104.299282 173.234506 
L 104.923376 170.739562 
L 105.54747 168.244618 
L 106.171564 165.749675 
L 106.795658 163.254731 
L 107.419752 160.759787 
L 108.043846 158.264843 
L 108.667941 155.769899 
L 109.292035 153.274955 
L 109.916129 150.780011 
L 110.540223 148.285067 
L 111.164317 145.790123 
L 111.788411 143.295179 
L 112.412505 140.800236 
L 113.0366 138.305292 
L 113.660694 135.810348 
L 114.284788 133.315404 
L 114.908882 130.82046 
L 115.532976 128.325516 
L 116.15707 125.830572 
L 116.781164 123.335628 
L 117.405258 120.840684 
L 118.029353 118.34574 
L 118.653447 115.850797 
L 119.277541 113.355853 
L 119.901635 110.860909 
L 120.525729 108.365965 
L 121.149823 105.871021 
L 121.773917 103.376077 
L 122.398012 100.881133 
L 123.022106 98.386189 
L 123.6462 95.891245 
L 124.270294 93.396302 
L 124.894388 90.901358 
L 125.518482 88.406414 
L 126.142576 85.91147 
L 126.76667 83.416526 
L 127.390765 80.921582 
L 128.014859 78.426638 
L 128.638953 75.931694 
L 129.263047 73.43675 
L 129.887141 70.941806 
L 130.511235 68.446863 
L 131.135329 65.951919 
L 131.759424 63.456975 
L 132.383518 60.962031 
L 133.007612 58.467087 
L 133.631706 55.972143 
L 134.2558 53.477199 
L 134.879894 50.982255 
L 135.503988 48.487311 
L 136.128082 45.992367 
" style="fill:none;stroke:#ff7f0e;stroke-linecap:square;stroke-width:2.25;"/>
   </g>
   <g id="line2d_16">
    <path clip-path="url(#p6f6b7f1096)" d="M 64.163657 291.775356 
L 64.862567 289.353561 
L 65.561476 286.931766 
L 66.260385 284.509972 
L 66.959294 282.088177 
L 67.658204 279.666382 
L 68.357113 277.244587 
L 69.056022 274.822793 
L 69.754932 272.400998 
L 70.453841 269.979203 
L 71.15275 267.557409 
L 71.851659 265.135614 
L 72.550569 262.713819 
L 73.249478 260.292024 
L 73.948387 257.87023 
L 74.647296 255.448435 
L 75.346206 253.02664 
L 76.045115 250.604846 
L 76.744024 248.183051 
L 77.442934 245.761256 
L 78.141843 243.339461 
L 78.840752 240.917667 
L 79.539661 238.495872 
L 80.238571 236.074077 
L 80.93748 233.652283 
L 81.636389 231.230488 
L 82.335298 228.808693 
L 83.034208 226.386898 
L 83.733117 223.965104 
L 84.432026 221.543309 
L 85.130936 219.121514 
L 85.829845 216.69972 
L 86.528754 214.277925 
L 87.227663 211.85613 
L 87.926573 209.434335 
L 88.625482 207.012541 
L 89.324391 204.590746 
L 90.023301 202.168951 
L 90.72221 199.747156 
L 91.421119 197.325362 
L 92.120028 194.903567 
L 92.818938 192.481772 
L 93.517847 190.059978 
L 94.216756 187.638183 
L 94.915665 185.216388 
L 95.614575 182.794593 
L 96.313484 180.372799 
L 97.012393 177.951004 
L 97.711303 175.529209 
L 98.410212 173.107415 
L 99.109121 170.68562 
L 99.80803 168.263825 
L 100.50694 165.84203 
L 101.205849 163.420236 
L 101.904758 160.998441 
L 102.603668 158.576646 
L 103.302577 156.154852 
L 104.001486 153.733057 
L 104.700395 151.311262 
L 105.399305 148.889467 
L 106.098214 146.467673 
L 106.797123 144.045878 
L 107.496032 141.624083 
L 108.194942 139.202289 
L 108.893851 136.780494 
L 109.59276 134.358699 
L 110.29167 131.936904 
L 110.990579 129.51511 
L 111.689488 127.093315 
L 112.388397 124.67152 
L 113.087307 122.249726 
L 113.786216 119.827931 
L 114.485125 117.406136 
L 115.184034 114.984341 
L 115.882944 112.562547 
L 116.581853 110.140752 
L 117.280762 107.718957 
L 117.979672 105.297162 
L 118.678581 102.875368 
L 119.37749 100.453573 
L 120.076399 98.031778 
L 120.775309 95.609984 
L 121.474218 93.188189 
L 122.173127 90.766394 
L 122.872037 88.344599 
L 123.570946 85.922805 
L 124.269855 83.50101 
L 124.968764 81.079215 
L 125.667674 78.657421 
L 126.366583 76.235626 
L 127.065492 73.813831 
L 127.764401 71.392036 
L 128.463311 68.970242 
L 129.16222 66.548447 
L 129.861129 64.126652 
L 130.560039 61.704858 
L 131.258948 59.283063 
L 131.957857 56.861268 
L 132.656766 54.439473 
L 133.355676 52.017679 
" style="fill:none;stroke:#2ca02c;stroke-linecap:square;stroke-width:2.25;"/>
   </g>
   <g id="patch_3">
    <path d="M 51.126148 329.678125 
L 51.126148 22.798125 
" style="fill:none;stroke:#000000;stroke-linecap:square;stroke-linejoin:miter;stroke-width:0.8;"/>
   </g>
   <g id="patch_4">
    <path d="M 51.126148 329.678125 
L 337.951352 329.678125 
" style="fill:none;stroke:#000000;stroke-linecap:square;stroke-linejoin:miter;stroke-width:0.8;"/>
   </g>
   <g id="text_16">
    <!-- Correlacin de tiempo de ejecucin con complejidad esperada -->
    <g transform="translate(7.2 16.798125)scale(0.12 -0.12)">
     <defs>
      <path d="M 2631 2963 
Q 2534 3019 2420 3045 
Q 2306 3072 2169 3072 
Q 1681 3072 1420 2755 
Q 1159 2438 1159 1844 
L 1159 0 
L 581 0 
L 581 3500 
L 1159 3500 
L 1159 2956 
Q 1341 3275 1631 3429 
Q 1922 3584 2338 3584 
Q 2397 3584 2469 3576 
Q 2541 3569 2628 3553 
L 2631 2963 
z
" id="DejaVuSans-72" transform="scale(0.015625)"/>
      <path d="M 1172 4494 
L 1172 3500 
L 2356 3500 
L 2356 3053 
L 1172 3053 
L 1172 1153 
Q 1172 725 1289 603 
Q 1406 481 1766 481 
L 2356 481 
L 2356 0 
L 1766 0 
Q 1100 0 847 248 
Q 594 497 594 1153 
L 594 3053 
L 172 3053 
L 172 3500 
L 594 3500 
L 594 4494 
L 1172 4494 
z
" id="DejaVuSans-74" transform="scale(0.015625)"/>
     </defs>
     <use xlink:href="#DejaVuSans-43"/>
     <use x="69.824219" xlink:href="#DejaVuSans-6f"/>
     <use x="131.005859" xlink:href="#DejaVuSans-72"/>
     <use x="170.369141" xlink:href="#DejaVuSans-72"/>
     <use x="209.232422" xlink:href="#DejaVuSans-65"/>
     <use x="270.755859" xlink:href="#DejaVuSans-6c"/>
     <use x="298.539062" xlink:href="#DejaVuSans-61"/>
     <use x="359.818359" xlink:href="#DejaVuSans-63"/>
     <use x="414.798828" xlink:href="#DejaVuSans-69"/>
     <use x="442.582031" xlink:href="#DejaVuSans-f3"/>
     <use x="503.763672" xlink:href="#DejaVuSans-6e"/>
     <use x="567.142578" xlink:href="#DejaVuSans-20"/>
     <use x="598.929688" xlink:href="#DejaVuSans-64"/>
     <use x="662.40625" xlink:href="#DejaVuSans-65"/>
     <use x="723.929688" xlink:href="#DejaVuSans-20"/>
     <use x="755.716797" xlink:href="#DejaVuSans-74"/>
     <use x="794.925781" xlink:href="#DejaVuSans-69"/>
     <use x="822.708984" xlink:href="#DejaVuSans-65"/>
     <use x="884.232422" xlink:href="#DejaVuSans-6d"/>
     <use x="981.644531" xlink:href="#DejaVuSans-70"/>
     <use x="1045.121094" xlink:href="#DejaVuSans-6f"/>
     <use x="1106.302734" xlink:href="#DejaVuSans-20"/>
     <use x="1138.089844" xlink:href="#DejaVuSans-64"/>
     <use x="1201.566406" xlink:href="#DejaVuSans-65"/>
     <use x="1263.089844" xlink:href="#DejaVuSans-20"/>
     <use x="1294.876953" xlink:href="#DejaVuSans-65"/>
     <use x="1356.400391" xlink:href="#DejaVuSans-6a"/>
     <use x="1384.183594" xlink:href="#DejaVuSans-65"/>
     <use x="1445.707031" xlink:href="#DejaVuSans-63"/>
     <use x="1500.6875" xlink:href="#DejaVuSans-75"/>
     <use x="1564.066406" xlink:href="#DejaVuSans-63"/>
     <use x="1619.046875" xlink:href="#DejaVuSans-69"/>
     <use x="1646.830078" xlink:href="#DejaVuSans-f3"/>
     <use x="1708.011719" xlink:href="#DejaVuSans-6e"/>
     <use x="1771.390625" xlink:href="#DejaVuSans-20"/>
     <use x="1803.177734" xlink:href="#DejaVuSans-63"/>
     <use x="1858.158203" xlink:href="#DejaVuSans-6f"/>
     <use x="1919.339844" xlink:href="#DejaVuSans-6e"/>
     <use x="1982.71875" xlink:href="#DejaVuSans-20"/>
     <use x="2014.505859" xlink:href="#DejaVuSans-63"/>
     <use x="2069.486328" xlink:href="#DejaVuSans-6f"/>
     <use x="2130.667969" xlink:href="#DejaVuSans-6d"/>
     <use x="2228.080078" xlink:href="#DejaVuSans-70"/>
     <use x="2291.556641" xlink:href="#DejaVuSans-6c"/>
     <use x="2319.339844" xlink:href="#DejaVuSans-65"/>
     <use x="2380.863281" xlink:href="#DejaVuSans-6a"/>
     <use x="2408.646484" xlink:href="#DejaVuSans-69"/>
     <use x="2436.429688" xlink:href="#DejaVuSans-64"/>
     <use x="2499.90625" xlink:href="#DejaVuSans-61"/>
     <use x="2561.185547" xlink:href="#DejaVuSans-64"/>
     <use x="2624.662109" xlink:href="#DejaVuSans-20"/>
     <use x="2656.449219" xlink:href="#DejaVuSans-65"/>
     <use x="2717.972656" xlink:href="#DejaVuSans-73"/>
     <use x="2770.072266" xlink:href="#DejaVuSans-70"/>
     <use x="2833.548828" xlink:href="#DejaVuSans-65"/>
     <use x="2895.072266" xlink:href="#DejaVuSans-72"/>
     <use x="2936.185547" xlink:href="#DejaVuSans-61"/>
     <use x="2997.464844" xlink:href="#DejaVuSans-64"/>
     <use x="3060.941406" xlink:href="#DejaVuSans-61"/>
    </g>
   </g>
   <g id="legend_1">
    <g id="patch_5">
     <path d="M 58.126148 89.510625 
L 113.937086 89.510625 
Q 115.937086 89.510625 115.937086 87.510625 
L 115.937086 29.798125 
Q 115.937086 27.798125 113.937086 27.798125 
L 58.126148 27.798125 
Q 56.126148 27.798125 56.126148 29.798125 
L 56.126148 87.510625 
Q 56.126148 89.510625 58.126148 89.510625 
z
" style="fill:#ffffff;opacity:0.8;stroke:#cccccc;stroke-linejoin:miter;"/>
    </g>
    <g id="text_17">
     <!-- Algoritmo -->
     <g transform="translate(61.654273 39.396563)scale(0.1 -0.1)">
      <defs>
       <path d="M 2188 4044 
L 1331 1722 
L 3047 1722 
L 2188 4044 
z
M 1831 4666 
L 2547 4666 
L 4325 0 
L 3669 0 
L 3244 1197 
L 1141 1197 
L 716 0 
L 50 0 
L 1831 4666 
z
" id="DejaVuSans-41" transform="scale(0.015625)"/>
       <path d="M 2906 1791 
Q 2906 2416 2648 2759 
Q 2391 3103 1925 3103 
Q 1463 3103 1205 2759 
Q 947 2416 947 1791 
Q 947 1169 1205 825 
Q 1463 481 1925 481 
Q 2391 481 2648 825 
Q 2906 1169 2906 1791 
z
M 3481 434 
Q 3481 -459 3084 -895 
Q 2688 -1331 1869 -1331 
Q 1566 -1331 1297 -1286 
Q 1028 -1241 775 -1147 
L 775 -588 
Q 1028 -725 1275 -790 
Q 1522 -856 1778 -856 
Q 2344 -856 2625 -561 
Q 2906 -266 2906 331 
L 2906 616 
Q 2728 306 2450 153 
Q 2172 0 1784 0 
Q 1141 0 747 490 
Q 353 981 353 1791 
Q 353 2603 747 3093 
Q 1141 3584 1784 3584 
Q 2172 3584 2450 3431 
Q 2728 3278 2906 2969 
L 2906 3500 
L 3481 3500 
L 3481 434 
z
" id="DejaVuSans-67" transform="scale(0.015625)"/>
      </defs>
      <use xlink:href="#DejaVuSans-41"/>
      <use x="68.408203" xlink:href="#DejaVuSans-6c"/>
      <use x="96.191406" xlink:href="#DejaVuSans-67"/>
      <use x="159.667969" xlink:href="#DejaVuSans-6f"/>
      <use x="220.849609" xlink:href="#DejaVuSans-72"/>
      <use x="261.962891" xlink:href="#DejaVuSans-69"/>
      <use x="289.746094" xlink:href="#DejaVuSans-74"/>
      <use x="328.955078" xlink:href="#DejaVuSans-6d"/>
      <use x="426.367188" xlink:href="#DejaVuSans-6f"/>
     </g>
    </g>
    <g id="PathCollection_4">
     <g>
      <use style="fill:#1f77b4;fill-opacity:0.8;stroke:#1f77b4;stroke-opacity:0.8;" x="70.126148" xlink:href="#m6b3913587d" y="51.449688"/>
     </g>
    </g>
    <g id="text_18">
     <!-- BT-F -->
     <g transform="translate(88.126148 54.074688)scale(0.1 -0.1)">
      <defs>
       <path d="M 1259 2228 
L 1259 519 
L 2272 519 
Q 2781 519 3026 730 
Q 3272 941 3272 1375 
Q 3272 1813 3026 2020 
Q 2781 2228 2272 2228 
L 1259 2228 
z
M 1259 4147 
L 1259 2741 
L 2194 2741 
Q 2656 2741 2882 2914 
Q 3109 3088 3109 3444 
Q 3109 3797 2882 3972 
Q 2656 4147 2194 4147 
L 1259 4147 
z
M 628 4666 
L 2241 4666 
Q 2963 4666 3353 4366 
Q 3744 4066 3744 3513 
Q 3744 3084 3544 2831 
Q 3344 2578 2956 2516 
Q 3422 2416 3680 2098 
Q 3938 1781 3938 1306 
Q 3938 681 3513 340 
Q 3088 0 2303 0 
L 628 0 
L 628 4666 
z
" id="DejaVuSans-42" transform="scale(0.015625)"/>
       <path d="M 628 4666 
L 3309 4666 
L 3309 4134 
L 1259 4134 
L 1259 2759 
L 3109 2759 
L 3109 2228 
L 1259 2228 
L 1259 0 
L 628 0 
L 628 4666 
z
" id="DejaVuSans-46" transform="scale(0.015625)"/>
      </defs>
      <use xlink:href="#DejaVuSans-42"/>
      <use x="68.603516" xlink:href="#DejaVuSans-54"/>
      <use x="120.5625" xlink:href="#DejaVuSans-2d"/>
      <use x="156.646484" xlink:href="#DejaVuSans-46"/>
     </g>
    </g>
    <g id="PathCollection_5">
     <g>
      <use style="fill:#ff7f0e;fill-opacity:0.8;stroke:#ff7f0e;stroke-opacity:0.8;" x="70.126148" xlink:href="#m42c6a61aca" y="66.127813"/>
     </g>
    </g>
    <g id="text_19">
     <!-- BT-O -->
     <g transform="translate(88.126148 68.752813)scale(0.1 -0.1)">
      <use xlink:href="#DejaVuSans-42"/>
      <use x="68.603516" xlink:href="#DejaVuSans-54"/>
      <use x="120.5625" xlink:href="#DejaVuSans-2d"/>
      <use x="159.396484" xlink:href="#DejaVuSans-4f"/>
     </g>
    </g>
    <g id="PathCollection_6">
     <g>
      <use style="fill:#2ca02c;fill-opacity:0.8;stroke:#2ca02c;stroke-opacity:0.8;" x="70.126148" xlink:href="#m64989271cb" y="80.805938"/>
     </g>
    </g>
    <g id="text_20">
     <!-- BT -->
     <g transform="translate(88.126148 83.430938)scale(0.1 -0.1)">
      <use xlink:href="#DejaVuSans-42"/>
      <use x="68.603516" xlink:href="#DejaVuSans-54"/>
     </g>
    </g>
   </g>
  </g>
 </g>
 <defs>
  <clipPath id="p6f6b7f1096">
   <rect height="306.88" width="286.825204" x="51.126148" y="22.798125"/>
  </clipPath>
 </defs>
</svg>
