<?xml version="1.0" encoding="utf-8" standalone="no"?>
<!DOCTYPE svg PUBLIC "-//W3C//DTD SVG 1.1//EN"
  "http://www.w3.org/Graphics/SVG/1.1/DTD/svg11.dtd">
<svg height="356.714375pt" version="1.1" viewBox="0 0 389.0775 356.714375" width="389.0775pt" xmlns="http://www.w3.org/2000/svg" xmlns:xlink="http://www.w3.org/1999/xlink">
 <metadata>
  <rdf:RDF xmlns:cc="http://creativecommons.org/ns#" xmlns:dc="http://purl.org/dc/elements/1.1/" xmlns:rdf="http://www.w3.org/1999/02/22-rdf-syntax-ns#">
   <cc:Work>
    <dc:type rdf:resource="http://purl.org/dc/dcmitype/StillImage"/>
    <dc:date>2021-09-12T20:27:19.927841</dc:date>
    <dc:format>image/svg+xml</dc:format>
    <dc:creator>
     <cc:Agent>
      <dc:title>Matplotlib v3.4.3, https://matplotlib.org/</dc:title>
     </cc:Agent>
    </dc:creator>
   </cc:Work>
  </rdf:RDF>
 </metadata>
 <defs>
  <style type="text/css">*{stroke-linecap:butt;stroke-linejoin:round;}</style>
 </defs>
 <g id="figure_1">
  <g id="patch_1">
   <path d="M -0 356.714375 
L 389.0775 356.714375 
L 389.0775 0 
L -0 0 
z
" style="fill:#ffffff;"/>
  </g>
  <g id="axes_1">
   <g id="patch_2">
    <path d="M 43.79875 318.758125 
L 345.27875 318.758125 
L 345.27875 22.798125 
L 43.79875 22.798125 
z
" style="fill:#ffffff;"/>
   </g>
   <g id="PathCollection_1">
    <defs>
     <path d="M 0 3 
C 0.795609 3 1.55874 2.683901 2.12132 2.12132 
C 2.683901 1.55874 3 0.795609 3 0 
C 3 -0.795609 2.683901 -1.55874 2.12132 -2.12132 
C 1.55874 -2.683901 0.795609 -3 0 -3 
C -0.795609 -3 -1.55874 -2.683901 -2.12132 -2.12132 
C -2.683901 -1.55874 -3 -0.795609 -3 0 
C -3 0.795609 -2.683901 1.55874 -2.12132 2.12132 
C -1.55874 2.683901 -0.795609 3 0 3 
z
" id="mc3c5b9dd0e" style="stroke:#1f77b4;stroke-opacity:0.8;"/>
    </defs>
    <g clip-path="url(#pad6483321d)">
     <use style="fill:#1f77b4;fill-opacity:0.8;stroke:#1f77b4;stroke-opacity:0.8;" x="57.502386" xlink:href="#mc3c5b9dd0e" y="301.633103"/>
     <use style="fill:#1f77b4;fill-opacity:0.8;stroke:#1f77b4;stroke-opacity:0.8;" x="57.502388" xlink:href="#mc3c5b9dd0e" y="301.633103"/>
     <use style="fill:#1f77b4;fill-opacity:0.8;stroke:#1f77b4;stroke-opacity:0.8;" x="57.50239" xlink:href="#mc3c5b9dd0e" y="301.633103"/>
     <use style="fill:#1f77b4;fill-opacity:0.8;stroke:#1f77b4;stroke-opacity:0.8;" x="57.50239" xlink:href="#mc3c5b9dd0e" y="301.633103"/>
     <use style="fill:#1f77b4;fill-opacity:0.8;stroke:#1f77b4;stroke-opacity:0.8;" x="57.502392" xlink:href="#mc3c5b9dd0e" y="301.633103"/>
     <use style="fill:#1f77b4;fill-opacity:0.8;stroke:#1f77b4;stroke-opacity:0.8;" x="57.502393" xlink:href="#mc3c5b9dd0e" y="301.633103"/>
     <use style="fill:#1f77b4;fill-opacity:0.8;stroke:#1f77b4;stroke-opacity:0.8;" x="57.502398" xlink:href="#mc3c5b9dd0e" y="301.633103"/>
     <use style="fill:#1f77b4;fill-opacity:0.8;stroke:#1f77b4;stroke-opacity:0.8;" x="57.5024" xlink:href="#mc3c5b9dd0e" y="301.633103"/>
     <use style="fill:#1f77b4;fill-opacity:0.8;stroke:#1f77b4;stroke-opacity:0.8;" x="57.502405" xlink:href="#mc3c5b9dd0e" y="301.633103"/>
     <use style="fill:#1f77b4;fill-opacity:0.8;stroke:#1f77b4;stroke-opacity:0.8;" x="57.502412" xlink:href="#mc3c5b9dd0e" y="301.633103"/>
     <use style="fill:#1f77b4;fill-opacity:0.8;stroke:#1f77b4;stroke-opacity:0.8;" x="57.502429" xlink:href="#mc3c5b9dd0e" y="301.633103"/>
     <use style="fill:#1f77b4;fill-opacity:0.8;stroke:#1f77b4;stroke-opacity:0.8;" x="57.50245" xlink:href="#mc3c5b9dd0e" y="301.633103"/>
     <use style="fill:#1f77b4;fill-opacity:0.8;stroke:#1f77b4;stroke-opacity:0.8;" x="57.502471" xlink:href="#mc3c5b9dd0e" y="301.633103"/>
     <use style="fill:#1f77b4;fill-opacity:0.8;stroke:#1f77b4;stroke-opacity:0.8;" x="57.502515" xlink:href="#mc3c5b9dd0e" y="301.633103"/>
     <use style="fill:#1f77b4;fill-opacity:0.8;stroke:#1f77b4;stroke-opacity:0.8;" x="57.502587" xlink:href="#mc3c5b9dd0e" y="301.633103"/>
     <use style="fill:#1f77b4;fill-opacity:0.8;stroke:#1f77b4;stroke-opacity:0.8;" x="57.502745" xlink:href="#mc3c5b9dd0e" y="301.633103"/>
     <use style="fill:#1f77b4;fill-opacity:0.8;stroke:#1f77b4;stroke-opacity:0.8;" x="57.502891" xlink:href="#mc3c5b9dd0e" y="301.633102"/>
     <use style="fill:#1f77b4;fill-opacity:0.8;stroke:#1f77b4;stroke-opacity:0.8;" x="57.503196" xlink:href="#mc3c5b9dd0e" y="301.633101"/>
     <use style="fill:#1f77b4;fill-opacity:0.8;stroke:#1f77b4;stroke-opacity:0.8;" x="57.503677" xlink:href="#mc3c5b9dd0e" y="301.633099"/>
     <use style="fill:#1f77b4;fill-opacity:0.8;stroke:#1f77b4;stroke-opacity:0.8;" x="57.504389" xlink:href="#mc3c5b9dd0e" y="301.633095"/>
     <use style="fill:#1f77b4;fill-opacity:0.8;stroke:#1f77b4;stroke-opacity:0.8;" x="57.505792" xlink:href="#mc3c5b9dd0e" y="301.633087"/>
     <use style="fill:#1f77b4;fill-opacity:0.8;stroke:#1f77b4;stroke-opacity:0.8;" x="57.50727" xlink:href="#mc3c5b9dd0e" y="301.633071"/>
     <use style="fill:#1f77b4;fill-opacity:0.8;stroke:#1f77b4;stroke-opacity:0.8;" x="57.509975" xlink:href="#mc3c5b9dd0e" y="301.63304"/>
     <use style="fill:#1f77b4;fill-opacity:0.8;stroke:#1f77b4;stroke-opacity:0.8;" x="57.517307" xlink:href="#mc3c5b9dd0e" y="301.632976"/>
     <use style="fill:#1f77b4;fill-opacity:0.8;stroke:#1f77b4;stroke-opacity:0.8;" x="57.525589" xlink:href="#mc3c5b9dd0e" y="301.63285"/>
     <use style="fill:#1f77b4;fill-opacity:0.8;stroke:#1f77b4;stroke-opacity:0.8;" x="57.539554" xlink:href="#mc3c5b9dd0e" y="301.632597"/>
     <use style="fill:#1f77b4;fill-opacity:0.8;stroke:#1f77b4;stroke-opacity:0.8;" x="57.565684" xlink:href="#mc3c5b9dd0e" y="301.632091"/>
     <use style="fill:#1f77b4;fill-opacity:0.8;stroke:#1f77b4;stroke-opacity:0.8;" x="57.605997" xlink:href="#mc3c5b9dd0e" y="301.631078"/>
     <use style="fill:#1f77b4;fill-opacity:0.8;stroke:#1f77b4;stroke-opacity:0.8;" x="57.64402" xlink:href="#mc3c5b9dd0e" y="301.629054"/>
     <use style="fill:#1f77b4;fill-opacity:0.8;stroke:#1f77b4;stroke-opacity:0.8;" x="57.729947" xlink:href="#mc3c5b9dd0e" y="301.625004"/>
     <use style="fill:#1f77b4;fill-opacity:0.8;stroke:#1f77b4;stroke-opacity:0.8;" x="57.821487" xlink:href="#mc3c5b9dd0e" y="301.616905"/>
     <use style="fill:#1f77b4;fill-opacity:0.8;stroke:#1f77b4;stroke-opacity:0.8;" x="57.963507" xlink:href="#mc3c5b9dd0e" y="301.600708"/>
     <use style="fill:#1f77b4;fill-opacity:0.8;stroke:#1f77b4;stroke-opacity:0.8;" x="58.198544" xlink:href="#mc3c5b9dd0e" y="301.568312"/>
     <use style="fill:#1f77b4;fill-opacity:0.8;stroke:#1f77b4;stroke-opacity:0.8;" x="58.593641" xlink:href="#mc3c5b9dd0e" y="301.503522"/>
     <use style="fill:#1f77b4;fill-opacity:0.8;stroke:#1f77b4;stroke-opacity:0.8;" x="59.22378" xlink:href="#mc3c5b9dd0e" y="301.373941"/>
     <use style="fill:#1f77b4;fill-opacity:0.8;stroke:#1f77b4;stroke-opacity:0.8;" x="60.237708" xlink:href="#mc3c5b9dd0e" y="301.114778"/>
     <use style="fill:#1f77b4;fill-opacity:0.8;stroke:#1f77b4;stroke-opacity:0.8;" x="61.875202" xlink:href="#mc3c5b9dd0e" y="300.596454"/>
     <use style="fill:#1f77b4;fill-opacity:0.8;stroke:#1f77b4;stroke-opacity:0.8;" x="64.385704" xlink:href="#mc3c5b9dd0e" y="299.559804"/>
     <use style="fill:#1f77b4;fill-opacity:0.8;stroke:#1f77b4;stroke-opacity:0.8;" x="68.691222" xlink:href="#mc3c5b9dd0e" y="297.486505"/>
     <use style="fill:#1f77b4;fill-opacity:0.8;stroke:#1f77b4;stroke-opacity:0.8;" x="75.300619" xlink:href="#mc3c5b9dd0e" y="293.339908"/>
     <use style="fill:#1f77b4;fill-opacity:0.8;stroke:#1f77b4;stroke-opacity:0.8;" x="86.439379" xlink:href="#mc3c5b9dd0e" y="285.046712"/>
     <use style="fill:#1f77b4;fill-opacity:0.8;stroke:#1f77b4;stroke-opacity:0.8;" x="103.667736" xlink:href="#mc3c5b9dd0e" y="268.460322"/>
     <use style="fill:#1f77b4;fill-opacity:0.8;stroke:#1f77b4;stroke-opacity:0.8;" x="131.947017" xlink:href="#mc3c5b9dd0e" y="235.28754"/>
     <use style="fill:#1f77b4;fill-opacity:0.8;stroke:#1f77b4;stroke-opacity:0.8;" x="178.684708" xlink:href="#mc3c5b9dd0e" y="168.941978"/>
     <use style="fill:#1f77b4;fill-opacity:0.8;stroke:#1f77b4;stroke-opacity:0.8;" x="253.320392" xlink:href="#mc3c5b9dd0e" y="36.250852"/>
    </g>
   </g>
   <g id="PolyCollection_1">
    <path clip-path="url(#pad6483321d)" d="M 57.502386 301.891589 
L 57.502386 305.270117 
L 59.480346 302.817813 
L 61.458306 300.314184 
L 63.436265 298.30259 
L 65.414225 296.847075 
L 67.392185 295.556147 
L 69.370144 294.280598 
L 71.348104 293.006358 
L 73.326064 291.732118 
L 75.304023 290.457878 
L 77.281983 289.183637 
L 79.259943 287.909397 
L 81.237902 286.635157 
L 83.215862 285.360916 
L 85.193822 284.086676 
L 87.171781 282.812436 
L 89.149741 281.538196 
L 91.127701 280.263955 
L 93.10566 278.989715 
L 95.08362 277.715475 
L 97.061579 276.441234 
L 99.039539 275.166994 
L 101.017499 273.892754 
L 102.995458 272.618514 
L 104.973418 271.344273 
L 106.951378 270.070033 
L 108.929337 268.795793 
L 110.907297 267.521465 
L 112.885257 266.246894 
L 114.863216 264.972323 
L 116.841176 263.697752 
L 118.819136 262.423181 
L 120.797095 261.140603 
L 122.775055 259.854593 
L 124.753015 258.568584 
L 126.730974 257.282574 
L 128.708934 255.996564 
L 130.686894 254.71851 
L 132.664853 253.444274 
L 134.642813 252.170039 
L 136.620773 250.895803 
L 138.598732 249.621568 
L 140.576692 248.347332 
L 142.554652 247.073097 
L 144.532611 245.798861 
L 146.510571 244.524626 
L 148.488531 243.25039 
L 150.46649 241.976155 
L 152.44445 240.701919 
L 154.42241 239.427684 
L 156.400369 238.153448 
L 158.378329 236.879212 
L 160.356288 235.604977 
L 162.334248 234.330741 
L 164.312208 233.056506 
L 166.290167 231.78227 
L 168.268127 230.508035 
L 170.246087 229.233799 
L 172.224046 227.959564 
L 174.202006 226.685328 
L 176.179966 225.411093 
L 178.157925 224.136857 
L 180.135885 222.862622 
L 182.113845 221.588386 
L 184.091804 220.314151 
L 186.069764 219.039915 
L 188.047724 217.765679 
L 190.025683 216.491444 
L 192.003643 215.217208 
L 193.981603 213.942973 
L 195.959562 212.668737 
L 197.937522 211.394502 
L 199.915482 210.120266 
L 201.893441 208.846031 
L 203.871401 207.571795 
L 205.849361 206.29756 
L 207.82732 205.023324 
L 209.80528 203.749089 
L 211.78324 202.474853 
L 213.761199 201.200618 
L 215.739159 199.926382 
L 217.717119 198.652147 
L 219.695078 197.377911 
L 221.673038 196.103675 
L 223.650997 194.82944 
L 225.628957 193.555204 
L 227.606917 192.280969 
L 229.584876 191.006733 
L 231.562836 189.732498 
L 233.540796 188.458262 
L 235.518755 187.184027 
L 237.496715 185.909791 
L 239.474675 184.635556 
L 241.452634 183.36132 
L 243.430594 182.087085 
L 245.408554 180.812849 
L 247.386513 179.538614 
L 249.364473 178.264378 
L 251.342433 176.990143 
L 253.320392 175.715907 
L 253.320392 40.303246 
L 253.320392 40.303246 
L 251.342433 42.962911 
L 249.364473 45.622851 
L 247.386513 48.28279 
L 245.408554 50.94273 
L 243.430594 53.602669 
L 241.452634 56.262609 
L 239.474675 58.922548 
L 237.496715 61.582488 
L 235.518755 64.242427 
L 233.540796 66.902367 
L 231.562836 69.567684 
L 229.584876 72.235394 
L 227.606917 74.903105 
L 225.628957 77.569572 
L 223.650997 80.22321 
L 221.673038 82.876848 
L 219.695078 85.530486 
L 217.717119 88.184124 
L 215.739159 90.839986 
L 213.761199 93.499565 
L 211.78324 96.159144 
L 209.80528 98.818722 
L 207.82732 101.478301 
L 205.849361 104.13788 
L 203.871401 106.797458 
L 201.893441 109.457037 
L 199.915482 112.115096 
L 197.937522 114.765359 
L 195.959562 117.415849 
L 193.981603 120.066398 
L 192.003643 122.716947 
L 190.025683 125.376245 
L 188.047724 128.040828 
L 186.069764 130.705412 
L 184.091804 133.369995 
L 182.113845 136.034579 
L 180.135885 138.699162 
L 178.157925 141.363746 
L 176.179966 144.028329 
L 174.202006 146.678056 
L 172.224046 149.32754 
L 170.246087 151.977024 
L 168.268127 154.626508 
L 166.290167 157.275993 
L 164.312208 159.925477 
L 162.334248 162.592376 
L 160.356288 165.260433 
L 158.378329 167.928491 
L 156.400369 170.596549 
L 154.42241 173.264607 
L 152.44445 175.932665 
L 150.46649 178.600722 
L 148.488531 181.267196 
L 146.510571 183.926662 
L 144.532611 186.586129 
L 142.554652 189.245831 
L 140.576692 191.901434 
L 138.598732 194.553593 
L 136.620773 197.205844 
L 134.642813 199.836746 
L 132.664853 202.467535 
L 130.686894 205.124911 
L 128.708934 207.809332 
L 126.730974 210.46655 
L 124.753015 213.11871 
L 122.775055 215.770869 
L 120.797095 218.423029 
L 118.819136 221.068379 
L 116.841176 223.710908 
L 114.863216 226.363832 
L 112.885257 229.031718 
L 110.907297 231.703745 
L 108.929337 234.373701 
L 106.951378 237.043658 
L 104.973418 239.713614 
L 102.995458 242.344256 
L 101.017499 245.003689 
L 99.039539 247.627859 
L 97.061579 250.255725 
L 95.08362 252.922959 
L 93.10566 255.582678 
L 91.127701 258.234533 
L 89.149741 260.875977 
L 87.171781 263.515236 
L 85.193822 266.14177 
L 83.215862 268.749066 
L 81.237902 271.374183 
L 79.259943 274.019481 
L 77.281983 276.647035 
L 75.304023 279.316396 
L 73.326064 281.950205 
L 71.348104 284.581437 
L 69.370144 287.200969 
L 67.392185 289.809664 
L 65.414225 292.405117 
L 63.436265 295.031327 
L 61.458306 297.657788 
L 59.480346 300.161631 
L 57.502386 301.891589 
z
" style="fill:#1f77b4;fill-opacity:0.15;"/>
   </g>
   <g id="PathCollection_2">
    <defs>
     <path d="M 0 3 
C 0.795609 3 1.55874 2.683901 2.12132 2.12132 
C 2.683901 1.55874 3 0.795609 3 0 
C 3 -0.795609 2.683901 -1.55874 2.12132 -2.12132 
C 1.55874 -2.683901 0.795609 -3 0 -3 
C -0.795609 -3 -1.55874 -2.683901 -2.12132 -2.12132 
C -2.683901 -1.55874 -3 -0.795609 -3 0 
C -3 0.795609 -2.683901 1.55874 -2.12132 2.12132 
C -1.55874 2.683901 -0.795609 3 0 3 
z
" id="m8fe5dda669" style="stroke:#ff7f0e;stroke-opacity:0.8;"/>
    </defs>
    <g clip-path="url(#pad6483321d)">
     <use style="fill:#ff7f0e;fill-opacity:0.8;stroke:#ff7f0e;stroke-opacity:0.8;" x="57.502387" xlink:href="#m8fe5dda669" y="301.633103"/>
     <use style="fill:#ff7f0e;fill-opacity:0.8;stroke:#ff7f0e;stroke-opacity:0.8;" x="57.502389" xlink:href="#m8fe5dda669" y="301.633103"/>
     <use style="fill:#ff7f0e;fill-opacity:0.8;stroke:#ff7f0e;stroke-opacity:0.8;" x="57.50239" xlink:href="#m8fe5dda669" y="301.633103"/>
     <use style="fill:#ff7f0e;fill-opacity:0.8;stroke:#ff7f0e;stroke-opacity:0.8;" x="57.502392" xlink:href="#m8fe5dda669" y="301.633103"/>
     <use style="fill:#ff7f0e;fill-opacity:0.8;stroke:#ff7f0e;stroke-opacity:0.8;" x="57.502398" xlink:href="#m8fe5dda669" y="301.633103"/>
     <use style="fill:#ff7f0e;fill-opacity:0.8;stroke:#ff7f0e;stroke-opacity:0.8;" x="57.502403" xlink:href="#m8fe5dda669" y="301.633103"/>
     <use style="fill:#ff7f0e;fill-opacity:0.8;stroke:#ff7f0e;stroke-opacity:0.8;" x="57.502418" xlink:href="#m8fe5dda669" y="301.633103"/>
     <use style="fill:#ff7f0e;fill-opacity:0.8;stroke:#ff7f0e;stroke-opacity:0.8;" x="57.502435" xlink:href="#m8fe5dda669" y="301.633103"/>
     <use style="fill:#ff7f0e;fill-opacity:0.8;stroke:#ff7f0e;stroke-opacity:0.8;" x="57.502473" xlink:href="#m8fe5dda669" y="301.633103"/>
     <use style="fill:#ff7f0e;fill-opacity:0.8;stroke:#ff7f0e;stroke-opacity:0.8;" x="57.502542" xlink:href="#m8fe5dda669" y="301.633103"/>
     <use style="fill:#ff7f0e;fill-opacity:0.8;stroke:#ff7f0e;stroke-opacity:0.8;" x="57.502717" xlink:href="#m8fe5dda669" y="301.633103"/>
     <use style="fill:#ff7f0e;fill-opacity:0.8;stroke:#ff7f0e;stroke-opacity:0.8;" x="57.502886" xlink:href="#m8fe5dda669" y="301.633103"/>
     <use style="fill:#ff7f0e;fill-opacity:0.8;stroke:#ff7f0e;stroke-opacity:0.8;" x="57.503461" xlink:href="#m8fe5dda669" y="301.633103"/>
     <use style="fill:#ff7f0e;fill-opacity:0.8;stroke:#ff7f0e;stroke-opacity:0.8;" x="57.504743" xlink:href="#m8fe5dda669" y="301.633103"/>
     <use style="fill:#ff7f0e;fill-opacity:0.8;stroke:#ff7f0e;stroke-opacity:0.8;" x="57.507353" xlink:href="#m8fe5dda669" y="301.633103"/>
     <use style="fill:#ff7f0e;fill-opacity:0.8;stroke:#ff7f0e;stroke-opacity:0.8;" x="57.51169" xlink:href="#m8fe5dda669" y="301.633103"/>
     <use style="fill:#ff7f0e;fill-opacity:0.8;stroke:#ff7f0e;stroke-opacity:0.8;" x="57.520591" xlink:href="#m8fe5dda669" y="301.633102"/>
     <use style="fill:#ff7f0e;fill-opacity:0.8;stroke:#ff7f0e;stroke-opacity:0.8;" x="57.535988" xlink:href="#m8fe5dda669" y="301.633101"/>
     <use style="fill:#ff7f0e;fill-opacity:0.8;stroke:#ff7f0e;stroke-opacity:0.8;" x="57.581389" xlink:href="#m8fe5dda669" y="301.633099"/>
     <use style="fill:#ff7f0e;fill-opacity:0.8;stroke:#ff7f0e;stroke-opacity:0.8;" x="57.644579" xlink:href="#m8fe5dda669" y="301.633095"/>
     <use style="fill:#ff7f0e;fill-opacity:0.8;stroke:#ff7f0e;stroke-opacity:0.8;" x="57.758777" xlink:href="#m8fe5dda669" y="301.633087"/>
     <use style="fill:#ff7f0e;fill-opacity:0.8;stroke:#ff7f0e;stroke-opacity:0.8;" x="57.930722" xlink:href="#m8fe5dda669" y="301.633071"/>
     <use style="fill:#ff7f0e;fill-opacity:0.8;stroke:#ff7f0e;stroke-opacity:0.8;" x="58.282029" xlink:href="#m8fe5dda669" y="301.63304"/>
     <use style="fill:#ff7f0e;fill-opacity:0.8;stroke:#ff7f0e;stroke-opacity:0.8;" x="58.96531" xlink:href="#m8fe5dda669" y="301.632976"/>
     <use style="fill:#ff7f0e;fill-opacity:0.8;stroke:#ff7f0e;stroke-opacity:0.8;" x="60.348456" xlink:href="#m8fe5dda669" y="301.63285"/>
     <use style="fill:#ff7f0e;fill-opacity:0.8;stroke:#ff7f0e;stroke-opacity:0.8;" x="63.109174" xlink:href="#m8fe5dda669" y="301.632597"/>
     <use style="fill:#ff7f0e;fill-opacity:0.8;stroke:#ff7f0e;stroke-opacity:0.8;" x="68.718353" xlink:href="#m8fe5dda669" y="301.632091"/>
     <use style="fill:#ff7f0e;fill-opacity:0.8;stroke:#ff7f0e;stroke-opacity:0.8;" x="79.717201" xlink:href="#m8fe5dda669" y="301.631078"/>
     <use style="fill:#ff7f0e;fill-opacity:0.8;stroke:#ff7f0e;stroke-opacity:0.8;" x="101.933515" xlink:href="#m8fe5dda669" y="301.629054"/>
     <use style="fill:#ff7f0e;fill-opacity:0.8;stroke:#ff7f0e;stroke-opacity:0.8;" x="146.530302" xlink:href="#m8fe5dda669" y="301.625004"/>
     <use style="fill:#ff7f0e;fill-opacity:0.8;stroke:#ff7f0e;stroke-opacity:0.8;" x="235.38565" xlink:href="#m8fe5dda669" y="301.616905"/>
    </g>
   </g>
   <g id="PolyCollection_2">
    <path clip-path="url(#pad6483321d)" d="M 57.502387 301.633104 
L 57.502387 301.633106 
L 59.299188 301.632943 
L 61.095989 301.632779 
L 62.892789 301.632616 
L 64.68959 301.632452 
L 66.486391 301.632289 
L 68.283191 301.632125 
L 70.079992 301.631961 
L 71.876793 301.631798 
L 73.673593 301.631634 
L 75.470394 301.631471 
L 77.267194 301.631307 
L 79.063995 301.631144 
L 80.860796 301.63098 
L 82.657596 301.630817 
L 84.454397 301.630653 
L 86.251198 301.63049 
L 88.047998 301.630326 
L 89.844799 301.630163 
L 91.641599 301.629999 
L 93.4384 301.629836 
L 95.235201 301.629673 
L 97.032001 301.629509 
L 98.828802 301.629346 
L 100.625603 301.629182 
L 102.422403 301.629019 
L 104.219204 301.628855 
L 106.016005 301.628692 
L 107.812805 301.628528 
L 109.609606 301.628365 
L 111.406406 301.628201 
L 113.203207 301.628038 
L 115.000008 301.627874 
L 116.796808 301.627711 
L 118.593609 301.627547 
L 120.39041 301.627384 
L 122.18721 301.627221 
L 123.984011 301.627057 
L 125.780811 301.626894 
L 127.577612 301.62673 
L 129.374413 301.626567 
L 131.171213 301.626403 
L 132.968014 301.62624 
L 134.764815 301.626076 
L 136.561615 301.625913 
L 138.358416 301.625749 
L 140.155217 301.625586 
L 141.952017 301.625423 
L 143.748818 301.625259 
L 145.545618 301.625096 
L 147.342419 301.624932 
L 149.13922 301.624769 
L 150.93602 301.624605 
L 152.732821 301.624442 
L 154.529622 301.624278 
L 156.326422 301.624115 
L 158.123223 301.623951 
L 159.920023 301.623788 
L 161.716824 301.623624 
L 163.513625 301.623461 
L 165.310425 301.623298 
L 167.107226 301.623134 
L 168.904027 301.622971 
L 170.700827 301.622807 
L 172.497628 301.622644 
L 174.294429 301.62248 
L 176.091229 301.622317 
L 177.88803 301.622153 
L 179.68483 301.62199 
L 181.481631 301.621826 
L 183.278432 301.621663 
L 185.075232 301.621499 
L 186.872033 301.621336 
L 188.668834 301.621173 
L 190.465634 301.621009 
L 192.262435 301.620846 
L 194.059236 301.620682 
L 195.856036 301.620519 
L 197.652837 301.620355 
L 199.449637 301.620192 
L 201.246438 301.620028 
L 203.043239 301.619865 
L 204.840039 301.619701 
L 206.63684 301.619538 
L 208.433641 301.619375 
L 210.230441 301.619211 
L 212.027242 301.619048 
L 213.824042 301.618884 
L 215.620843 301.618721 
L 217.417644 301.618557 
L 219.214444 301.618394 
L 221.011245 301.61823 
L 222.808046 301.618067 
L 224.604846 301.617903 
L 226.401647 301.61774 
L 228.198448 301.617576 
L 229.995248 301.617413 
L 231.792049 301.61725 
L 233.588849 301.617086 
L 235.38565 301.616923 
L 235.38565 301.616888 
L 235.38565 301.616888 
L 233.588849 301.617052 
L 231.792049 301.617216 
L 229.995248 301.61738 
L 228.198448 301.617544 
L 226.401647 301.617707 
L 224.604846 301.617871 
L 222.808046 301.618035 
L 221.011245 301.618199 
L 219.214444 301.618363 
L 217.417644 301.618526 
L 215.620843 301.61869 
L 213.824042 301.618854 
L 212.027242 301.619018 
L 210.230441 301.619182 
L 208.433641 301.619345 
L 206.63684 301.619509 
L 204.840039 301.619673 
L 203.043239 301.619837 
L 201.246438 301.620001 
L 199.449637 301.620164 
L 197.652837 301.620328 
L 195.856036 301.620492 
L 194.059236 301.620656 
L 192.262435 301.62082 
L 190.465634 301.620983 
L 188.668834 301.621147 
L 186.872033 301.621311 
L 185.075232 301.621475 
L 183.278432 301.621639 
L 181.481631 301.621802 
L 179.68483 301.621966 
L 177.88803 301.62213 
L 176.091229 301.622294 
L 174.294429 301.622458 
L 172.497628 301.622621 
L 170.700827 301.622785 
L 168.904027 301.622949 
L 167.107226 301.623113 
L 165.310425 301.623277 
L 163.513625 301.62344 
L 161.716824 301.623604 
L 159.920023 301.623768 
L 158.123223 301.623932 
L 156.326422 301.624096 
L 154.529622 301.624259 
L 152.732821 301.624423 
L 150.93602 301.624587 
L 149.13922 301.624751 
L 147.342419 301.624915 
L 145.545618 301.625078 
L 143.748818 301.625242 
L 141.952017 301.625406 
L 140.155217 301.62557 
L 138.358416 301.625734 
L 136.561615 301.625897 
L 134.764815 301.626061 
L 132.968014 301.626225 
L 131.171213 301.626389 
L 129.374413 301.626553 
L 127.577612 301.626716 
L 125.780811 301.62688 
L 123.984011 301.627044 
L 122.18721 301.627208 
L 120.39041 301.627372 
L 118.593609 301.627536 
L 116.796808 301.627699 
L 115.000008 301.627863 
L 113.203207 301.628027 
L 111.406406 301.628191 
L 109.609606 301.628355 
L 107.812805 301.628518 
L 106.016005 301.628682 
L 104.219204 301.628846 
L 102.422403 301.62901 
L 100.625603 301.629173 
L 98.828802 301.629337 
L 97.032001 301.629501 
L 95.235201 301.629665 
L 93.4384 301.629829 
L 91.641599 301.629992 
L 89.844799 301.630156 
L 88.047998 301.63032 
L 86.251198 301.630484 
L 84.454397 301.630648 
L 82.657596 301.630812 
L 80.860796 301.630975 
L 79.063995 301.631139 
L 77.267194 301.631303 
L 75.470394 301.631467 
L 73.673593 301.631631 
L 71.876793 301.631794 
L 70.079992 301.631958 
L 68.283191 301.632122 
L 66.486391 301.632286 
L 64.68959 301.632449 
L 62.892789 301.632613 
L 61.095989 301.632777 
L 59.299188 301.63294 
L 57.502387 301.633104 
z
" style="fill:#ff7f0e;fill-opacity:0.15;"/>
   </g>
   <g id="PathCollection_3">
    <defs>
     <path d="M 0 3 
C 0.795609 3 1.55874 2.683901 2.12132 2.12132 
C 2.683901 1.55874 3 0.795609 3 0 
C 3 -0.795609 2.683901 -1.55874 2.12132 -2.12132 
C 1.55874 -2.683901 0.795609 -3 0 -3 
C -0.795609 -3 -1.55874 -2.683901 -2.12132 -2.12132 
C -2.683901 -1.55874 -3 -0.795609 -3 0 
C -3 0.795609 -2.683901 1.55874 -2.12132 2.12132 
C -1.55874 2.683901 -0.795609 3 0 3 
z
" id="m27867101b1" style="stroke:#2ca02c;stroke-opacity:0.8;"/>
    </defs>
    <g clip-path="url(#pad6483321d)">
     <use style="fill:#2ca02c;fill-opacity:0.8;stroke:#2ca02c;stroke-opacity:0.8;" x="57.502387" xlink:href="#m27867101b1" y="301.633103"/>
     <use style="fill:#2ca02c;fill-opacity:0.8;stroke:#2ca02c;stroke-opacity:0.8;" x="57.502388" xlink:href="#m27867101b1" y="301.633103"/>
     <use style="fill:#2ca02c;fill-opacity:0.8;stroke:#2ca02c;stroke-opacity:0.8;" x="57.502391" xlink:href="#m27867101b1" y="301.633103"/>
     <use style="fill:#2ca02c;fill-opacity:0.8;stroke:#2ca02c;stroke-opacity:0.8;" x="57.502392" xlink:href="#m27867101b1" y="301.633103"/>
     <use style="fill:#2ca02c;fill-opacity:0.8;stroke:#2ca02c;stroke-opacity:0.8;" x="57.502393" xlink:href="#m27867101b1" y="301.633103"/>
     <use style="fill:#2ca02c;fill-opacity:0.8;stroke:#2ca02c;stroke-opacity:0.8;" x="57.502394" xlink:href="#m27867101b1" y="301.633103"/>
     <use style="fill:#2ca02c;fill-opacity:0.8;stroke:#2ca02c;stroke-opacity:0.8;" x="57.502397" xlink:href="#m27867101b1" y="301.633103"/>
     <use style="fill:#2ca02c;fill-opacity:0.8;stroke:#2ca02c;stroke-opacity:0.8;" x="57.502402" xlink:href="#m27867101b1" y="301.633103"/>
     <use style="fill:#2ca02c;fill-opacity:0.8;stroke:#2ca02c;stroke-opacity:0.8;" x="57.502407" xlink:href="#m27867101b1" y="301.633103"/>
     <use style="fill:#2ca02c;fill-opacity:0.8;stroke:#2ca02c;stroke-opacity:0.8;" x="57.502426" xlink:href="#m27867101b1" y="301.633103"/>
     <use style="fill:#2ca02c;fill-opacity:0.8;stroke:#2ca02c;stroke-opacity:0.8;" x="57.502436" xlink:href="#m27867101b1" y="301.633103"/>
     <use style="fill:#2ca02c;fill-opacity:0.8;stroke:#2ca02c;stroke-opacity:0.8;" x="57.502457" xlink:href="#m27867101b1" y="301.633103"/>
     <use style="fill:#2ca02c;fill-opacity:0.8;stroke:#2ca02c;stroke-opacity:0.8;" x="57.502501" xlink:href="#m27867101b1" y="301.633103"/>
     <use style="fill:#2ca02c;fill-opacity:0.8;stroke:#2ca02c;stroke-opacity:0.8;" x="57.502551" xlink:href="#m27867101b1" y="301.633103"/>
     <use style="fill:#2ca02c;fill-opacity:0.8;stroke:#2ca02c;stroke-opacity:0.8;" x="57.502673" xlink:href="#m27867101b1" y="301.633103"/>
     <use style="fill:#2ca02c;fill-opacity:0.8;stroke:#2ca02c;stroke-opacity:0.8;" x="57.502789" xlink:href="#m27867101b1" y="301.633103"/>
     <use style="fill:#2ca02c;fill-opacity:0.8;stroke:#2ca02c;stroke-opacity:0.8;" x="57.503043" xlink:href="#m27867101b1" y="301.633102"/>
     <use style="fill:#2ca02c;fill-opacity:0.8;stroke:#2ca02c;stroke-opacity:0.8;" x="57.50346" xlink:href="#m27867101b1" y="301.633101"/>
     <use style="fill:#2ca02c;fill-opacity:0.8;stroke:#2ca02c;stroke-opacity:0.8;" x="57.504201" xlink:href="#m27867101b1" y="301.633099"/>
     <use style="fill:#2ca02c;fill-opacity:0.8;stroke:#2ca02c;stroke-opacity:0.8;" x="57.504938" xlink:href="#m27867101b1" y="301.633095"/>
     <use style="fill:#2ca02c;fill-opacity:0.8;stroke:#2ca02c;stroke-opacity:0.8;" x="57.506811" xlink:href="#m27867101b1" y="301.633087"/>
     <use style="fill:#2ca02c;fill-opacity:0.8;stroke:#2ca02c;stroke-opacity:0.8;" x="57.509986" xlink:href="#m27867101b1" y="301.633071"/>
     <use style="fill:#2ca02c;fill-opacity:0.8;stroke:#2ca02c;stroke-opacity:0.8;" x="57.513045" xlink:href="#m27867101b1" y="301.63304"/>
     <use style="fill:#2ca02c;fill-opacity:0.8;stroke:#2ca02c;stroke-opacity:0.8;" x="57.521418" xlink:href="#m27867101b1" y="301.632976"/>
     <use style="fill:#2ca02c;fill-opacity:0.8;stroke:#2ca02c;stroke-opacity:0.8;" x="57.532031" xlink:href="#m27867101b1" y="301.63285"/>
     <use style="fill:#2ca02c;fill-opacity:0.8;stroke:#2ca02c;stroke-opacity:0.8;" x="57.556939" xlink:href="#m27867101b1" y="301.632597"/>
     <use style="fill:#2ca02c;fill-opacity:0.8;stroke:#2ca02c;stroke-opacity:0.8;" x="57.576802" xlink:href="#m27867101b1" y="301.632091"/>
     <use style="fill:#2ca02c;fill-opacity:0.8;stroke:#2ca02c;stroke-opacity:0.8;" x="57.639098" xlink:href="#m27867101b1" y="301.631078"/>
     <use style="fill:#2ca02c;fill-opacity:0.8;stroke:#2ca02c;stroke-opacity:0.8;" x="57.706569" xlink:href="#m27867101b1" y="301.629054"/>
     <use style="fill:#2ca02c;fill-opacity:0.8;stroke:#2ca02c;stroke-opacity:0.8;" x="57.787463" xlink:href="#m27867101b1" y="301.625004"/>
     <use style="fill:#2ca02c;fill-opacity:0.8;stroke:#2ca02c;stroke-opacity:0.8;" x="57.90722" xlink:href="#m27867101b1" y="301.616905"/>
     <use style="fill:#2ca02c;fill-opacity:0.8;stroke:#2ca02c;stroke-opacity:0.8;" x="58.098757" xlink:href="#m27867101b1" y="301.600708"/>
     <use style="fill:#2ca02c;fill-opacity:0.8;stroke:#2ca02c;stroke-opacity:0.8;" x="58.425206" xlink:href="#m27867101b1" y="301.568312"/>
     <use style="fill:#2ca02c;fill-opacity:0.8;stroke:#2ca02c;stroke-opacity:0.8;" x="58.95631" xlink:href="#m27867101b1" y="301.503522"/>
     <use style="fill:#2ca02c;fill-opacity:0.8;stroke:#2ca02c;stroke-opacity:0.8;" x="59.798085" xlink:href="#m27867101b1" y="301.373941"/>
     <use style="fill:#2ca02c;fill-opacity:0.8;stroke:#2ca02c;stroke-opacity:0.8;" x="61.172123" xlink:href="#m27867101b1" y="301.114778"/>
     <use style="fill:#2ca02c;fill-opacity:0.8;stroke:#2ca02c;stroke-opacity:0.8;" x="63.390504" xlink:href="#m27867101b1" y="300.596454"/>
     <use style="fill:#2ca02c;fill-opacity:0.8;stroke:#2ca02c;stroke-opacity:0.8;" x="66.978097" xlink:href="#m27867101b1" y="299.559804"/>
     <use style="fill:#2ca02c;fill-opacity:0.8;stroke:#2ca02c;stroke-opacity:0.8;" x="72.828008" xlink:href="#m27867101b1" y="297.486505"/>
     <use style="fill:#2ca02c;fill-opacity:0.8;stroke:#2ca02c;stroke-opacity:0.8;" x="82.297875" xlink:href="#m27867101b1" y="293.339908"/>
     <use style="fill:#2ca02c;fill-opacity:0.8;stroke:#2ca02c;stroke-opacity:0.8;" x="97.7827" xlink:href="#m27867101b1" y="285.046712"/>
     <use style="fill:#2ca02c;fill-opacity:0.8;stroke:#2ca02c;stroke-opacity:0.8;" x="122.229176" xlink:href="#m27867101b1" y="268.460322"/>
     <use style="fill:#2ca02c;fill-opacity:0.8;stroke:#2ca02c;stroke-opacity:0.8;" x="162.280369" xlink:href="#m27867101b1" y="235.28754"/>
     <use style="fill:#2ca02c;fill-opacity:0.8;stroke:#2ca02c;stroke-opacity:0.8;" x="228.35671" xlink:href="#m27867101b1" y="168.941978"/>
     <use style="fill:#2ca02c;fill-opacity:0.8;stroke:#2ca02c;stroke-opacity:0.8;" x="331.575114" xlink:href="#m27867101b1" y="36.250852"/>
    </g>
   </g>
   <g id="PolyCollection_3">
    <path clip-path="url(#pad6483321d)" d="M 57.502387 301.916072 
L 57.502387 305.305398 
L 60.270798 302.892267 
L 63.03921 300.513477 
L 65.807621 298.331846 
L 68.576033 296.70829 
L 71.344444 295.385228 
L 74.112855 294.077262 
L 76.881267 292.77513 
L 79.649678 291.461684 
L 82.418089 290.154429 
L 85.186501 288.847175 
L 87.954912 287.539921 
L 90.723324 286.232666 
L 93.491735 284.925412 
L 96.260146 283.618158 
L 99.028558 282.310904 
L 101.796969 281.003649 
L 104.56538 279.696395 
L 107.333792 278.389141 
L 110.102203 277.081886 
L 112.870615 275.774632 
L 115.639026 274.467378 
L 118.407437 273.160124 
L 121.175849 271.852869 
L 123.94426 270.545615 
L 126.712672 269.238335 
L 129.481083 267.93097 
L 132.249494 266.623605 
L 135.017906 265.31624 
L 137.786317 264.008875 
L 140.554728 262.701511 
L 143.32314 261.394146 
L 146.091551 260.086781 
L 148.859963 258.779416 
L 151.628374 257.472051 
L 154.396785 256.164687 
L 157.165197 254.857322 
L 159.933608 253.549957 
L 162.702019 252.242592 
L 165.470431 250.935227 
L 168.238842 249.627862 
L 171.007254 248.320498 
L 173.775665 247.013133 
L 176.544076 245.705768 
L 179.312488 244.398403 
L 182.080899 243.091038 
L 184.84931 241.783674 
L 187.617722 240.476309 
L 190.386133 239.168944 
L 193.154545 237.861579 
L 195.922956 236.554214 
L 198.691367 235.24685 
L 201.459779 233.939485 
L 204.22819 232.63212 
L 206.996602 231.324755 
L 209.765013 230.01739 
L 212.533424 228.710026 
L 215.301836 227.402661 
L 218.070247 226.095296 
L 220.838658 224.787931 
L 223.60707 223.480566 
L 226.375481 222.173202 
L 229.143893 220.865837 
L 231.912304 219.558472 
L 234.680715 218.251107 
L 237.449127 216.943742 
L 240.217538 215.636378 
L 242.985949 214.329013 
L 245.754361 213.021648 
L 248.522772 211.714283 
L 251.291184 210.406918 
L 254.059595 209.099554 
L 256.828006 207.792189 
L 259.596418 206.484824 
L 262.364829 205.177459 
L 265.133241 203.870094 
L 267.901652 202.562729 
L 270.670063 201.255365 
L 273.438475 199.948 
L 276.206886 198.640635 
L 278.975297 197.33327 
L 281.743709 196.025905 
L 284.51212 194.718541 
L 287.280532 193.411176 
L 290.048943 192.103811 
L 292.817354 190.796446 
L 295.585766 189.489081 
L 298.354177 188.181717 
L 301.122588 186.874352 
L 303.891 185.566987 
L 306.659411 184.259622 
L 309.427823 182.952257 
L 312.196234 181.644893 
L 314.964645 180.337528 
L 317.733057 179.030163 
L 320.501468 177.722798 
L 323.269879 176.415433 
L 326.038291 175.108069 
L 328.806702 173.800704 
L 331.575114 172.493339 
L 331.575114 40.48997 
L 331.575114 40.48997 
L 328.806702 43.165785 
L 326.038291 45.8416 
L 323.269879 48.517416 
L 320.501468 51.193231 
L 317.733057 53.869047 
L 314.964645 56.544862 
L 312.196234 59.220677 
L 309.427823 61.896493 
L 306.659411 64.572308 
L 303.891 67.248124 
L 301.122588 69.923939 
L 298.354177 72.588773 
L 295.585766 75.250078 
L 292.817354 77.911382 
L 290.048943 80.572687 
L 287.280532 83.233991 
L 284.51212 85.887166 
L 281.743709 88.534687 
L 278.975297 91.182208 
L 276.206886 93.829729 
L 273.438475 96.477251 
L 270.670063 99.124772 
L 267.901652 101.772293 
L 265.133241 104.419815 
L 262.364829 107.067336 
L 259.596418 109.714857 
L 256.828006 112.362378 
L 254.059595 115.0099 
L 251.291184 117.657421 
L 248.522772 120.304942 
L 245.754361 122.952463 
L 242.985949 125.599985 
L 240.217538 128.254429 
L 237.449127 130.916177 
L 234.680715 133.577926 
L 231.912304 136.239675 
L 229.143893 138.901693 
L 226.375481 141.563836 
L 223.60707 144.22598 
L 220.838658 146.888124 
L 218.070247 149.550267 
L 215.301836 152.212411 
L 212.533424 154.874555 
L 209.765013 157.536698 
L 206.996602 160.198741 
L 204.22819 162.846953 
L 201.459779 165.495165 
L 198.691367 168.143377 
L 195.922956 170.801781 
L 193.154545 173.464352 
L 190.386133 176.126922 
L 187.617722 178.789492 
L 184.84931 181.452062 
L 182.080899 184.114632 
L 179.312488 186.777203 
L 176.544076 189.434528 
L 173.775665 192.08589 
L 171.007254 194.737252 
L 168.238842 197.388614 
L 165.470431 200.039976 
L 162.702019 202.691339 
L 159.933608 205.342701 
L 157.165197 207.975018 
L 154.396785 210.59792 
L 151.628374 213.221379 
L 148.859963 215.851904 
L 146.091551 218.525034 
L 143.32314 221.198215 
L 140.554728 223.871396 
L 137.786317 226.538939 
L 135.017906 229.191582 
L 132.249494 231.818137 
L 129.481083 234.445054 
L 126.712672 237.075822 
L 123.94426 239.745258 
L 121.175849 242.363648 
L 118.407437 244.982038 
L 115.639026 247.600428 
L 112.870615 250.226183 
L 110.102203 252.884925 
L 107.333792 255.550155 
L 104.56538 258.205816 
L 101.796969 260.817496 
L 99.028558 263.434162 
L 96.260146 266.046144 
L 93.491735 268.666869 
L 90.723324 271.287595 
L 87.954912 273.909314 
L 85.186501 276.557619 
L 82.418089 279.217497 
L 79.649678 281.819922 
L 76.881267 284.492208 
L 74.112855 287.155722 
L 71.344444 289.806766 
L 68.576033 292.373453 
L 65.807621 295.01705 
L 63.03921 297.598106 
L 60.270798 300.042351 
L 57.502387 301.916072 
z
" style="fill:#2ca02c;fill-opacity:0.15;"/>
   </g>
   <g id="matplotlib.axis_1">
    <g id="xtick_1">
     <g id="line2d_1">
      <defs>
       <path d="M 0 0 
L 0 3.5 
" id="mf15c2607ad" style="stroke:#000000;stroke-width:0.8;"/>
      </defs>
      <g>
       <use style="stroke:#000000;stroke-width:0.8;" x="57.502384" xlink:href="#mf15c2607ad" y="318.758125"/>
      </g>
     </g>
     <g id="text_1">
      <!-- 0 -->
      <g transform="translate(54.321134 333.356562)scale(0.1 -0.1)">
       <defs>
        <path d="M 2034 4250 
Q 1547 4250 1301 3770 
Q 1056 3291 1056 2328 
Q 1056 1369 1301 889 
Q 1547 409 2034 409 
Q 2525 409 2770 889 
Q 3016 1369 3016 2328 
Q 3016 3291 2770 3770 
Q 2525 4250 2034 4250 
z
M 2034 4750 
Q 2819 4750 3233 4129 
Q 3647 3509 3647 2328 
Q 3647 1150 3233 529 
Q 2819 -91 2034 -91 
Q 1250 -91 836 529 
Q 422 1150 422 2328 
Q 422 3509 836 4129 
Q 1250 4750 2034 4750 
z
" id="DejaVuSans-30" transform="scale(0.015625)"/>
       </defs>
       <use xlink:href="#DejaVuSans-30"/>
      </g>
     </g>
    </g>
    <g id="xtick_2">
     <g id="line2d_2">
      <g>
       <use style="stroke:#000000;stroke-width:0.8;" x="99.364125" xlink:href="#mf15c2607ad" y="318.758125"/>
      </g>
     </g>
     <g id="text_2">
      <!-- 2500 -->
      <g transform="translate(86.639125 333.356562)scale(0.1 -0.1)">
       <defs>
        <path d="M 1228 531 
L 3431 531 
L 3431 0 
L 469 0 
L 469 531 
Q 828 903 1448 1529 
Q 2069 2156 2228 2338 
Q 2531 2678 2651 2914 
Q 2772 3150 2772 3378 
Q 2772 3750 2511 3984 
Q 2250 4219 1831 4219 
Q 1534 4219 1204 4116 
Q 875 4013 500 3803 
L 500 4441 
Q 881 4594 1212 4672 
Q 1544 4750 1819 4750 
Q 2544 4750 2975 4387 
Q 3406 4025 3406 3419 
Q 3406 3131 3298 2873 
Q 3191 2616 2906 2266 
Q 2828 2175 2409 1742 
Q 1991 1309 1228 531 
z
" id="DejaVuSans-32" transform="scale(0.015625)"/>
        <path d="M 691 4666 
L 3169 4666 
L 3169 4134 
L 1269 4134 
L 1269 2991 
Q 1406 3038 1543 3061 
Q 1681 3084 1819 3084 
Q 2600 3084 3056 2656 
Q 3513 2228 3513 1497 
Q 3513 744 3044 326 
Q 2575 -91 1722 -91 
Q 1428 -91 1123 -41 
Q 819 9 494 109 
L 494 744 
Q 775 591 1075 516 
Q 1375 441 1709 441 
Q 2250 441 2565 725 
Q 2881 1009 2881 1497 
Q 2881 1984 2565 2268 
Q 2250 2553 1709 2553 
Q 1456 2553 1204 2497 
Q 953 2441 691 2322 
L 691 4666 
z
" id="DejaVuSans-35" transform="scale(0.015625)"/>
       </defs>
       <use xlink:href="#DejaVuSans-32"/>
       <use x="63.623047" xlink:href="#DejaVuSans-35"/>
       <use x="127.246094" xlink:href="#DejaVuSans-30"/>
       <use x="190.869141" xlink:href="#DejaVuSans-30"/>
      </g>
     </g>
    </g>
    <g id="xtick_3">
     <g id="line2d_3">
      <g>
       <use style="stroke:#000000;stroke-width:0.8;" x="141.225867" xlink:href="#mf15c2607ad" y="318.758125"/>
      </g>
     </g>
     <g id="text_3">
      <!-- 5000 -->
      <g transform="translate(128.500867 333.356562)scale(0.1 -0.1)">
       <use xlink:href="#DejaVuSans-35"/>
       <use x="63.623047" xlink:href="#DejaVuSans-30"/>
       <use x="127.246094" xlink:href="#DejaVuSans-30"/>
       <use x="190.869141" xlink:href="#DejaVuSans-30"/>
      </g>
     </g>
    </g>
    <g id="xtick_4">
     <g id="line2d_4">
      <g>
       <use style="stroke:#000000;stroke-width:0.8;" x="183.087609" xlink:href="#mf15c2607ad" y="318.758125"/>
      </g>
     </g>
     <g id="text_4">
      <!-- 7500 -->
      <g transform="translate(170.362609 333.356562)scale(0.1 -0.1)">
       <defs>
        <path d="M 525 4666 
L 3525 4666 
L 3525 4397 
L 1831 0 
L 1172 0 
L 2766 4134 
L 525 4134 
L 525 4666 
z
" id="DejaVuSans-37" transform="scale(0.015625)"/>
       </defs>
       <use xlink:href="#DejaVuSans-37"/>
       <use x="63.623047" xlink:href="#DejaVuSans-35"/>
       <use x="127.246094" xlink:href="#DejaVuSans-30"/>
       <use x="190.869141" xlink:href="#DejaVuSans-30"/>
      </g>
     </g>
    </g>
    <g id="xtick_5">
     <g id="line2d_5">
      <g>
       <use style="stroke:#000000;stroke-width:0.8;" x="224.94935" xlink:href="#mf15c2607ad" y="318.758125"/>
      </g>
     </g>
     <g id="text_5">
      <!-- 10000 -->
      <g transform="translate(209.0431 333.356562)scale(0.1 -0.1)">
       <defs>
        <path d="M 794 531 
L 1825 531 
L 1825 4091 
L 703 3866 
L 703 4441 
L 1819 4666 
L 2450 4666 
L 2450 531 
L 3481 531 
L 3481 0 
L 794 0 
L 794 531 
z
" id="DejaVuSans-31" transform="scale(0.015625)"/>
       </defs>
       <use xlink:href="#DejaVuSans-31"/>
       <use x="63.623047" xlink:href="#DejaVuSans-30"/>
       <use x="127.246094" xlink:href="#DejaVuSans-30"/>
       <use x="190.869141" xlink:href="#DejaVuSans-30"/>
       <use x="254.492188" xlink:href="#DejaVuSans-30"/>
      </g>
     </g>
    </g>
    <g id="xtick_6">
     <g id="line2d_6">
      <g>
       <use style="stroke:#000000;stroke-width:0.8;" x="266.811092" xlink:href="#mf15c2607ad" y="318.758125"/>
      </g>
     </g>
     <g id="text_6">
      <!-- 12500 -->
      <g transform="translate(250.904842 333.356562)scale(0.1 -0.1)">
       <use xlink:href="#DejaVuSans-31"/>
       <use x="63.623047" xlink:href="#DejaVuSans-32"/>
       <use x="127.246094" xlink:href="#DejaVuSans-35"/>
       <use x="190.869141" xlink:href="#DejaVuSans-30"/>
       <use x="254.492188" xlink:href="#DejaVuSans-30"/>
      </g>
     </g>
    </g>
    <g id="xtick_7">
     <g id="line2d_7">
      <g>
       <use style="stroke:#000000;stroke-width:0.8;" x="308.672834" xlink:href="#mf15c2607ad" y="318.758125"/>
      </g>
     </g>
     <g id="text_7">
      <!-- 15000 -->
      <g transform="translate(292.766584 333.356562)scale(0.1 -0.1)">
       <use xlink:href="#DejaVuSans-31"/>
       <use x="63.623047" xlink:href="#DejaVuSans-35"/>
       <use x="127.246094" xlink:href="#DejaVuSans-30"/>
       <use x="190.869141" xlink:href="#DejaVuSans-30"/>
       <use x="254.492188" xlink:href="#DejaVuSans-30"/>
      </g>
     </g>
    </g>
    <g id="text_8">
     <!-- Tiempo de ejecución (10^(-3) s) -->
     <g transform="translate(113.692656 347.434687)scale(0.1 -0.1)">
      <defs>
       <path d="M -19 4666 
L 3928 4666 
L 3928 4134 
L 2272 4134 
L 2272 0 
L 1638 0 
L 1638 4134 
L -19 4134 
L -19 4666 
z
" id="DejaVuSans-54" transform="scale(0.015625)"/>
       <path d="M 603 3500 
L 1178 3500 
L 1178 0 
L 603 0 
L 603 3500 
z
M 603 4863 
L 1178 4863 
L 1178 4134 
L 603 4134 
L 603 4863 
z
" id="DejaVuSans-69" transform="scale(0.015625)"/>
       <path d="M 3597 1894 
L 3597 1613 
L 953 1613 
Q 991 1019 1311 708 
Q 1631 397 2203 397 
Q 2534 397 2845 478 
Q 3156 559 3463 722 
L 3463 178 
Q 3153 47 2828 -22 
Q 2503 -91 2169 -91 
Q 1331 -91 842 396 
Q 353 884 353 1716 
Q 353 2575 817 3079 
Q 1281 3584 2069 3584 
Q 2775 3584 3186 3129 
Q 3597 2675 3597 1894 
z
M 3022 2063 
Q 3016 2534 2758 2815 
Q 2500 3097 2075 3097 
Q 1594 3097 1305 2825 
Q 1016 2553 972 2059 
L 3022 2063 
z
" id="DejaVuSans-65" transform="scale(0.015625)"/>
       <path d="M 3328 2828 
Q 3544 3216 3844 3400 
Q 4144 3584 4550 3584 
Q 5097 3584 5394 3201 
Q 5691 2819 5691 2113 
L 5691 0 
L 5113 0 
L 5113 2094 
Q 5113 2597 4934 2840 
Q 4756 3084 4391 3084 
Q 3944 3084 3684 2787 
Q 3425 2491 3425 1978 
L 3425 0 
L 2847 0 
L 2847 2094 
Q 2847 2600 2669 2842 
Q 2491 3084 2119 3084 
Q 1678 3084 1418 2786 
Q 1159 2488 1159 1978 
L 1159 0 
L 581 0 
L 581 3500 
L 1159 3500 
L 1159 2956 
Q 1356 3278 1631 3431 
Q 1906 3584 2284 3584 
Q 2666 3584 2933 3390 
Q 3200 3197 3328 2828 
z
" id="DejaVuSans-6d" transform="scale(0.015625)"/>
       <path d="M 1159 525 
L 1159 -1331 
L 581 -1331 
L 581 3500 
L 1159 3500 
L 1159 2969 
Q 1341 3281 1617 3432 
Q 1894 3584 2278 3584 
Q 2916 3584 3314 3078 
Q 3713 2572 3713 1747 
Q 3713 922 3314 415 
Q 2916 -91 2278 -91 
Q 1894 -91 1617 61 
Q 1341 213 1159 525 
z
M 3116 1747 
Q 3116 2381 2855 2742 
Q 2594 3103 2138 3103 
Q 1681 3103 1420 2742 
Q 1159 2381 1159 1747 
Q 1159 1113 1420 752 
Q 1681 391 2138 391 
Q 2594 391 2855 752 
Q 3116 1113 3116 1747 
z
" id="DejaVuSans-70" transform="scale(0.015625)"/>
       <path d="M 1959 3097 
Q 1497 3097 1228 2736 
Q 959 2375 959 1747 
Q 959 1119 1226 758 
Q 1494 397 1959 397 
Q 2419 397 2687 759 
Q 2956 1122 2956 1747 
Q 2956 2369 2687 2733 
Q 2419 3097 1959 3097 
z
M 1959 3584 
Q 2709 3584 3137 3096 
Q 3566 2609 3566 1747 
Q 3566 888 3137 398 
Q 2709 -91 1959 -91 
Q 1206 -91 779 398 
Q 353 888 353 1747 
Q 353 2609 779 3096 
Q 1206 3584 1959 3584 
z
" id="DejaVuSans-6f" transform="scale(0.015625)"/>
       <path id="DejaVuSans-20" transform="scale(0.015625)"/>
       <path d="M 2906 2969 
L 2906 4863 
L 3481 4863 
L 3481 0 
L 2906 0 
L 2906 525 
Q 2725 213 2448 61 
Q 2172 -91 1784 -91 
Q 1150 -91 751 415 
Q 353 922 353 1747 
Q 353 2572 751 3078 
Q 1150 3584 1784 3584 
Q 2172 3584 2448 3432 
Q 2725 3281 2906 2969 
z
M 947 1747 
Q 947 1113 1208 752 
Q 1469 391 1925 391 
Q 2381 391 2643 752 
Q 2906 1113 2906 1747 
Q 2906 2381 2643 2742 
Q 2381 3103 1925 3103 
Q 1469 3103 1208 2742 
Q 947 2381 947 1747 
z
" id="DejaVuSans-64" transform="scale(0.015625)"/>
       <path d="M 603 3500 
L 1178 3500 
L 1178 -63 
Q 1178 -731 923 -1031 
Q 669 -1331 103 -1331 
L -116 -1331 
L -116 -844 
L 38 -844 
Q 366 -844 484 -692 
Q 603 -541 603 -63 
L 603 3500 
z
M 603 4863 
L 1178 4863 
L 1178 4134 
L 603 4134 
L 603 4863 
z
" id="DejaVuSans-6a" transform="scale(0.015625)"/>
       <path d="M 3122 3366 
L 3122 2828 
Q 2878 2963 2633 3030 
Q 2388 3097 2138 3097 
Q 1578 3097 1268 2742 
Q 959 2388 959 1747 
Q 959 1106 1268 751 
Q 1578 397 2138 397 
Q 2388 397 2633 464 
Q 2878 531 3122 666 
L 3122 134 
Q 2881 22 2623 -34 
Q 2366 -91 2075 -91 
Q 1284 -91 818 406 
Q 353 903 353 1747 
Q 353 2603 823 3093 
Q 1294 3584 2113 3584 
Q 2378 3584 2631 3529 
Q 2884 3475 3122 3366 
z
" id="DejaVuSans-63" transform="scale(0.015625)"/>
       <path d="M 544 1381 
L 544 3500 
L 1119 3500 
L 1119 1403 
Q 1119 906 1312 657 
Q 1506 409 1894 409 
Q 2359 409 2629 706 
Q 2900 1003 2900 1516 
L 2900 3500 
L 3475 3500 
L 3475 0 
L 2900 0 
L 2900 538 
Q 2691 219 2414 64 
Q 2138 -91 1772 -91 
Q 1169 -91 856 284 
Q 544 659 544 1381 
z
M 1991 3584 
L 1991 3584 
z
" id="DejaVuSans-75" transform="scale(0.015625)"/>
       <path d="M 1959 3097 
Q 1497 3097 1228 2736 
Q 959 2375 959 1747 
Q 959 1119 1226 758 
Q 1494 397 1959 397 
Q 2419 397 2687 759 
Q 2956 1122 2956 1747 
Q 2956 2369 2687 2733 
Q 2419 3097 1959 3097 
z
M 1959 3584 
Q 2709 3584 3137 3096 
Q 3566 2609 3566 1747 
Q 3566 888 3137 398 
Q 2709 -91 1959 -91 
Q 1206 -91 779 398 
Q 353 888 353 1747 
Q 353 2609 779 3096 
Q 1206 3584 1959 3584 
z
M 2394 5119 
L 3016 5119 
L 1998 3944 
L 1519 3944 
L 2394 5119 
z
" id="DejaVuSans-f3" transform="scale(0.015625)"/>
       <path d="M 3513 2113 
L 3513 0 
L 2938 0 
L 2938 2094 
Q 2938 2591 2744 2837 
Q 2550 3084 2163 3084 
Q 1697 3084 1428 2787 
Q 1159 2491 1159 1978 
L 1159 0 
L 581 0 
L 581 3500 
L 1159 3500 
L 1159 2956 
Q 1366 3272 1645 3428 
Q 1925 3584 2291 3584 
Q 2894 3584 3203 3211 
Q 3513 2838 3513 2113 
z
" id="DejaVuSans-6e" transform="scale(0.015625)"/>
       <path d="M 1984 4856 
Q 1566 4138 1362 3434 
Q 1159 2731 1159 2009 
Q 1159 1288 1364 580 
Q 1569 -128 1984 -844 
L 1484 -844 
Q 1016 -109 783 600 
Q 550 1309 550 2009 
Q 550 2706 781 3412 
Q 1013 4119 1484 4856 
L 1984 4856 
z
" id="DejaVuSans-28" transform="scale(0.015625)"/>
       <path d="M 2988 4666 
L 4684 2925 
L 4056 2925 
L 2681 4159 
L 1306 2925 
L 678 2925 
L 2375 4666 
L 2988 4666 
z
" id="DejaVuSans-5e" transform="scale(0.015625)"/>
       <path d="M 313 2009 
L 1997 2009 
L 1997 1497 
L 313 1497 
L 313 2009 
z
" id="DejaVuSans-2d" transform="scale(0.015625)"/>
       <path d="M 2597 2516 
Q 3050 2419 3304 2112 
Q 3559 1806 3559 1356 
Q 3559 666 3084 287 
Q 2609 -91 1734 -91 
Q 1441 -91 1130 -33 
Q 819 25 488 141 
L 488 750 
Q 750 597 1062 519 
Q 1375 441 1716 441 
Q 2309 441 2620 675 
Q 2931 909 2931 1356 
Q 2931 1769 2642 2001 
Q 2353 2234 1838 2234 
L 1294 2234 
L 1294 2753 
L 1863 2753 
Q 2328 2753 2575 2939 
Q 2822 3125 2822 3475 
Q 2822 3834 2567 4026 
Q 2313 4219 1838 4219 
Q 1578 4219 1281 4162 
Q 984 4106 628 3988 
L 628 4550 
Q 988 4650 1302 4700 
Q 1616 4750 1894 4750 
Q 2613 4750 3031 4423 
Q 3450 4097 3450 3541 
Q 3450 3153 3228 2886 
Q 3006 2619 2597 2516 
z
" id="DejaVuSans-33" transform="scale(0.015625)"/>
       <path d="M 513 4856 
L 1013 4856 
Q 1481 4119 1714 3412 
Q 1947 2706 1947 2009 
Q 1947 1309 1714 600 
Q 1481 -109 1013 -844 
L 513 -844 
Q 928 -128 1133 580 
Q 1338 1288 1338 2009 
Q 1338 2731 1133 3434 
Q 928 4138 513 4856 
z
" id="DejaVuSans-29" transform="scale(0.015625)"/>
       <path d="M 2834 3397 
L 2834 2853 
Q 2591 2978 2328 3040 
Q 2066 3103 1784 3103 
Q 1356 3103 1142 2972 
Q 928 2841 928 2578 
Q 928 2378 1081 2264 
Q 1234 2150 1697 2047 
L 1894 2003 
Q 2506 1872 2764 1633 
Q 3022 1394 3022 966 
Q 3022 478 2636 193 
Q 2250 -91 1575 -91 
Q 1294 -91 989 -36 
Q 684 19 347 128 
L 347 722 
Q 666 556 975 473 
Q 1284 391 1588 391 
Q 1994 391 2212 530 
Q 2431 669 2431 922 
Q 2431 1156 2273 1281 
Q 2116 1406 1581 1522 
L 1381 1569 
Q 847 1681 609 1914 
Q 372 2147 372 2553 
Q 372 3047 722 3315 
Q 1072 3584 1716 3584 
Q 2034 3584 2315 3537 
Q 2597 3491 2834 3397 
z
" id="DejaVuSans-73" transform="scale(0.015625)"/>
      </defs>
      <use xlink:href="#DejaVuSans-54"/>
      <use x="57.958984" xlink:href="#DejaVuSans-69"/>
      <use x="85.742188" xlink:href="#DejaVuSans-65"/>
      <use x="147.265625" xlink:href="#DejaVuSans-6d"/>
      <use x="244.677734" xlink:href="#DejaVuSans-70"/>
      <use x="308.154297" xlink:href="#DejaVuSans-6f"/>
      <use x="369.335938" xlink:href="#DejaVuSans-20"/>
      <use x="401.123047" xlink:href="#DejaVuSans-64"/>
      <use x="464.599609" xlink:href="#DejaVuSans-65"/>
      <use x="526.123047" xlink:href="#DejaVuSans-20"/>
      <use x="557.910156" xlink:href="#DejaVuSans-65"/>
      <use x="619.433594" xlink:href="#DejaVuSans-6a"/>
      <use x="647.216797" xlink:href="#DejaVuSans-65"/>
      <use x="708.740234" xlink:href="#DejaVuSans-63"/>
      <use x="763.720703" xlink:href="#DejaVuSans-75"/>
      <use x="827.099609" xlink:href="#DejaVuSans-63"/>
      <use x="882.080078" xlink:href="#DejaVuSans-69"/>
      <use x="909.863281" xlink:href="#DejaVuSans-f3"/>
      <use x="971.044922" xlink:href="#DejaVuSans-6e"/>
      <use x="1034.423828" xlink:href="#DejaVuSans-20"/>
      <use x="1066.210938" xlink:href="#DejaVuSans-28"/>
      <use x="1105.224609" xlink:href="#DejaVuSans-31"/>
      <use x="1168.847656" xlink:href="#DejaVuSans-30"/>
      <use x="1232.470703" xlink:href="#DejaVuSans-5e"/>
      <use x="1316.259766" xlink:href="#DejaVuSans-28"/>
      <use x="1355.273438" xlink:href="#DejaVuSans-2d"/>
      <use x="1391.357422" xlink:href="#DejaVuSans-33"/>
      <use x="1454.980469" xlink:href="#DejaVuSans-29"/>
      <use x="1493.994141" xlink:href="#DejaVuSans-20"/>
      <use x="1525.78125" xlink:href="#DejaVuSans-73"/>
      <use x="1577.880859" xlink:href="#DejaVuSans-29"/>
     </g>
    </g>
   </g>
   <g id="matplotlib.axis_2">
    <g id="ytick_1">
     <g id="line2d_8">
      <defs>
       <path d="M 0 0 
L -3.5 0 
" id="mf2059b84c2" style="stroke:#000000;stroke-width:0.8;"/>
      </defs>
      <g>
       <use style="stroke:#000000;stroke-width:0.8;" x="43.79875" xlink:href="#mf2059b84c2" y="301.633103"/>
      </g>
     </g>
     <g id="text_9">
      <!-- 0.0 -->
      <g transform="translate(20.895625 305.432322)scale(0.1 -0.1)">
       <defs>
        <path d="M 684 794 
L 1344 794 
L 1344 0 
L 684 0 
L 684 794 
z
" id="DejaVuSans-2e" transform="scale(0.015625)"/>
       </defs>
       <use xlink:href="#DejaVuSans-30"/>
       <use x="63.623047" xlink:href="#DejaVuSans-2e"/>
       <use x="95.410156" xlink:href="#DejaVuSans-30"/>
      </g>
     </g>
    </g>
    <g id="ytick_2">
     <g id="line2d_9">
      <g>
       <use style="stroke:#000000;stroke-width:0.8;" x="43.79875" xlink:href="#mf2059b84c2" y="263.920017"/>
      </g>
     </g>
     <g id="text_10">
      <!-- 0.5 -->
      <g transform="translate(20.895625 267.719236)scale(0.1 -0.1)">
       <use xlink:href="#DejaVuSans-30"/>
       <use x="63.623047" xlink:href="#DejaVuSans-2e"/>
       <use x="95.410156" xlink:href="#DejaVuSans-35"/>
      </g>
     </g>
    </g>
    <g id="ytick_3">
     <g id="line2d_10">
      <g>
       <use style="stroke:#000000;stroke-width:0.8;" x="43.79875" xlink:href="#mf2059b84c2" y="226.206931"/>
      </g>
     </g>
     <g id="text_11">
      <!-- 1.0 -->
      <g transform="translate(20.895625 230.00615)scale(0.1 -0.1)">
       <use xlink:href="#DejaVuSans-31"/>
       <use x="63.623047" xlink:href="#DejaVuSans-2e"/>
       <use x="95.410156" xlink:href="#DejaVuSans-30"/>
      </g>
     </g>
    </g>
    <g id="ytick_4">
     <g id="line2d_11">
      <g>
       <use style="stroke:#000000;stroke-width:0.8;" x="43.79875" xlink:href="#mf2059b84c2" y="188.493845"/>
      </g>
     </g>
     <g id="text_12">
      <!-- 1.5 -->
      <g transform="translate(20.895625 192.293063)scale(0.1 -0.1)">
       <use xlink:href="#DejaVuSans-31"/>
       <use x="63.623047" xlink:href="#DejaVuSans-2e"/>
       <use x="95.410156" xlink:href="#DejaVuSans-35"/>
      </g>
     </g>
    </g>
    <g id="ytick_5">
     <g id="line2d_12">
      <g>
       <use style="stroke:#000000;stroke-width:0.8;" x="43.79875" xlink:href="#mf2059b84c2" y="150.780759"/>
      </g>
     </g>
     <g id="text_13">
      <!-- 2.0 -->
      <g transform="translate(20.895625 154.579977)scale(0.1 -0.1)">
       <use xlink:href="#DejaVuSans-32"/>
       <use x="63.623047" xlink:href="#DejaVuSans-2e"/>
       <use x="95.410156" xlink:href="#DejaVuSans-30"/>
      </g>
     </g>
    </g>
    <g id="ytick_6">
     <g id="line2d_13">
      <g>
       <use style="stroke:#000000;stroke-width:0.8;" x="43.79875" xlink:href="#mf2059b84c2" y="113.067673"/>
      </g>
     </g>
     <g id="text_14">
      <!-- 2.5 -->
      <g transform="translate(20.895625 116.866891)scale(0.1 -0.1)">
       <use xlink:href="#DejaVuSans-32"/>
       <use x="63.623047" xlink:href="#DejaVuSans-2e"/>
       <use x="95.410156" xlink:href="#DejaVuSans-35"/>
      </g>
     </g>
    </g>
    <g id="ytick_7">
     <g id="line2d_14">
      <g>
       <use style="stroke:#000000;stroke-width:0.8;" x="43.79875" xlink:href="#mf2059b84c2" y="75.354586"/>
      </g>
     </g>
     <g id="text_15">
      <!-- 3.0 -->
      <g transform="translate(20.895625 79.153805)scale(0.1 -0.1)">
       <use xlink:href="#DejaVuSans-33"/>
       <use x="63.623047" xlink:href="#DejaVuSans-2e"/>
       <use x="95.410156" xlink:href="#DejaVuSans-30"/>
      </g>
     </g>
    </g>
    <g id="ytick_8">
     <g id="line2d_15">
      <g>
       <use style="stroke:#000000;stroke-width:0.8;" x="43.79875" xlink:href="#mf2059b84c2" y="37.6415"/>
      </g>
     </g>
     <g id="text_16">
      <!-- 3.5 -->
      <g transform="translate(20.895625 41.440719)scale(0.1 -0.1)">
       <use xlink:href="#DejaVuSans-33"/>
       <use x="63.623047" xlink:href="#DejaVuSans-2e"/>
       <use x="95.410156" xlink:href="#DejaVuSans-35"/>
      </g>
     </g>
    </g>
    <g id="text_17">
     <!-- Complejidad - O(2^n) -->
     <g transform="translate(14.815938 225.389062)rotate(-90)scale(0.1 -0.1)">
      <defs>
       <path d="M 4122 4306 
L 4122 3641 
Q 3803 3938 3442 4084 
Q 3081 4231 2675 4231 
Q 1875 4231 1450 3742 
Q 1025 3253 1025 2328 
Q 1025 1406 1450 917 
Q 1875 428 2675 428 
Q 3081 428 3442 575 
Q 3803 722 4122 1019 
L 4122 359 
Q 3791 134 3420 21 
Q 3050 -91 2638 -91 
Q 1578 -91 968 557 
Q 359 1206 359 2328 
Q 359 3453 968 4101 
Q 1578 4750 2638 4750 
Q 3056 4750 3426 4639 
Q 3797 4528 4122 4306 
z
" id="DejaVuSans-43" transform="scale(0.015625)"/>
       <path d="M 603 4863 
L 1178 4863 
L 1178 0 
L 603 0 
L 603 4863 
z
" id="DejaVuSans-6c" transform="scale(0.015625)"/>
       <path d="M 2194 1759 
Q 1497 1759 1228 1600 
Q 959 1441 959 1056 
Q 959 750 1161 570 
Q 1363 391 1709 391 
Q 2188 391 2477 730 
Q 2766 1069 2766 1631 
L 2766 1759 
L 2194 1759 
z
M 3341 1997 
L 3341 0 
L 2766 0 
L 2766 531 
Q 2569 213 2275 61 
Q 1981 -91 1556 -91 
Q 1019 -91 701 211 
Q 384 513 384 1019 
Q 384 1609 779 1909 
Q 1175 2209 1959 2209 
L 2766 2209 
L 2766 2266 
Q 2766 2663 2505 2880 
Q 2244 3097 1772 3097 
Q 1472 3097 1187 3025 
Q 903 2953 641 2809 
L 641 3341 
Q 956 3463 1253 3523 
Q 1550 3584 1831 3584 
Q 2591 3584 2966 3190 
Q 3341 2797 3341 1997 
z
" id="DejaVuSans-61" transform="scale(0.015625)"/>
       <path d="M 2522 4238 
Q 1834 4238 1429 3725 
Q 1025 3213 1025 2328 
Q 1025 1447 1429 934 
Q 1834 422 2522 422 
Q 3209 422 3611 934 
Q 4013 1447 4013 2328 
Q 4013 3213 3611 3725 
Q 3209 4238 2522 4238 
z
M 2522 4750 
Q 3503 4750 4090 4092 
Q 4678 3434 4678 2328 
Q 4678 1225 4090 567 
Q 3503 -91 2522 -91 
Q 1538 -91 948 565 
Q 359 1222 359 2328 
Q 359 3434 948 4092 
Q 1538 4750 2522 4750 
z
" id="DejaVuSans-4f" transform="scale(0.015625)"/>
      </defs>
      <use xlink:href="#DejaVuSans-43"/>
      <use x="69.824219" xlink:href="#DejaVuSans-6f"/>
      <use x="131.005859" xlink:href="#DejaVuSans-6d"/>
      <use x="228.417969" xlink:href="#DejaVuSans-70"/>
      <use x="291.894531" xlink:href="#DejaVuSans-6c"/>
      <use x="319.677734" xlink:href="#DejaVuSans-65"/>
      <use x="381.201172" xlink:href="#DejaVuSans-6a"/>
      <use x="408.984375" xlink:href="#DejaVuSans-69"/>
      <use x="436.767578" xlink:href="#DejaVuSans-64"/>
      <use x="500.244141" xlink:href="#DejaVuSans-61"/>
      <use x="561.523438" xlink:href="#DejaVuSans-64"/>
      <use x="625" xlink:href="#DejaVuSans-20"/>
      <use x="656.787109" xlink:href="#DejaVuSans-2d"/>
      <use x="692.871094" xlink:href="#DejaVuSans-20"/>
      <use x="724.658203" xlink:href="#DejaVuSans-4f"/>
      <use x="803.369141" xlink:href="#DejaVuSans-28"/>
      <use x="842.382812" xlink:href="#DejaVuSans-32"/>
      <use x="906.005859" xlink:href="#DejaVuSans-5e"/>
      <use x="989.794922" xlink:href="#DejaVuSans-6e"/>
      <use x="1053.173828" xlink:href="#DejaVuSans-29"/>
     </g>
    </g>
    <g id="text_18">
     <!-- 1e13 -->
     <g transform="translate(43.79875 19.798125)scale(0.1 -0.1)">
      <use xlink:href="#DejaVuSans-31"/>
      <use x="63.623047" xlink:href="#DejaVuSans-65"/>
      <use x="125.146484" xlink:href="#DejaVuSans-31"/>
      <use x="188.769531" xlink:href="#DejaVuSans-33"/>
     </g>
    </g>
   </g>
   <g id="line2d_16">
    <path clip-path="url(#pad6483321d)" d="M 57.502386 303.90853 
L 59.480346 301.474148 
L 61.458306 299.039765 
L 63.436265 296.605383 
L 65.414225 294.171001 
L 67.392185 291.736618 
L 69.370144 289.302236 
L 71.348104 286.867854 
L 73.326064 284.433471 
L 75.304023 281.999089 
L 77.281983 279.564707 
L 79.259943 277.130325 
L 81.237902 274.695942 
L 83.215862 272.26156 
L 85.193822 269.827178 
L 87.171781 267.392795 
L 89.149741 264.958413 
L 91.127701 262.524031 
L 93.10566 260.089649 
L 95.08362 257.655266 
L 97.061579 255.220884 
L 99.039539 252.786502 
L 101.017499 250.352119 
L 102.995458 247.917737 
L 104.973418 245.483355 
L 106.951378 243.048973 
L 108.929337 240.61459 
L 110.907297 238.180208 
L 112.885257 235.745826 
L 114.863216 233.311443 
L 116.841176 230.877061 
L 118.819136 228.442679 
L 120.797095 226.008296 
L 122.775055 223.573914 
L 124.753015 221.139532 
L 126.730974 218.70515 
L 128.708934 216.270767 
L 130.686894 213.836385 
L 132.664853 211.402003 
L 134.642813 208.96762 
L 136.620773 206.533238 
L 138.598732 204.098856 
L 140.576692 201.664474 
L 142.554652 199.230091 
L 144.532611 196.795709 
L 146.510571 194.361327 
L 148.488531 191.926944 
L 150.46649 189.492562 
L 152.44445 187.05818 
L 154.42241 184.623798 
L 156.400369 182.189415 
L 158.378329 179.755033 
L 160.356288 177.320651 
L 162.334248 174.886268 
L 164.312208 172.451886 
L 166.290167 170.017504 
L 168.268127 167.583121 
L 170.246087 165.148739 
L 172.224046 162.714357 
L 174.202006 160.279975 
L 176.179966 157.845592 
L 178.157925 155.41121 
L 180.135885 152.976828 
L 182.113845 150.542445 
L 184.091804 148.108063 
L 186.069764 145.673681 
L 188.047724 143.239299 
L 190.025683 140.804916 
L 192.003643 138.370534 
L 193.981603 135.936152 
L 195.959562 133.501769 
L 197.937522 131.067387 
L 199.915482 128.633005 
L 201.893441 126.198623 
L 203.871401 123.76424 
L 205.849361 121.329858 
L 207.82732 118.895476 
L 209.80528 116.461093 
L 211.78324 114.026711 
L 213.761199 111.592329 
L 215.739159 109.157947 
L 217.717119 106.723564 
L 219.695078 104.289182 
L 221.673038 101.8548 
L 223.650997 99.420417 
L 225.628957 96.986035 
L 227.606917 94.551653 
L 229.584876 92.11727 
L 231.562836 89.682888 
L 233.540796 87.248506 
L 235.518755 84.814124 
L 237.496715 82.379741 
L 239.474675 79.945359 
L 241.452634 77.510977 
L 243.430594 75.076594 
L 245.408554 72.642212 
L 247.386513 70.20783 
L 249.364473 67.773448 
L 251.342433 65.339065 
L 253.320392 62.904683 
" style="fill:none;stroke:#1f77b4;stroke-linecap:square;stroke-width:2.25;"/>
   </g>
   <g id="line2d_17">
    <path clip-path="url(#pad6483321d)" d="M 57.502387 301.633105 
L 59.299188 301.632941 
L 61.095989 301.632778 
L 62.892789 301.632614 
L 64.68959 301.632451 
L 66.486391 301.632287 
L 68.283191 301.632123 
L 70.079992 301.63196 
L 71.876793 301.631796 
L 73.673593 301.631633 
L 75.470394 301.631469 
L 77.267194 301.631305 
L 79.063995 301.631142 
L 80.860796 301.630978 
L 82.657596 301.630814 
L 84.454397 301.630651 
L 86.251198 301.630487 
L 88.047998 301.630324 
L 89.844799 301.63016 
L 91.641599 301.629996 
L 93.4384 301.629833 
L 95.235201 301.629669 
L 97.032001 301.629506 
L 98.828802 301.629342 
L 100.625603 301.629178 
L 102.422403 301.629015 
L 104.219204 301.628851 
L 106.016005 301.628687 
L 107.812805 301.628524 
L 109.609606 301.62836 
L 111.406406 301.628197 
L 113.203207 301.628033 
L 115.000008 301.627869 
L 116.796808 301.627706 
L 118.593609 301.627542 
L 120.39041 301.627379 
L 122.18721 301.627215 
L 123.984011 301.627051 
L 125.780811 301.626888 
L 127.577612 301.626724 
L 129.374413 301.62656 
L 131.171213 301.626397 
L 132.968014 301.626233 
L 134.764815 301.62607 
L 136.561615 301.625906 
L 138.358416 301.625742 
L 140.155217 301.625579 
L 141.952017 301.625415 
L 143.748818 301.625252 
L 145.545618 301.625088 
L 147.342419 301.624924 
L 149.13922 301.624761 
L 150.93602 301.624597 
L 152.732821 301.624433 
L 154.529622 301.62427 
L 156.326422 301.624106 
L 158.123223 301.623943 
L 159.920023 301.623779 
L 161.716824 301.623615 
L 163.513625 301.623452 
L 165.310425 301.623288 
L 167.107226 301.623125 
L 168.904027 301.622961 
L 170.700827 301.622797 
L 172.497628 301.622634 
L 174.294429 301.62247 
L 176.091229 301.622306 
L 177.88803 301.622143 
L 179.68483 301.621979 
L 181.481631 301.621816 
L 183.278432 301.621652 
L 185.075232 301.621488 
L 186.872033 301.621325 
L 188.668834 301.621161 
L 190.465634 301.620998 
L 192.262435 301.620834 
L 194.059236 301.62067 
L 195.856036 301.620507 
L 197.652837 301.620343 
L 199.449637 301.620179 
L 201.246438 301.620016 
L 203.043239 301.619852 
L 204.840039 301.619689 
L 206.63684 301.619525 
L 208.433641 301.619361 
L 210.230441 301.619198 
L 212.027242 301.619034 
L 213.824042 301.618871 
L 215.620843 301.618707 
L 217.417644 301.618543 
L 219.214444 301.61838 
L 221.011245 301.618216 
L 222.808046 301.618052 
L 224.604846 301.617889 
L 226.401647 301.617725 
L 228.198448 301.617562 
L 229.995248 301.617398 
L 231.792049 301.617234 
L 233.588849 301.617071 
L 235.38565 301.616907 
" style="fill:none;stroke:#ff7f0e;stroke-linecap:square;stroke-width:2.25;"/>
   </g>
   <g id="line2d_18">
    <path clip-path="url(#pad6483321d)" d="M 57.502387 303.879048 
L 60.270798 301.450905 
L 63.03921 299.022762 
L 65.807621 296.59462 
L 68.576033 294.166477 
L 71.344444 291.738334 
L 74.112855 289.310192 
L 76.881267 286.882049 
L 79.649678 284.453906 
L 82.418089 282.025763 
L 85.186501 279.597621 
L 87.954912 277.169478 
L 90.723324 274.741335 
L 93.491735 272.313193 
L 96.260146 269.88505 
L 99.028558 267.456907 
L 101.796969 265.028765 
L 104.56538 262.600622 
L 107.333792 260.172479 
L 110.102203 257.744337 
L 112.870615 255.316194 
L 115.639026 252.888051 
L 118.407437 250.459909 
L 121.175849 248.031766 
L 123.94426 245.603623 
L 126.712672 243.17548 
L 129.481083 240.747338 
L 132.249494 238.319195 
L 135.017906 235.891052 
L 137.786317 233.46291 
L 140.554728 231.034767 
L 143.32314 228.606624 
L 146.091551 226.178482 
L 148.859963 223.750339 
L 151.628374 221.322196 
L 154.396785 218.894054 
L 157.165197 216.465911 
L 159.933608 214.037768 
L 162.702019 211.609625 
L 165.470431 209.181483 
L 168.238842 206.75334 
L 171.007254 204.325197 
L 173.775665 201.897055 
L 176.544076 199.468912 
L 179.312488 197.040769 
L 182.080899 194.612627 
L 184.84931 192.184484 
L 187.617722 189.756341 
L 190.386133 187.328199 
L 193.154545 184.900056 
L 195.922956 182.471913 
L 198.691367 180.04377 
L 201.459779 177.615628 
L 204.22819 175.187485 
L 206.996602 172.759342 
L 209.765013 170.3312 
L 212.533424 167.903057 
L 215.301836 165.474914 
L 218.070247 163.046772 
L 220.838658 160.618629 
L 223.60707 158.190486 
L 226.375481 155.762344 
L 229.143893 153.334201 
L 231.912304 150.906058 
L 234.680715 148.477916 
L 237.449127 146.049773 
L 240.217538 143.62163 
L 242.985949 141.193487 
L 245.754361 138.765345 
L 248.522772 136.337202 
L 251.291184 133.909059 
L 254.059595 131.480917 
L 256.828006 129.052774 
L 259.596418 126.624631 
L 262.364829 124.196489 
L 265.133241 121.768346 
L 267.901652 119.340203 
L 270.670063 116.912061 
L 273.438475 114.483918 
L 276.206886 112.055775 
L 278.975297 109.627632 
L 281.743709 107.19949 
L 284.51212 104.771347 
L 287.280532 102.343204 
L 290.048943 99.915062 
L 292.817354 97.486919 
L 295.585766 95.058776 
L 298.354177 92.630634 
L 301.122588 90.202491 
L 303.891 87.774348 
L 306.659411 85.346206 
L 309.427823 82.918063 
L 312.196234 80.48992 
L 314.964645 78.061778 
L 317.733057 75.633635 
L 320.501468 73.205492 
L 323.269879 70.777349 
L 326.038291 68.349207 
L 328.806702 65.921064 
L 331.575114 63.492921 
" style="fill:none;stroke:#2ca02c;stroke-linecap:square;stroke-width:2.25;"/>
   </g>
   <g id="patch_3">
    <path d="M 43.79875 318.758125 
L 43.79875 22.798125 
" style="fill:none;stroke:#000000;stroke-linecap:square;stroke-linejoin:miter;stroke-width:0.8;"/>
   </g>
   <g id="patch_4">
    <path d="M 43.79875 318.758125 
L 345.27875 318.758125 
" style="fill:none;stroke:#000000;stroke-linecap:square;stroke-linejoin:miter;stroke-width:0.8;"/>
   </g>
   <g id="text_19">
    <!-- Correlación de tiempo de ejecución con complejidad esperada -->
    <g transform="translate(7.2 16.798125)scale(0.12 -0.12)">
     <defs>
      <path d="M 2631 2963 
Q 2534 3019 2420 3045 
Q 2306 3072 2169 3072 
Q 1681 3072 1420 2755 
Q 1159 2438 1159 1844 
L 1159 0 
L 581 0 
L 581 3500 
L 1159 3500 
L 1159 2956 
Q 1341 3275 1631 3429 
Q 1922 3584 2338 3584 
Q 2397 3584 2469 3576 
Q 2541 3569 2628 3553 
L 2631 2963 
z
" id="DejaVuSans-72" transform="scale(0.015625)"/>
      <path d="M 1172 4494 
L 1172 3500 
L 2356 3500 
L 2356 3053 
L 1172 3053 
L 1172 1153 
Q 1172 725 1289 603 
Q 1406 481 1766 481 
L 2356 481 
L 2356 0 
L 1766 0 
Q 1100 0 847 248 
Q 594 497 594 1153 
L 594 3053 
L 172 3053 
L 172 3500 
L 594 3500 
L 594 4494 
L 1172 4494 
z
" id="DejaVuSans-74" transform="scale(0.015625)"/>
     </defs>
     <use xlink:href="#DejaVuSans-43"/>
     <use x="69.824219" xlink:href="#DejaVuSans-6f"/>
     <use x="131.005859" xlink:href="#DejaVuSans-72"/>
     <use x="170.369141" xlink:href="#DejaVuSans-72"/>
     <use x="209.232422" xlink:href="#DejaVuSans-65"/>
     <use x="270.755859" xlink:href="#DejaVuSans-6c"/>
     <use x="298.539062" xlink:href="#DejaVuSans-61"/>
     <use x="359.818359" xlink:href="#DejaVuSans-63"/>
     <use x="414.798828" xlink:href="#DejaVuSans-69"/>
     <use x="442.582031" xlink:href="#DejaVuSans-f3"/>
     <use x="503.763672" xlink:href="#DejaVuSans-6e"/>
     <use x="567.142578" xlink:href="#DejaVuSans-20"/>
     <use x="598.929688" xlink:href="#DejaVuSans-64"/>
     <use x="662.40625" xlink:href="#DejaVuSans-65"/>
     <use x="723.929688" xlink:href="#DejaVuSans-20"/>
     <use x="755.716797" xlink:href="#DejaVuSans-74"/>
     <use x="794.925781" xlink:href="#DejaVuSans-69"/>
     <use x="822.708984" xlink:href="#DejaVuSans-65"/>
     <use x="884.232422" xlink:href="#DejaVuSans-6d"/>
     <use x="981.644531" xlink:href="#DejaVuSans-70"/>
     <use x="1045.121094" xlink:href="#DejaVuSans-6f"/>
     <use x="1106.302734" xlink:href="#DejaVuSans-20"/>
     <use x="1138.089844" xlink:href="#DejaVuSans-64"/>
     <use x="1201.566406" xlink:href="#DejaVuSans-65"/>
     <use x="1263.089844" xlink:href="#DejaVuSans-20"/>
     <use x="1294.876953" xlink:href="#DejaVuSans-65"/>
     <use x="1356.400391" xlink:href="#DejaVuSans-6a"/>
     <use x="1384.183594" xlink:href="#DejaVuSans-65"/>
     <use x="1445.707031" xlink:href="#DejaVuSans-63"/>
     <use x="1500.6875" xlink:href="#DejaVuSans-75"/>
     <use x="1564.066406" xlink:href="#DejaVuSans-63"/>
     <use x="1619.046875" xlink:href="#DejaVuSans-69"/>
     <use x="1646.830078" xlink:href="#DejaVuSans-f3"/>
     <use x="1708.011719" xlink:href="#DejaVuSans-6e"/>
     <use x="1771.390625" xlink:href="#DejaVuSans-20"/>
     <use x="1803.177734" xlink:href="#DejaVuSans-63"/>
     <use x="1858.158203" xlink:href="#DejaVuSans-6f"/>
     <use x="1919.339844" xlink:href="#DejaVuSans-6e"/>
     <use x="1982.71875" xlink:href="#DejaVuSans-20"/>
     <use x="2014.505859" xlink:href="#DejaVuSans-63"/>
     <use x="2069.486328" xlink:href="#DejaVuSans-6f"/>
     <use x="2130.667969" xlink:href="#DejaVuSans-6d"/>
     <use x="2228.080078" xlink:href="#DejaVuSans-70"/>
     <use x="2291.556641" xlink:href="#DejaVuSans-6c"/>
     <use x="2319.339844" xlink:href="#DejaVuSans-65"/>
     <use x="2380.863281" xlink:href="#DejaVuSans-6a"/>
     <use x="2408.646484" xlink:href="#DejaVuSans-69"/>
     <use x="2436.429688" xlink:href="#DejaVuSans-64"/>
     <use x="2499.90625" xlink:href="#DejaVuSans-61"/>
     <use x="2561.185547" xlink:href="#DejaVuSans-64"/>
     <use x="2624.662109" xlink:href="#DejaVuSans-20"/>
     <use x="2656.449219" xlink:href="#DejaVuSans-65"/>
     <use x="2717.972656" xlink:href="#DejaVuSans-73"/>
     <use x="2770.072266" xlink:href="#DejaVuSans-70"/>
     <use x="2833.548828" xlink:href="#DejaVuSans-65"/>
     <use x="2895.072266" xlink:href="#DejaVuSans-72"/>
     <use x="2936.185547" xlink:href="#DejaVuSans-61"/>
     <use x="2997.464844" xlink:href="#DejaVuSans-64"/>
     <use x="3060.941406" xlink:href="#DejaVuSans-61"/>
    </g>
   </g>
   <g id="legend_1">
    <g id="patch_5">
     <path d="M 50.79875 89.510625 
L 106.609688 89.510625 
Q 108.609688 89.510625 108.609688 87.510625 
L 108.609688 29.798125 
Q 108.609688 27.798125 106.609688 27.798125 
L 50.79875 27.798125 
Q 48.79875 27.798125 48.79875 29.798125 
L 48.79875 87.510625 
Q 48.79875 89.510625 50.79875 89.510625 
z
" style="fill:#ffffff;opacity:0.8;stroke:#cccccc;stroke-linejoin:miter;"/>
    </g>
    <g id="text_20">
     <!-- Algoritmo -->
     <g transform="translate(54.326875 39.396563)scale(0.1 -0.1)">
      <defs>
       <path d="M 2188 4044 
L 1331 1722 
L 3047 1722 
L 2188 4044 
z
M 1831 4666 
L 2547 4666 
L 4325 0 
L 3669 0 
L 3244 1197 
L 1141 1197 
L 716 0 
L 50 0 
L 1831 4666 
z
" id="DejaVuSans-41" transform="scale(0.015625)"/>
       <path d="M 2906 1791 
Q 2906 2416 2648 2759 
Q 2391 3103 1925 3103 
Q 1463 3103 1205 2759 
Q 947 2416 947 1791 
Q 947 1169 1205 825 
Q 1463 481 1925 481 
Q 2391 481 2648 825 
Q 2906 1169 2906 1791 
z
M 3481 434 
Q 3481 -459 3084 -895 
Q 2688 -1331 1869 -1331 
Q 1566 -1331 1297 -1286 
Q 1028 -1241 775 -1147 
L 775 -588 
Q 1028 -725 1275 -790 
Q 1522 -856 1778 -856 
Q 2344 -856 2625 -561 
Q 2906 -266 2906 331 
L 2906 616 
Q 2728 306 2450 153 
Q 2172 0 1784 0 
Q 1141 0 747 490 
Q 353 981 353 1791 
Q 353 2603 747 3093 
Q 1141 3584 1784 3584 
Q 2172 3584 2450 3431 
Q 2728 3278 2906 2969 
L 2906 3500 
L 3481 3500 
L 3481 434 
z
" id="DejaVuSans-67" transform="scale(0.015625)"/>
      </defs>
      <use xlink:href="#DejaVuSans-41"/>
      <use x="68.408203" xlink:href="#DejaVuSans-6c"/>
      <use x="96.191406" xlink:href="#DejaVuSans-67"/>
      <use x="159.667969" xlink:href="#DejaVuSans-6f"/>
      <use x="220.849609" xlink:href="#DejaVuSans-72"/>
      <use x="261.962891" xlink:href="#DejaVuSans-69"/>
      <use x="289.746094" xlink:href="#DejaVuSans-74"/>
      <use x="328.955078" xlink:href="#DejaVuSans-6d"/>
      <use x="426.367188" xlink:href="#DejaVuSans-6f"/>
     </g>
    </g>
    <g id="PathCollection_4">
     <g>
      <use style="fill:#1f77b4;fill-opacity:0.8;stroke:#1f77b4;stroke-opacity:0.8;" x="62.79875" xlink:href="#mc3c5b9dd0e" y="51.449688"/>
     </g>
    </g>
    <g id="text_21">
     <!-- BT-F -->
     <g transform="translate(80.79875 54.074688)scale(0.1 -0.1)">
      <defs>
       <path d="M 1259 2228 
L 1259 519 
L 2272 519 
Q 2781 519 3026 730 
Q 3272 941 3272 1375 
Q 3272 1813 3026 2020 
Q 2781 2228 2272 2228 
L 1259 2228 
z
M 1259 4147 
L 1259 2741 
L 2194 2741 
Q 2656 2741 2882 2914 
Q 3109 3088 3109 3444 
Q 3109 3797 2882 3972 
Q 2656 4147 2194 4147 
L 1259 4147 
z
M 628 4666 
L 2241 4666 
Q 2963 4666 3353 4366 
Q 3744 4066 3744 3513 
Q 3744 3084 3544 2831 
Q 3344 2578 2956 2516 
Q 3422 2416 3680 2098 
Q 3938 1781 3938 1306 
Q 3938 681 3513 340 
Q 3088 0 2303 0 
L 628 0 
L 628 4666 
z
" id="DejaVuSans-42" transform="scale(0.015625)"/>
       <path d="M 628 4666 
L 3309 4666 
L 3309 4134 
L 1259 4134 
L 1259 2759 
L 3109 2759 
L 3109 2228 
L 1259 2228 
L 1259 0 
L 628 0 
L 628 4666 
z
" id="DejaVuSans-46" transform="scale(0.015625)"/>
      </defs>
      <use xlink:href="#DejaVuSans-42"/>
      <use x="68.603516" xlink:href="#DejaVuSans-54"/>
      <use x="120.5625" xlink:href="#DejaVuSans-2d"/>
      <use x="156.646484" xlink:href="#DejaVuSans-46"/>
     </g>
    </g>
    <g id="PathCollection_5">
     <g>
      <use style="fill:#ff7f0e;fill-opacity:0.8;stroke:#ff7f0e;stroke-opacity:0.8;" x="62.79875" xlink:href="#m8fe5dda669" y="66.127813"/>
     </g>
    </g>
    <g id="text_22">
     <!-- BT-O -->
     <g transform="translate(80.79875 68.752813)scale(0.1 -0.1)">
      <use xlink:href="#DejaVuSans-42"/>
      <use x="68.603516" xlink:href="#DejaVuSans-54"/>
      <use x="120.5625" xlink:href="#DejaVuSans-2d"/>
      <use x="159.396484" xlink:href="#DejaVuSans-4f"/>
     </g>
    </g>
    <g id="PathCollection_6">
     <g>
      <use style="fill:#2ca02c;fill-opacity:0.8;stroke:#2ca02c;stroke-opacity:0.8;" x="62.79875" xlink:href="#m27867101b1" y="80.805938"/>
     </g>
    </g>
    <g id="text_23">
     <!-- BT -->
     <g transform="translate(80.79875 83.430938)scale(0.1 -0.1)">
      <use xlink:href="#DejaVuSans-42"/>
      <use x="68.603516" xlink:href="#DejaVuSans-54"/>
     </g>
    </g>
   </g>
  </g>
 </g>
 <defs>
  <clipPath id="pad6483321d">
   <rect height="295.96" width="301.48" x="43.79875" y="22.798125"/>
  </clipPath>
 </defs>
</svg>
